STARTFONT 2.1
FONT 48.128
SIZE 128 75 75
FONTBOUNDINGBOX 96 128 0 -2
STARTPROPERTIES 4
FONT_ASCENT 126
FONT_DESCENT 2
DEFAULT_CHAR 65533
SPACING "C"
ENDPROPERTIES
CHARS 899
STARTCHAR U+0001
ENCODING 1
SWIDTH 3000 0
DWIDTH 48 0
BBX 48 128 0 -2
BITMAP 
000000000000
000000000000
000000000000
000000000000
000000000000
000000000000
000000000000
000000000000
000000000000
000000000000
000000000000
000000000000
000000000000
000000000000
000000000000
000000000000
000000000000
000000000000
000000000000
000000000000
000000000000
000000000000
000000000000
000000000000
000000000000
000000000000
000000000000
000000000000
000000000000
000000000000
000000000000
000000000000
000000000000
000000000000
000000000000
000000000000
000000000000
000000000000
000000000000
000000000000
0001ffff8000
0007ffffe000
000ffffff000
001ffffff800
003e00007c00
007800001e00
00e000000700
01c000000380
03c0000003c0
0780000001e0
0780000001e0
0f00000000f0
0f00000000f0
0f00000000f0
0f00000000f0
0f00000000f0
0f07e007e0f0
0f0ff00ff0f0
0f0ff00ff0f0
0f0ff00ff0f0
0f0ff00ff0f0
0f0ff00ff0f0
0f0ff00ff0f0
0f07e007e0f0
0f00000000f0
0f00000000f0
0f00000000f0
0f00000000f0
0f00000000f0
0f00000000f0
0f00000000f0
0f00000000f0
0f04000020f0
0f0e000070f0
0f078001e0f0
0f03e007c0f0
0f01ffff80f0
0f00ffff00f0
0f007ffe00f0
0f001ff800f0
0f00000000f0
0780000001e0
0780000001e0
03c0000003c0
01c000000380
00e000000700
007800001e00
003e00007c00
001ffffff800
000ffffff000
0007ffffe000
0001ffff8000
000000000000
000000000000
000000000000
000000000000
000000000000
000000000000
000000000000
000000000000
000000000000
000000000000
000000000000
000000000000
000000000000
000000000000
000000000000
000000000000
000000000000
000000000000
000000000000
000000000000
000000000000
000000000000
000000000000
000000000000
000000000000
000000000000
000000000000
000000000000
000000000000
000000000000
000000000000
000000000000
000000000000
000000000000
000000000000
000000000000
ENDCHAR
STARTCHAR U+0002
ENCODING 2
SWIDTH 3000 0
DWIDTH 48 0
BBX 48 128 0 -2
BITMAP 
000000000000
000000000000
000000000000
000000000000
000000000000
000000000000
000000000000
000000000000
000000000000
000000000000
000000000000
000000000000
000000000000
000000000000
000000000000
000000000000
000000000000
000000000000
000000000000
000000000000
000000000000
000000000000
000000000000
000000000000
000000000000
000000000000
000000000000
000000000000
000000000000
000000000000
000000000000
000000000000
000000000000
000000000000
000000000000
000000000000
000000000000
000000000000
000000000000
000000000000
0001ffff8000
0007ffffe000
000ffffff000
001ffffff800
003ffffffc00
007ffffffe00
00ffffffff00
01ffffffff80
03ffffffffc0
07ffffffffe0
07ffffffffe0
0ffffffffff0
0ffffffffff0
0ffffffffff0
0ffffffffff0
0ffffffffff0
0ff00ff00ff0
0ff00ff00ff0
0ff00ff00ff0
0ff00ff00ff0
0ff00ff00ff0
0ff00ff00ff0
0ff00ff00ff0
0ff00ff00ff0
0ffffffffff0
0ffffffffff0
0ffffffffff0
0ffffffffff0
0ffffffffff0
0ffffffffff0
0ffffffffff0
0ffffffffff0
0ff1ffff8ff0
0ff0ffff0ff0
0ff07ffe0ff0
0ff81ff81ff0
0ffc00003ff0
0ffe00007ff0
0fff8001fff0
0fffe007fff0
0ffffffffff0
07ffffffffe0
07ffffffffe0
03ffffffffc0
01ffffffff80
00ffffffff00
007ffffffe00
003ffffffc00
001ffffff800
000ffffff000
0007ffffe000
0001ffff8000
000000000000
000000000000
000000000000
000000000000
000000000000
000000000000
000000000000
000000000000
000000000000
000000000000
000000000000
000000000000
000000000000
000000000000
000000000000
000000000000
000000000000
000000000000
000000000000
000000000000
000000000000
000000000000
000000000000
000000000000
000000000000
000000000000
000000000000
000000000000
000000000000
000000000000
000000000000
000000000000
000000000000
000000000000
000000000000
000000000000
ENDCHAR
STARTCHAR U+0003
ENCODING 3
SWIDTH 3000 0
DWIDTH 48 0
BBX 48 128 0 -2
BITMAP 
000000000000
000000000000
000000000000
000000000000
000000000000
000000000000
000000000000
000000000000
000000000000
000000000000
000000000000
000000000000
000000000000
000000000000
000000000000
000000000000
000000000000
000000000000
000000000000
000000000000
000000000000
000000000000
000000000000
000000000000
000000000000
000000000000
000000000000
000000000000
000000000000
000000000000
000000000000
000000000000
000000000000
000000000000
000000000000
000000000000
000000000000
000000000000
000000000000
000000000000
000000000000
000000000000
000000000000
000000000000
000000000000
000000000000
000000000000
000000000000
000000000000
000000000000
000000000000
000000000000
000000000000
000000000000
000000000000
000000000000
000180001800
0007e0007e00
000ff000ff00
001ff801ff80
003ffc03ffc0
007ffe07ffe0
007fff0fffe0
00ffff9ffff0
00fffffffff0
00fffffffff0
00fffffffff0
00fffffffff0
00fffffffff0
00fffffffff0
00fffffffff0
00fffffffff0
00fffffffff0
007fffffffe0
007fffffffe0
003fffffffc0
001fffffff80
000fffffff00
0007fffffe00
0003fffffc00
0001fffff800
0000fffff000
00007fffe000
00003fffc000
00001fff8000
00000fff0000
000007fe0000
000003fc0000
000001f80000
000000f00000
000000600000
000000000000
000000000000
000000000000
000000000000
000000000000
000000000000
000000000000
000000000000
000000000000
000000000000
000000000000
000000000000
000000000000
000000000000
000000000000
000000000000
000000000000
000000000000
000000000000
000000000000
000000000000
000000000000
000000000000
000000000000
000000000000
000000000000
000000000000
000000000000
000000000000
000000000000
000000000000
000000000000
000000000000
000000000000
000000000000
000000000000
000000000000
ENDCHAR
STARTCHAR U+0004
ENCODING 4
SWIDTH 3000 0
DWIDTH 48 0
BBX 48 128 0 -2
BITMAP 
000000000000
000000000000
000000000000
000000000000
000000000000
000000000000
000000000000
000000000000
000000000000
000000000000
000000000000
000000000000
000000000000
000000000000
000000000000
000000000000
000000000000
000000000000
000000000000
000000000000
000000000000
000000000000
000000000000
000000000000
000000000000
000000000000
000000000000
000000000000
000000000000
000000000000
000000000000
000000000000
000000000000
000000000000
000000000000
000000000000
000000000000
000000000000
000000000000
000000000000
000000000000
000000000000
000000000000
000000000000
000000000000
000000000000
000000000000
000000000000
000000000000
000000000000
000000000000
000000000000
000000000000
000000000000
000000000000
000000000000
000001800000
000007e00000
00000ff00000
00001ff80000
00003ffc0000
00007ffe0000
0000ffff0000
0001ffff8000
0003ffffc000
0007ffffe000
000ffffff000
001ffffff800
003ffffffc00
007ffffffe00
00ffffffff00
01ffffffff80
03ffffffffc0
07ffffffffe0
07ffffffffe0
03ffffffffc0
01ffffffff80
00ffffffff00
007ffffffe00
003ffffffc00
001ffffff800
000ffffff000
0007ffffe000
0003ffffc000
0001ffff8000
0000ffff0000
00007ffe0000
00003ffc0000
00001ff80000
00000ff00000
000007e00000
000001800000
000000000000
000000000000
000000000000
000000000000
000000000000
000000000000
000000000000
000000000000
000000000000
000000000000
000000000000
000000000000
000000000000
000000000000
000000000000
000000000000
000000000000
000000000000
000000000000
000000000000
000000000000
000000000000
000000000000
000000000000
000000000000
000000000000
000000000000
000000000000
000000000000
000000000000
000000000000
000000000000
000000000000
000000000000
000000000000
000000000000
ENDCHAR
STARTCHAR U+0005
ENCODING 5
SWIDTH 3000 0
DWIDTH 48 0
BBX 48 128 0 -2
BITMAP 
000000000000
000000000000
000000000000
000000000000
000000000000
000000000000
000000000000
000000000000
000000000000
000000000000
000000000000
000000000000
000000000000
000000000000
000000000000
000000000000
000000000000
000000000000
000000000000
000000000000
000000000000
000000000000
000000000000
000000000000
000000000000
000000000000
000000000000
000000000000
000000000000
000000000000
000000000000
000000000000
000000000000
000000000000
000000000000
000000000000
000000000000
000000000000
000000000000
000000000000
000000000000
000000000000
000000000000
000000000000
000000000000
000000000000
000000000000
000000000000
000001f80000
000007fe0000
00000fff0000
00001fff8000
00003fffc000
00007fffe000
00007fffe000
0000fffff000
0000fffff000
00007fffe000
00007fffe000
00003fffc000
00001fff8000
00000fff0000
000007fe0000
000003fc0000
000181f81800
0007e0f07e00
000ff0f0ff00
001ff8f1ff80
003fffffffc0
007fffffffe0
007fffffffe0
00fffffffff0
00fffffffff0
00fffffffff0
00fffffffff0
00fffffffff0
00ffff9ffff0
007fff0fffe0
007ffe07ffe0
003ffc03ffc0
001ff861ff80
000ff0f0ff00
0007e0f07e00
000180f01800
000000f00000
000000f00000
000000f00000
000000f00000
000000f00000
000000f00000
000000f00000
000000f00000
00007fffe000
0000fffff000
0000fffff000
00007fffe000
000000000000
000000000000
000000000000
000000000000
000000000000
000000000000
000000000000
000000000000
000000000000
000000000000
000000000000
000000000000
000000000000
000000000000
000000000000
000000000000
000000000000
000000000000
000000000000
000000000000
000000000000
000000000000
000000000000
000000000000
000000000000
000000000000
000000000000
000000000000
000000000000
000000000000
000000000000
000000000000
ENDCHAR
STARTCHAR U+0006
ENCODING 6
SWIDTH 3000 0
DWIDTH 48 0
BBX 48 128 0 -2
BITMAP 
000000000000
000000000000
000000000000
000000000000
000000000000
000000000000
000000000000
000000000000
000000000000
000000000000
000000000000
000000000000
000000000000
000000000000
000000000000
000000000000
000000000000
000000000000
000000000000
000000000000
000000000000
000000000000
000000000000
000000000000
000000000000
000000000000
000000000000
000000000000
000000000000
000000000000
000000000000
000000000000
000000000000
000000000000
000000000000
000000000000
000000000000
000000000000
000000000000
000000000000
000000000000
000000000000
000000000000
000000000000
000000000000
000000000000
000000000000
000000000000
000000000000
000000000000
000000000000
000000000000
000000000000
000000600000
000000f00000
000001f80000
000003fc0000
000007fe0000
00000fff0000
00001fff8000
00003fffc000
00007fffe000
0000fffff000
0001fffff800
0003fffffc00
0007fffffe00
000fffffff00
001fffffff80
003fffffffc0
007fffffffe0
007fffffffe0
00fffffffff0
00fffffffff0
00fffffffff0
00fffffffff0
00fffffffff0
00fffffffff0
007fffffffe0
007fffffffe0
003fffffffc0
001fff9fff80
000fff0fff00
0007fe07fe00
0001f801f800
000000600000
000000f00000
000000f00000
000000f00000
000000f00000
000000f00000
000000f00000
000000f00000
00007fffe000
0000fffff000
0000fffff000
00007fffe000
000000000000
000000000000
000000000000
000000000000
000000000000
000000000000
000000000000
000000000000
000000000000
000000000000
000000000000
000000000000
000000000000
000000000000
000000000000
000000000000
000000000000
000000000000
000000000000
000000000000
000000000000
000000000000
000000000000
000000000000
000000000000
000000000000
000000000000
000000000000
000000000000
000000000000
000000000000
000000000000
ENDCHAR
STARTCHAR U+0007
ENCODING 7
SWIDTH 3000 0
DWIDTH 48 0
BBX 48 128 0 -2
BITMAP 
000000000000
000000000000
000000000000
000000000000
000000000000
000000000000
000000000000
000000000000
000000000000
000000000000
000000000000
000000000000
000000000000
000000000000
000000000000
000000000000
000000000000
000000000000
000000000000
000000000000
000000000000
000000000000
000000000000
000000000000
000000000000
000000000000
000000000000
000000000000
000000000000
000000000000
000000000000
000000000000
000000000000
000000000000
000000000000
000000000000
000000000000
000000000000
000000000000
000000000000
000000000000
000000000000
000000000000
000000000000
000000000000
000000000000
000000000000
000000000000
000000000000
000000000000
000000000000
000000000000
000000000000
000000000000
000000000000
000000000000
00001ff80000
00007ffe0000
0000ffff0000
0001ffff8000
0003ffffc000
0007ffffe000
0007ffffe000
000ffffff000
000ffffff000
000ffffff000
000ffffff000
000ffffff000
000ffffff000
000ffffff000
000ffffff000
000ffffff000
000ffffff000
0007ffffe000
0007ffffe000
0003ffffc000
0001ffff8000
0000ffff0000
00007ffe0000
00001ff80000
000000000000
000000000000
000000000000
000000000000
000000000000
000000000000
000000000000
000000000000
000000000000
000000000000
000000000000
000000000000
000000000000
000000000000
000000000000
000000000000
000000000000
000000000000
000000000000
000000000000
000000000000
000000000000
000000000000
000000000000
000000000000
000000000000
000000000000
000000000000
000000000000
000000000000
000000000000
000000000000
000000000000
000000000000
000000000000
000000000000
000000000000
000000000000
000000000000
000000000000
000000000000
000000000000
000000000000
000000000000
000000000000
000000000000
000000000000
000000000000
ENDCHAR
STARTCHAR U+0008
ENCODING 8
SWIDTH 3000 0
DWIDTH 48 0
BBX 48 128 0 -2
BITMAP 
000000000000
000000000000
000000000000
000000000000
000000000000
000000000000
000000000000
000000000000
ffffffffffff
ffffffffffff
ffffffffffff
ffffffffffff
ffffffffffff
ffffffffffff
ffffffffffff
ffffffffffff
ffffffffffff
ffffffffffff
ffffffffffff
ffffffffffff
ffffffffffff
ffffffffffff
ffffffffffff
ffffffffffff
ffffffffffff
ffffffffffff
ffffffffffff
ffffffffffff
ffffffffffff
ffffffffffff
ffffffffffff
ffffffffffff
ffffffffffff
ffffffffffff
ffffffffffff
ffffffffffff
ffffffffffff
ffffffffffff
ffffffffffff
ffffffffffff
ffffffffffff
ffffffffffff
ffffffffffff
ffffffffffff
ffffffffffff
ffffffffffff
ffffffffffff
ffffffffffff
ffffffffffff
ffffffffffff
ffffffffffff
ffffffffffff
ffffffffffff
ffffffffffff
ffffffffffff
ffffffffffff
ffffe007ffff
ffff8001ffff
fffe00007fff
fffc00003fff
fffc00003fff
fff800001fff
fff800001fff
fff000000fff
fff000000fff
fff000000fff
fff000000fff
fff000000fff
fff000000fff
fff000000fff
fff000000fff
fff000000fff
fff000000fff
fff800001fff
fff800001fff
fffc00003fff
fffc00003fff
fffe00007fff
ffff8001ffff
ffffe007ffff
ffffffffffff
ffffffffffff
ffffffffffff
ffffffffffff
ffffffffffff
ffffffffffff
ffffffffffff
ffffffffffff
ffffffffffff
ffffffffffff
ffffffffffff
ffffffffffff
ffffffffffff
ffffffffffff
ffffffffffff
ffffffffffff
ffffffffffff
ffffffffffff
ffffffffffff
ffffffffffff
ffffffffffff
ffffffffffff
ffffffffffff
ffffffffffff
ffffffffffff
ffffffffffff
ffffffffffff
ffffffffffff
ffffffffffff
ffffffffffff
ffffffffffff
ffffffffffff
ffffffffffff
ffffffffffff
ffffffffffff
ffffffffffff
ffffffffffff
ffffffffffff
ffffffffffff
ffffffffffff
ffffffffffff
ffffffffffff
ffffffffffff
ffffffffffff
ffffffffffff
ffffffffffff
ffffffffffff
ffffffffffff
ENDCHAR
STARTCHAR U+0009
ENCODING 9
SWIDTH 3000 0
DWIDTH 48 0
BBX 48 128 0 -2
BITMAP 
000000000000
000000000000
000000000000
000000000000
000000000000
000000000000
000000000000
000000000000
000000000000
000000000000
000000000000
000000000000
000000000000
000000000000
000000000000
000000000000
000000000000
000000000000
000000000000
000000000000
000000000000
000000000000
000000000000
000000000000
000000000000
000000000000
000000000000
000000000000
000000000000
000000000000
000000000000
000000000000
000000000000
000000000000
000000000000
000000000000
000000000000
000000000000
000000000000
000000000000
000000000000
000000000000
000000000000
000000000000
000000000000
000000000000
000000000000
000000000000
00001ff80000
00007ffe0000
0000ffff0000
0001ffff8000
0003ffffc000
0007ffffe000
000ffffff000
001ffffff800
003ffe7ffc00
007ff81ffe00
007fe007fe00
00ffc003ff00
00ffc003ff00
00ff8001ff00
00ff8001ff00
00ff0000ff00
00ff0000ff00
00ff0000ff00
00ff0000ff00
00ff0000ff00
00ff0000ff00
00ff0000ff00
00ff0000ff00
00ff0000ff00
00ff0000ff00
00ff8001ff00
00ff8001ff00
00ffc003ff00
00ffc003ff00
007fe007fe00
007ff81ffe00
003ffe7ffc00
001ffffff800
000ffffff000
0007ffffe000
0003ffffc000
0001ffff8000
0000ffff0000
00007ffe0000
00001ff80000
000000000000
000000000000
000000000000
000000000000
000000000000
000000000000
000000000000
000000000000
000000000000
000000000000
000000000000
000000000000
000000000000
000000000000
000000000000
000000000000
000000000000
000000000000
000000000000
000000000000
000000000000
000000000000
000000000000
000000000000
000000000000
000000000000
000000000000
000000000000
000000000000
000000000000
000000000000
000000000000
000000000000
000000000000
000000000000
000000000000
000000000000
000000000000
000000000000
000000000000
ENDCHAR
STARTCHAR U+000A
ENCODING 10
SWIDTH 3000 0
DWIDTH 48 0
BBX 48 128 0 -2
BITMAP 
000000000000
000000000000
000000000000
000000000000
000000000000
000000000000
000000000000
000000000000
ffffffffffff
ffffffffffff
ffffffffffff
ffffffffffff
ffffffffffff
ffffffffffff
ffffffffffff
ffffffffffff
ffffffffffff
ffffffffffff
ffffffffffff
ffffffffffff
ffffffffffff
ffffffffffff
ffffffffffff
ffffffffffff
ffffffffffff
ffffffffffff
ffffffffffff
ffffffffffff
ffffffffffff
ffffffffffff
ffffffffffff
ffffffffffff
ffffffffffff
ffffffffffff
ffffffffffff
ffffffffffff
ffffffffffff
ffffffffffff
ffffffffffff
ffffffffffff
ffffffffffff
ffffffffffff
ffffffffffff
ffffffffffff
ffffffffffff
ffffffffffff
ffffffffffff
ffffffffffff
ffffe007ffff
ffff8001ffff
fffe00007fff
fffc00003fff
fff800001fff
fff000000fff
ffe0000007ff
ffc0000003ff
ffc0018003ff
ff8007e001ff
ff800ff001ff
ff001ff800ff
ff003ffc00ff
ff007ffe00ff
ff007ffe00ff
ff00ffff00ff
ff00ffff00ff
ff00ffff00ff
ff00ffff00ff
ff00ffff00ff
ff00ffff00ff
ff00ffff00ff
ff00ffff00ff
ff00ffff00ff
ff00ffff00ff
ff007ffe00ff
ff007ffe00ff
ff003ffc00ff
ff001ff800ff
ff800ff001ff
ff8007e001ff
ffc0018003ff
ffc0000003ff
ffe0000007ff
fff000000fff
fff800001fff
fffc00003fff
fffe00007fff
ffff8001ffff
ffffe007ffff
ffffffffffff
ffffffffffff
ffffffffffff
ffffffffffff
ffffffffffff
ffffffffffff
ffffffffffff
ffffffffffff
ffffffffffff
ffffffffffff
ffffffffffff
ffffffffffff
ffffffffffff
ffffffffffff
ffffffffffff
ffffffffffff
ffffffffffff
ffffffffffff
ffffffffffff
ffffffffffff
ffffffffffff
ffffffffffff
ffffffffffff
ffffffffffff
ffffffffffff
ffffffffffff
ffffffffffff
ffffffffffff
ffffffffffff
ffffffffffff
ffffffffffff
ffffffffffff
ffffffffffff
ffffffffffff
ffffffffffff
ffffffffffff
ffffffffffff
ffffffffffff
ffffffffffff
ffffffffffff
ENDCHAR
STARTCHAR U+000B
ENCODING 11
SWIDTH 3000 0
DWIDTH 48 0
BBX 48 128 0 -2
BITMAP 
000000000000
000000000000
000000000000
000000000000
000000000000
000000000000
000000000000
000000000000
000000000000
000000000000
000000000000
000000000000
000000000000
000000000000
000000000000
000000000000
000000000000
000000000000
000000000000
000000000000
000000000000
000000000000
000000000000
000000000000
000000000000
000000000000
000000000000
000000000000
000000000000
000000000000
000000000000
000000000000
000000000000
000000000000
000000000000
000000000000
000000000000
000000000000
000000000000
000000000000
0000007fffe0
000000fffff0
0000007ffff0
0000003ffff0
0000001ffff0
0000000ffff0
00000007fff0
00000003fff0
00000001fff0
00000000fff0
00000000fff0
00000001fff0
00000003fff0
00000007fff0
0000000ffff0
0000001ffff0
0000003f00f0
0000007f00f0
000001ff00f0
000007ff00f0
0001ffff00f0
0007ffff00f0
000fffff00f0
001fffff0060
003fffff0000
007fffff8000
00ffffff8000
01ffffffc000
03ffe7ffc000
07ff81ffe000
07fe007fe000
0ffc003ff000
0ffc003ff000
0ff8001ff000
0ff8001ff000
0ff0000ff000
0ff0000ff000
0ff0000ff000
0ff0000ff000
0ff0000ff000
0ff0000ff000
0ff0000ff000
0ff0000ff000
0ff0000ff000
0ff0000ff000
0ff8001ff000
0ff8001ff000
0ffc003ff000
0ffc003ff000
07fe007fe000
07ff81ffe000
03ffe7ffc000
01ffffff8000
00ffffff0000
007ffffe0000
003ffffc0000
001ffff80000
000ffff00000
0007ffe00000
0001ff800000
000000000000
000000000000
000000000000
000000000000
000000000000
000000000000
000000000000
000000000000
000000000000
000000000000
000000000000
000000000000
000000000000
000000000000
000000000000
000000000000
000000000000
000000000000
000000000000
000000000000
000000000000
000000000000
000000000000
000000000000
000000000000
000000000000
000000000000
000000000000
ENDCHAR
STARTCHAR U+000C
ENCODING 12
SWIDTH 3000 0
DWIDTH 48 0
BBX 48 128 0 -2
BITMAP 
000000000000
000000000000
000000000000
000000000000
000000000000
000000000000
000000000000
000000000000
000000000000
000000000000
000000000000
000000000000
000000000000
000000000000
000000000000
000000000000
000000000000
000000000000
000000000000
000000000000
000000000000
000000000000
000000000000
000000000000
000000000000
000000000000
000000000000
000000000000
000000000000
000000000000
000000000000
000000000000
000000000000
000000000000
000000000000
000000000000
00001ff80000
00007ffe0000
0000ffff0000
0001ffff8000
0003ffffc000
0007ffffe000
000ffffff000
001ffffff800
003ffe7ffc00
007ff81ffe00
007fe007fe00
00ffc003ff00
00ffc003ff00
00ff8001ff00
00ff8001ff00
00ff0000ff00
00ff0000ff00
00ff0000ff00
00ff0000ff00
00ff0000ff00
00ff0000ff00
00ff8001ff00
00ff8001ff00
00ffc003ff00
00ffc003ff00
007fe007fe00
007ff81ffe00
003ffe7ffc00
001ffffff800
000ffffff000
0007ffffe000
0003ffffc000
0001ffff8000
0000ffff0000
00007ffe0000
00003ffc0000
00003ffc0000
00001ff80000
00001ff80000
00000ff00000
00000ff00000
00000ff00000
00000ff00000
00000ff00000
00000ff00000
00000ff00000
00000ff00000
00000ff00000
007ffffffe00
00ffffffff00
00ffffffff00
00ffffffff00
00ffffffff00
00ffffffff00
00ffffffff00
007ffffffe00
00000ff00000
00000ff00000
00000ff00000
00000ff00000
00000ff00000
00000ff00000
00000ff00000
00000ff00000
00000ff00000
00000ff00000
00000ff00000
000007e00000
000000000000
000000000000
000000000000
000000000000
000000000000
000000000000
000000000000
000000000000
000000000000
000000000000
000000000000
000000000000
000000000000
000000000000
000000000000
000000000000
000000000000
000000000000
000000000000
000000000000
000000000000
000000000000
000000000000
000000000000
ENDCHAR
STARTCHAR U+000D
ENCODING 13
SWIDTH 3000 0
DWIDTH 48 0
BBX 48 128 0 -2
BITMAP 
000000000000
000000000000
000000000000
000000000000
000000000000
000000000000
000000000000
000000000000
000000000000
000000000000
000000000000
000000000000
000000000000
000000000000
000000000000
000000000000
000000000000
000000000000
000000000000
000000000000
000000000000
000000000000
000000000000
000000000000
000000000000
000000000000
000000000000
000000000000
000000000000
000000000000
000000000000
000000000000
000000000000
000000000000
000000000000
000000000000
000004000000
00000e000000
00000f000000
00000f800000
00000fc00000
00000fe00000
00000ff00000
00000ff80000
00000ffc0000
00000ffe0000
00000fff0000
00000fff8000
00000fffc000
00000fffe000
00000ffff000
00000ffff800
00000ffffc00
00000ffffe00
00000fffff00
00000ffffe00
00000ff00000
00000ff00000
00000ff00000
00000ff00000
00000ff00000
00000ff00000
00000ff00000
00000ff00000
00000ff00000
00000ff00000
00000ff00000
00000ff00000
00000ff00000
00000ff00000
00000ff00000
00000ff00000
00000ff00000
00000ff00000
00000ff00000
00000ff00000
00000ff00000
00000ff00000
00000ff00000
00000ff00000
00000ff00000
00000ff00000
00000ff00000
00000ff00000
00000ff00000
00000ff00000
00000ff00000
00000ff00000
0001fff00000
0007fff00000
000ffff00000
001ffff00000
003ffff00000
007ffff00000
007ffff00000
00fffff00000
00fffff00000
007fffe00000
007fffe00000
003fffc00000
001fff800000
000fff000000
0007fe000000
0001f8000000
000000000000
000000000000
000000000000
000000000000
000000000000
000000000000
000000000000
000000000000
000000000000
000000000000
000000000000
000000000000
000000000000
000000000000
000000000000
000000000000
000000000000
000000000000
000000000000
000000000000
000000000000
000000000000
000000000000
000000000000
ENDCHAR
STARTCHAR U+000E
ENCODING 14
SWIDTH 3000 0
DWIDTH 48 0
BBX 48 128 0 -2
BITMAP 
000000000000
000000000000
000000000000
000000000000
000000000000
000000000000
000000000000
000000000000
000000000000
000000000000
000000000000
000000000000
000000000000
000000000000
000000000000
000000000000
000000000000
000000000000
000000000000
000000000000
000000000000
000000000000
000000000000
000000000000
000000000000
000000000000
000000000000
000000000000
000000000000
000000000000
000000000000
000000000000
000000000000
000000000000
000000000000
000000000000
000000000000
000000000000
000000000000
000000000000
0007ffffffe0
000ffffffff0
000ffffffff0
000ffffffff0
000ffffffff0
000ffffffff0
000ffffffff0
000ffffffff0
000ffffffff0
000ffffffff0
000ffffffff0
000ffffffff0
000ffffffff0
000ffffffff0
000ffffffff0
000ffffffff0
000ff0000ff0
000ff0000ff0
000ff0000ff0
000ff0000ff0
000ff0000ff0
000ff0000ff0
000ff0000ff0
000ff0000ff0
000ff0000ff0
000ff0000ff0
000ff0000ff0
000ff0000ff0
000ff0000ff0
000ff0000ff0
000ff0000ff0
000ff0000ff0
000ff0000ff0
000ff0000ff0
000ff0000ff0
000ff0000ff0
000ff0000ff0
000ff0000ff0
000ff0000ff0
000ff0000ff0
000ff0000ff0
000ff0000ff0
000ff0000ff0
000ff0000ff0
000ff0000ff0
001ff0001ff0
001ff0001ff0
003ff0003ff0
003ff0003ff0
007ff0007ff0
00fff000fff0
01fff001fff0
03fff003fff0
07fff007fff0
07fff007fff0
0ffff00ffff0
0ffff00ffff0
0fffe00fffe0
0fffe00fffe0
0fffc00fffc0
0fff800fff80
0fff000fff00
0ffe000ffe00
07f80007f800
000000000000
000000000000
000000000000
000000000000
000000000000
000000000000
000000000000
000000000000
000000000000
000000000000
000000000000
000000000000
000000000000
000000000000
000000000000
000000000000
000000000000
000000000000
000000000000
000000000000
000000000000
000000000000
000000000000
000000000000
ENDCHAR
STARTCHAR U+000F
ENCODING 15
SWIDTH 3000 0
DWIDTH 48 0
BBX 48 128 0 -2
BITMAP 
000000000000
000000000000
000000000000
000000000000
000000000000
000000000000
000000000000
000000000000
000000000000
000000000000
000000000000
000000000000
000000000000
000000000000
000000000000
000000000000
000000000000
000000000000
000000000000
000000000000
000000000000
000000000000
000000000000
000000000000
000000000000
000000000000
000000000000
000000000000
000000000000
000000000000
000000000000
000000000000
000000000000
000000000000
000000000000
000000000000
000000000000
000000000000
000000000000
000000000000
000000000000
000000000000
000000000000
000000000000
000000600000
000000f00000
000000f00000
000000f00000
004000f00020
00e000f00070
00f000f000f0
00f800f001f0
00fc00f003f0
007e01f807e0
007e01f807e0
003f03fc0fc0
003f03fc0fc0
001f07fe0f80
001f0fff0f80
000f1fff8f00
000fffffff00
0007fffffe00
0007fffffe00
0003fffffc00
0001ff9ff800
0000ff0ff000
0000fe07f000
0001fc03f800
0003fc03fc00
0007f801fe00
001ff801ff80
007ff000ffe0
07fff000ffff
0ffff000ffff
0ffff000ffff
07fff000ffff
007ff000ffe0
001ff801ff80
0007f801fe00
0003fc03fc00
0001fc03f800
0000fe07f000
0000ff0ff000
0001ff9ff800
0003fffffc00
0007fffffe00
0007fffffe00
000fffffff00
000f1fff8f00
001f0fff0f80
001f07fe0f80
003f03fc0fc0
003f03fc0fc0
007e01f807e0
007e01f807e0
00fc00f003f0
00f800f001f0
00f000f000f0
00e000f00070
004000f00020
000000f00000
000000f00000
000000f00000
000000600000
000000000000
000000000000
000000000000
000000000000
000000000000
000000000000
000000000000
000000000000
000000000000
000000000000
000000000000
000000000000
000000000000
000000000000
000000000000
000000000000
000000000000
000000000000
000000000000
000000000000
000000000000
000000000000
000000000000
000000000000
ENDCHAR
STARTCHAR U+0010
ENCODING 16
SWIDTH 3000 0
DWIDTH 48 0
BBX 48 128 0 -2
BITMAP 
000000000000
000000000000
000000000000
000000000000
000000000000
000000000000
000000000000
000000000000
000000000000
000000000000
000000000000
000000000000
000000000000
000000000000
000000000000
000000000000
000000000000
000000000000
000000000000
000000000000
000000000000
000000000000
000000000000
000000000000
000000000000
000000000000
000000000000
000000000000
000000000000
000000000000
000000000000
000000000000
000000000000
000000000000
000000000000
000000000000
000000000000
000000000000
000000000000
000000000000
000000000000
000000000000
000000000000
000000000000
000400000000
000e00000000
000f00000000
000f80000000
000fc0000000
000fe0000000
000ff0000000
000ff8000000
000ffc000000
000ffe000000
000fff000000
000fff800000
000fffc00000
000fffe00000
000ffff00000
000ffff80000
000ffffc0000
000ffffe0000
000fffff0000
000fffff8000
000fffffc000
000fffffe000
000ffffff000
000ffffff800
000ffffffc00
000ffffffe00
000ffffffe00
000ffffffc00
000ffffff800
000ffffff000
000fffffe000
000fffffc000
000fffff8000
000fffff0000
000ffffe0000
000ffffc0000
000ffff80000
000ffff00000
000fffe00000
000fffc00000
000fff800000
000fff000000
000ffe000000
000ffc000000
000ff8000000
000ff0000000
000fe0000000
000fc0000000
000f80000000
000f00000000
000e00000000
000400000000
000000000000
000000000000
000000000000
000000000000
000000000000
000000000000
000000000000
000000000000
000000000000
000000000000
000000000000
000000000000
000000000000
000000000000
000000000000
000000000000
000000000000
000000000000
000000000000
000000000000
000000000000
000000000000
000000000000
000000000000
000000000000
000000000000
000000000000
000000000000
000000000000
000000000000
000000000000
000000000000
ENDCHAR
STARTCHAR U+0011
ENCODING 17
SWIDTH 3000 0
DWIDTH 48 0
BBX 48 128 0 -2
BITMAP 
000000000000
000000000000
000000000000
000000000000
000000000000
000000000000
000000000000
000000000000
000000000000
000000000000
000000000000
000000000000
000000000000
000000000000
000000000000
000000000000
000000000000
000000000000
000000000000
000000000000
000000000000
000000000000
000000000000
000000000000
000000000000
000000000000
000000000000
000000000000
000000000000
000000000000
000000000000
000000000000
000000000000
000000000000
000000000000
000000000000
000000000000
000000000000
000000000000
000000000000
000000000000
000000000000
000000000000
000000000000
000000000200
000000000700
000000000f00
000000001f00
000000003f00
000000007f00
00000000ff00
00000001ff00
00000003ff00
00000007ff00
0000000fff00
0000001fff00
0000003fff00
0000007fff00
000000ffff00
000001ffff00
000003ffff00
000007ffff00
00000fffff00
00001fffff00
00003fffff00
00007fffff00
0000ffffff00
0001ffffff00
0003ffffff00
0007ffffff00
0007ffffff00
0003ffffff00
0001ffffff00
0000ffffff00
00007fffff00
00003fffff00
00001fffff00
00000fffff00
000007ffff00
000003ffff00
000001ffff00
000000ffff00
0000007fff00
0000003fff00
0000001fff00
0000000fff00
00000007ff00
00000003ff00
00000001ff00
00000000ff00
000000007f00
000000003f00
000000001f00
000000000f00
000000000700
000000000200
000000000000
000000000000
000000000000
000000000000
000000000000
000000000000
000000000000
000000000000
000000000000
000000000000
000000000000
000000000000
000000000000
000000000000
000000000000
000000000000
000000000000
000000000000
000000000000
000000000000
000000000000
000000000000
000000000000
000000000000
000000000000
000000000000
000000000000
000000000000
000000000000
000000000000
000000000000
000000000000
ENDCHAR
STARTCHAR U+0012
ENCODING 18
SWIDTH 3000 0
DWIDTH 48 0
BBX 48 128 0 -2
BITMAP 
000000000000
000000000000
000000000000
000000000000
000000000000
000000000000
000000000000
000000000000
000000000000
000000000000
000000000000
000000000000
000000000000
000000000000
000000000000
000000000000
000000000000
000000000000
000000000000
000000000000
000000000000
000000000000
000000000000
000000000000
000000000000
000000000000
000000000000
000000000000
000000000000
000000000000
000000000000
000000000000
000000000000
000000000000
000000000000
000000000000
000001800000
000007e00000
00000ff00000
00001ff80000
00003ffc0000
00007ffe0000
0000ffff0000
0001ffff8000
0003ffffc000
0007ffffe000
000ffffff000
001ffffff800
003ffffffc00
007ffffffe00
00ffffffff00
007ffffffe00
00000ff00000
00000ff00000
00000ff00000
00000ff00000
00000ff00000
00000ff00000
00000ff00000
00000ff00000
00000ff00000
00000ff00000
00000ff00000
00000ff00000
00000ff00000
00000ff00000
00000ff00000
00000ff00000
00000ff00000
00000ff00000
00000ff00000
00000ff00000
00000ff00000
00000ff00000
00000ff00000
00000ff00000
00000ff00000
00000ff00000
00000ff00000
00000ff00000
00000ff00000
00000ff00000
00000ff00000
00000ff00000
00000ff00000
00000ff00000
00000ff00000
00000ff00000
007ffffffe00
00ffffffff00
007ffffffe00
003ffffffc00
001ffffff800
000ffffff000
0007ffffe000
0003ffffc000
0001ffff8000
0000ffff0000
00007ffe0000
00003ffc0000
00001ff80000
00000ff00000
000007e00000
000001800000
000000000000
000000000000
000000000000
000000000000
000000000000
000000000000
000000000000
000000000000
000000000000
000000000000
000000000000
000000000000
000000000000
000000000000
000000000000
000000000000
000000000000
000000000000
000000000000
000000000000
000000000000
000000000000
000000000000
000000000000
ENDCHAR
STARTCHAR U+0013
ENCODING 19
SWIDTH 3000 0
DWIDTH 48 0
BBX 48 128 0 -2
BITMAP 
000000000000
000000000000
000000000000
000000000000
000000000000
000000000000
000000000000
000000000000
000000000000
000000000000
000000000000
000000000000
000000000000
000000000000
000000000000
000000000000
000000000000
000000000000
000000000000
000000000000
000000000000
000000000000
000000000000
000000000000
000000000000
000000000000
000000000000
000000000000
000000000000
000000000000
000000000000
000000000000
000000000000
000000000000
000000000000
000000000000
000000000000
000000000000
000000000000
000000000000
0007e0007e00
000ff000ff00
000ff000ff00
000ff000ff00
000ff000ff00
000ff000ff00
000ff000ff00
000ff000ff00
000ff000ff00
000ff000ff00
000ff000ff00
000ff000ff00
000ff000ff00
000ff000ff00
000ff000ff00
000ff000ff00
000ff000ff00
000ff000ff00
000ff000ff00
000ff000ff00
000ff000ff00
000ff000ff00
000ff000ff00
000ff000ff00
000ff000ff00
000ff000ff00
000ff000ff00
000ff000ff00
000ff000ff00
000ff000ff00
000ff000ff00
000ff000ff00
000ff000ff00
000ff000ff00
000ff000ff00
000ff000ff00
000ff000ff00
000ff000ff00
000ff000ff00
000ff000ff00
000ff000ff00
000ff000ff00
000ff000ff00
000ff000ff00
000ff000ff00
000ff000ff00
000ff000ff00
000ff000ff00
000ff000ff00
000ff000ff00
000ff000ff00
0007e0007e00
000000000000
000000000000
000000000000
000000000000
0007e0007e00
000ff000ff00
000ff000ff00
000ff000ff00
000ff000ff00
000ff000ff00
000ff000ff00
0007e0007e00
000000000000
000000000000
000000000000
000000000000
000000000000
000000000000
000000000000
000000000000
000000000000
000000000000
000000000000
000000000000
000000000000
000000000000
000000000000
000000000000
000000000000
000000000000
000000000000
000000000000
000000000000
000000000000
000000000000
000000000000
ENDCHAR
STARTCHAR U+0014
ENCODING 20
SWIDTH 3000 0
DWIDTH 48 0
BBX 48 128 0 -2
BITMAP 
000000000000
000000000000
000000000000
000000000000
000000000000
000000000000
000000000000
000000000000
000000000000
000000000000
000000000000
000000000000
000000000000
000000000000
000000000000
000000000000
000000000000
000000000000
000000000000
000000000000
000000000000
000000000000
000000000000
000000000000
000000000000
000000000000
000000000000
000000000000
000000000000
000000000000
000000000000
000000000000
000000000000
000000000000
000000000000
000000000000
000000000000
000000000000
000000000000
000000000000
0001ffffffe0
0007fffffff0
000ffffffff0
001ffffffff0
003ffffffff0
007ffffffff0
007ffffffff0
00fffffffff0
00fffff00ff0
01fffff00ff0
01fffff00ff0
03fffff00ff0
03fffff00ff0
07fffff00ff0
07fffff00ff0
0ffffff00ff0
0ffffff00ff0
0ffffff00ff0
0ffffff00ff0
0ffffff00ff0
0ffffff00ff0
0ffffff00ff0
0ffffff00ff0
0ffffff00ff0
0ffffff00ff0
07fffff00ff0
07fffff00ff0
03fffff00ff0
03fffff00ff0
01fffff00ff0
01fffff00ff0
00fffff00ff0
00fffff00ff0
007ffff00ff0
007ffff00ff0
003ffff00ff0
001ffff00ff0
000ffff00ff0
0007fff00ff0
0001fff00ff0
00000ff00ff0
00000ff00ff0
00000ff00ff0
00000ff00ff0
00000ff00ff0
00000ff00ff0
00000ff00ff0
00000ff00ff0
00000ff00ff0
00000ff00ff0
00000ff00ff0
00000ff00ff0
00000ff00ff0
00000ff00ff0
00000ff00ff0
00000ff00ff0
00000ff00ff0
00000ff00ff0
00000ff00ff0
00000ff00ff0
00000ff00ff0
00000ff00ff0
00000ff00ff0
000007e007e0
000000000000
000000000000
000000000000
000000000000
000000000000
000000000000
000000000000
000000000000
000000000000
000000000000
000000000000
000000000000
000000000000
000000000000
000000000000
000000000000
000000000000
000000000000
000000000000
000000000000
000000000000
000000000000
000000000000
000000000000
ENDCHAR
STARTCHAR U+0015
ENCODING 21
SWIDTH 3000 0
DWIDTH 48 0
BBX 48 128 0 -2
BITMAP 
000000000000
000000000000
000000000000
000000000000
000000000000
000000000000
000000000000
000000000000
000000000000
000000000000
000000000000
000000000000
000000000000
000000000000
000000000000
000000000000
000000000000
000000000000
000000000000
000000000000
000000000000
000000000000
000000000000
000000000000
000000000000
000000000000
000000000000
000000000000
000000000000
000000000000
000000000000
000000000000
00001fff8000
00007fffe000
0000fffff000
0001fffff800
0003fffffc00
0007fffffe00
000fffffff00
001fffffff80
003ffe07ffc0
007ff801ffe0
007fe0007fe0
00ffc0003ff0
00ff80001ff0
00ff00000ff0
00ff000007f0
00ff800001e0
00ffc0000000
007fe0000000
007ff8000000
003ffe000000
001fff800000
000fffe00000
0007fff80000
0003fffe0000
0001ffff8000
0000ffffe000
0000fffff000
0001fffff800
0003fffffc00
0007fffffe00
000fffffff00
001fffffff80
003ffe07ffc0
007ff801ffe0
007fe0007fe0
00ffc0003ff0
00ffc0003ff0
00ff80001ff0
00ff80001ff0
00ff00000ff0
00ff00000ff0
00ff80001ff0
00ff80001ff0
00ffc0003ff0
00ffc0003ff0
007fe0007fe0
007ff801ffe0
003ffe07ffc0
001fffffff80
000fffffff00
0007fffffe00
0003fffffc00
0001fffff800
0000fffff000
00007ffff000
00001ffff800
000007fffc00
000001fffe00
0000007fff00
0000001fff80
00000007ffc0
00000001ffe0
000000007fe0
000000003ff0
007800001ff0
00fe00000ff0
00ff00000ff0
00ff80001ff0
00ffc0003ff0
007fe0007fe0
007ff801ffe0
003ffe07ffc0
001fffffff80
000fffffff00
0007fffffe00
0003fffffc00
0001fffff800
0000fffff000
00007fffe000
00001fff8000
000000000000
000000000000
000000000000
000000000000
000000000000
000000000000
000000000000
000000000000
000000000000
000000000000
000000000000
000000000000
000000000000
000000000000
000000000000
000000000000
ENDCHAR
STARTCHAR U+0016
ENCODING 22
SWIDTH 3000 0
DWIDTH 48 0
BBX 48 128 0 -2
BITMAP 
000000000000
000000000000
000000000000
000000000000
000000000000
000000000000
000000000000
000000000000
000000000000
000000000000
000000000000
000000000000
000000000000
000000000000
000000000000
000000000000
000000000000
000000000000
000000000000
000000000000
000000000000
000000000000
000000000000
000000000000
000000000000
000000000000
000000000000
000000000000
000000000000
000000000000
000000000000
000000000000
000000000000
000000000000
000000000000
000000000000
000000000000
000000000000
000000000000
000000000000
000000000000
000000000000
000000000000
000000000000
000000000000
000000000000
000000000000
000000000000
000000000000
000000000000
000000000000
000000000000
000000000000
000000000000
000000000000
000000000000
000000000000
000000000000
000000000000
000000000000
000000000000
000000000000
000000000000
000000000000
0007fffffe00
000fffffff00
000fffffff00
000fffffff00
000fffffff00
000fffffff00
000fffffff00
000fffffff00
000fffffff00
000fffffff00
000fffffff00
000fffffff00
000fffffff00
000fffffff00
000fffffff00
0007fffffe00
000000000000
000000000000
000000000000
000000000000
000000000000
000000000000
000000000000
000000000000
000000000000
000000000000
000000000000
000000000000
000000000000
000000000000
000000000000
000000000000
000000000000
000000000000
000000000000
000000000000
000000000000
000000000000
000000000000
000000000000
000000000000
000000000000
000000000000
000000000000
000000000000
000000000000
000000000000
000000000000
000000000000
000000000000
000000000000
000000000000
000000000000
000000000000
000000000000
000000000000
000000000000
000000000000
000000000000
000000000000
000000000000
000000000000
000000000000
000000000000
ENDCHAR
STARTCHAR U+0017
ENCODING 23
SWIDTH 3000 0
DWIDTH 48 0
BBX 48 128 0 -2
BITMAP 
000000000000
000000000000
000000000000
000000000000
000000000000
000000000000
000000000000
000000000000
000000000000
000000000000
000000000000
000000000000
000000000000
000000000000
000000000000
000000000000
000000000000
000000000000
000000000000
000000000000
000000000000
000000000000
000000000000
000000000000
000000000000
000000000000
000000000000
000000000000
000000000000
000000000000
000000000000
000000000000
000000000000
000000000000
000000000000
000000000000
000001800000
000007e00000
00000ff00000
00001ff80000
00003ffc0000
00007ffe0000
0000ffff0000
0001ffff8000
0003ffffc000
0007ffffe000
000ffffff000
001ffffff800
003ffffffc00
007ffffffe00
00ffffffff00
007ffffffe00
00000ff00000
00000ff00000
00000ff00000
00000ff00000
00000ff00000
00000ff00000
00000ff00000
00000ff00000
00000ff00000
00000ff00000
00000ff00000
00000ff00000
00000ff00000
00000ff00000
00000ff00000
00000ff00000
00000ff00000
00000ff00000
00000ff00000
00000ff00000
00000ff00000
00000ff00000
00000ff00000
00000ff00000
00000ff00000
00000ff00000
00000ff00000
00000ff00000
00000ff00000
00000ff00000
00000ff00000
00000ff00000
00000ff00000
00000ff00000
00000ff00000
00000ff00000
007ffffffe00
00ffffffff00
007ffffffe00
003ffffffc00
001ffffff800
000ffffff000
0007ffffe000
0003ffffc000
0001ffff8000
0000ffff0000
00007ffe0000
00003ffc0000
00001ff80000
00000ff00000
000007e00000
000001800000
000000000000
000000000000
000000000000
000000000000
007ffffffe00
00ffffffff00
00ffffffff00
00ffffffff00
00ffffffff00
00ffffffff00
00ffffffff00
007ffffffe00
000000000000
000000000000
000000000000
000000000000
000000000000
000000000000
000000000000
000000000000
000000000000
000000000000
000000000000
000000000000
ENDCHAR
STARTCHAR U+0018
ENCODING 24
SWIDTH 3000 0
DWIDTH 48 0
BBX 48 128 0 -2
BITMAP 
000000000000
000000000000
000000000000
000000000000
000000000000
000000000000
000000000000
000000000000
000000000000
000000000000
000000000000
000000000000
000000000000
000000000000
000000000000
000000000000
000000000000
000000000000
000000000000
000000000000
000000000000
000000000000
000000000000
000000000000
000000000000
000000000000
000000000000
000000000000
000000000000
000000000000
000000000000
000000000000
000000000000
000000000000
000000000000
000000000000
000001800000
000007e00000
00000ff00000
00001ff80000
00003ffc0000
00007ffe0000
0000ffff0000
0001ffff8000
0003ffffc000
0007ffffe000
000ffffff000
001ffffff800
003ffffffc00
007ffffffe00
00ffffffff00
007ffffffe00
00000ff00000
00000ff00000
00000ff00000
00000ff00000
00000ff00000
00000ff00000
00000ff00000
00000ff00000
00000ff00000
00000ff00000
00000ff00000
00000ff00000
00000ff00000
00000ff00000
00000ff00000
00000ff00000
00000ff00000
00000ff00000
00000ff00000
00000ff00000
00000ff00000
00000ff00000
00000ff00000
00000ff00000
00000ff00000
00000ff00000
00000ff00000
00000ff00000
00000ff00000
00000ff00000
00000ff00000
00000ff00000
00000ff00000
00000ff00000
00000ff00000
00000ff00000
00000ff00000
00000ff00000
00000ff00000
00000ff00000
00000ff00000
00000ff00000
00000ff00000
00000ff00000
00000ff00000
00000ff00000
00000ff00000
00000ff00000
00000ff00000
00000ff00000
00000ff00000
000007e00000
000000000000
000000000000
000000000000
000000000000
000000000000
000000000000
000000000000
000000000000
000000000000
000000000000
000000000000
000000000000
000000000000
000000000000
000000000000
000000000000
000000000000
000000000000
000000000000
000000000000
000000000000
000000000000
000000000000
000000000000
ENDCHAR
STARTCHAR U+0019
ENCODING 25
SWIDTH 3000 0
DWIDTH 48 0
BBX 48 128 0 -2
BITMAP 
000000000000
000000000000
000000000000
000000000000
000000000000
000000000000
000000000000
000000000000
000000000000
000000000000
000000000000
000000000000
000000000000
000000000000
000000000000
000000000000
000000000000
000000000000
000000000000
000000000000
000000000000
000000000000
000000000000
000000000000
000000000000
000000000000
000000000000
000000000000
000000000000
000000000000
000000000000
000000000000
000000000000
000000000000
000000000000
000000000000
000007e00000
00000ff00000
00000ff00000
00000ff00000
00000ff00000
00000ff00000
00000ff00000
00000ff00000
00000ff00000
00000ff00000
00000ff00000
00000ff00000
00000ff00000
00000ff00000
00000ff00000
00000ff00000
00000ff00000
00000ff00000
00000ff00000
00000ff00000
00000ff00000
00000ff00000
00000ff00000
00000ff00000
00000ff00000
00000ff00000
00000ff00000
00000ff00000
00000ff00000
00000ff00000
00000ff00000
00000ff00000
00000ff00000
00000ff00000
00000ff00000
00000ff00000
00000ff00000
00000ff00000
00000ff00000
00000ff00000
00000ff00000
00000ff00000
00000ff00000
00000ff00000
00000ff00000
00000ff00000
00000ff00000
00000ff00000
00000ff00000
00000ff00000
00000ff00000
00000ff00000
007ffffffe00
00ffffffff00
007ffffffe00
003ffffffc00
001ffffff800
000ffffff000
0007ffffe000
0003ffffc000
0001ffff8000
0000ffff0000
00007ffe0000
00003ffc0000
00001ff80000
00000ff00000
000007e00000
000001800000
000000000000
000000000000
000000000000
000000000000
000000000000
000000000000
000000000000
000000000000
000000000000
000000000000
000000000000
000000000000
000000000000
000000000000
000000000000
000000000000
000000000000
000000000000
000000000000
000000000000
000000000000
000000000000
000000000000
000000000000
ENDCHAR
STARTCHAR U+001A
ENCODING 26
SWIDTH 3000 0
DWIDTH 48 0
BBX 48 128 0 -2
BITMAP 
000000000000
000000000000
000000000000
000000000000
000000000000
000000000000
000000000000
000000000000
000000000000
000000000000
000000000000
000000000000
000000000000
000000000000
000000000000
000000000000
000000000000
000000000000
000000000000
000000000000
000000000000
000000000000
000000000000
000000000000
000000000000
000000000000
000000000000
000000000000
000000000000
000000000000
000000000000
000000000000
000000000000
000000000000
000000000000
000000000000
000000000000
000000000000
000000000000
000000000000
000000000000
000000000000
000000000000
000000000000
000000000000
000000000000
000000000000
000000000000
000000000000
000000000000
000000000000
000000000000
000000000000
000000000000
000000000000
000000000000
000000004000
00000000e000
00000000f000
00000000f800
00000000fc00
00000000fe00
00000000ff00
00000000ff80
00000000ffc0
00000000ffe0
00000000fff8
00000000fffe
07ffffffffff
0fffffffffff
0fffffffffff
0fffffffffff
0fffffffffff
0fffffffffff
0fffffffffff
07ffffffffff
00000000fffe
00000000fff8
00000000ffe0
00000000ffc0
00000000ff80
00000000ff00
00000000fe00
00000000fc00
00000000f800
00000000f000
00000000e000
000000004000
000000000000
000000000000
000000000000
000000000000
000000000000
000000000000
000000000000
000000000000
000000000000
000000000000
000000000000
000000000000
000000000000
000000000000
000000000000
000000000000
000000000000
000000000000
000000000000
000000000000
000000000000
000000000000
000000000000
000000000000
000000000000
000000000000
000000000000
000000000000
000000000000
000000000000
000000000000
000000000000
000000000000
000000000000
000000000000
000000000000
000000000000
000000000000
000000000000
000000000000
ENDCHAR
STARTCHAR U+001B
ENCODING 27
SWIDTH 3000 0
DWIDTH 48 0
BBX 48 128 0 -2
BITMAP 
000000000000
000000000000
000000000000
000000000000
000000000000
000000000000
000000000000
000000000000
000000000000
000000000000
000000000000
000000000000
000000000000
000000000000
000000000000
000000000000
000000000000
000000000000
000000000000
000000000000
000000000000
000000000000
000000000000
000000000000
000000000000
000000000000
000000000000
000000000000
000000000000
000000000000
000000000000
000000000000
000000000000
000000000000
000000000000
000000000000
000000000000
000000000000
000000000000
000000000000
000000000000
000000000000
000000000000
000000000000
000000000000
000000000000
000000000000
000000000000
000000000000
000000000000
000000000000
000000000000
000000000000
000000000000
000000000000
000000000000
000020000000
000070000000
0000f0000000
0001f0000000
0003f0000000
0007f0000000
000ff0000000
001ff0000000
003ff0000000
007ff0000000
00fff0000000
01fff0000000
03ffffffffff
07ffffffffff
07ffffffffff
0fffffffffff
0fffffffffff
07ffffffffff
07ffffffffff
03ffffffffff
01fff0000000
00fff0000000
007ff0000000
003ff0000000
001ff0000000
000ff0000000
0007f0000000
0003f0000000
0001f0000000
0000f0000000
000070000000
000020000000
000000000000
000000000000
000000000000
000000000000
000000000000
000000000000
000000000000
000000000000
000000000000
000000000000
000000000000
000000000000
000000000000
000000000000
000000000000
000000000000
000000000000
000000000000
000000000000
000000000000
000000000000
000000000000
000000000000
000000000000
000000000000
000000000000
000000000000
000000000000
000000000000
000000000000
000000000000
000000000000
000000000000
000000000000
000000000000
000000000000
000000000000
000000000000
000000000000
000000000000
ENDCHAR
STARTCHAR U+001C
ENCODING 28
SWIDTH 3000 0
DWIDTH 48 0
BBX 48 128 0 -2
BITMAP 
000000000000
000000000000
000000000000
000000000000
000000000000
000000000000
000000000000
000000000000
000000000000
000000000000
000000000000
000000000000
000000000000
000000000000
000000000000
000000000000
000000000000
000000000000
000000000000
000000000000
000000000000
000000000000
000000000000
000000000000
000000000000
000000000000
000000000000
000000000000
000000000000
000000000000
000000000000
000000000000
000000000000
000000000000
000000000000
000000000000
000000000000
000000000000
000000000000
000000000000
000000000000
000000000000
000000000000
000000000000
000000000000
000000000000
000000000000
000000000000
000000000000
000000000000
000000000000
000000000000
000000000000
000000000000
000000000000
000000000000
007e00000000
00ff00000000
00ff00000000
00ff00000000
00ff00000000
00ff00000000
00ff00000000
00ff00000000
00ff00000000
00ff00000000
00ff00000000
00ff00000000
00ff00000000
00ff00000000
00ff00000000
00ff00000000
00ff00000000
00ff00000000
00ff00000000
00ff00000000
00ff00000000
00ff00000000
00ff00000000
00ff00000000
00ff00000000
00ff00000000
00ff00000000
00ff00000000
00ffffffffe0
00fffffffff0
00fffffffff0
00fffffffff0
00fffffffff0
00fffffffff0
00fffffffff0
007fffffffe0
000000000000
000000000000
000000000000
000000000000
000000000000
000000000000
000000000000
000000000000
000000000000
000000000000
000000000000
000000000000
000000000000
000000000000
000000000000
000000000000
000000000000
000000000000
000000000000
000000000000
000000000000
000000000000
000000000000
000000000000
000000000000
000000000000
000000000000
000000000000
000000000000
000000000000
000000000000
000000000000
000000000000
000000000000
000000000000
000000000000
ENDCHAR
STARTCHAR U+001D
ENCODING 29
SWIDTH 3000 0
DWIDTH 48 0
BBX 48 128 0 -2
BITMAP 
000000000000
000000000000
000000000000
000000000000
000000000000
000000000000
000000000000
000000000000
000000000000
000000000000
000000000000
000000000000
000000000000
000000000000
000000000000
000000000000
000000000000
000000000000
000000000000
000000000000
000000000000
000000000000
000000000000
000000000000
000000000000
000000000000
000000000000
000000000000
000000000000
000000000000
000000000000
000000000000
000000000000
000000000000
000000000000
000000000000
000000000000
000000000000
000000000000
000000000000
000000000000
000000000000
000000000000
000000000000
000000000000
000000000000
000000000000
000000000000
000000000000
000000000000
000000000000
000000000000
000000000000
000000000000
000000000000
000000000000
000200004000
00070000e000
000f0000f000
001f0000f800
003f0000fc00
007f0000fe00
00ff0000ff00
01ff0000ff80
03ff0000ffc0
07ff0000ffe0
1fff0000fff8
7fff0000fffe
ffffffffffff
ffffffffffff
ffffffffffff
ffffffffffff
ffffffffffff
ffffffffffff
ffffffffffff
ffffffffffff
7fff0000fffe
1fff0000fff8
07ff0000ffe0
03ff0000ffc0
01ff0000ff80
00ff0000ff00
007f0000fe00
003f0000fc00
001f0000f800
000f0000f000
00070000e000
000200004000
000000000000
000000000000
000000000000
000000000000
000000000000
000000000000
000000000000
000000000000
000000000000
000000000000
000000000000
000000000000
000000000000
000000000000
000000000000
000000000000
000000000000
000000000000
000000000000
000000000000
000000000000
000000000000
000000000000
000000000000
000000000000
000000000000
000000000000
000000000000
000000000000
000000000000
000000000000
000000000000
000000000000
000000000000
000000000000
000000000000
000000000000
000000000000
000000000000
000000000000
ENDCHAR
STARTCHAR U+001E
ENCODING 30
SWIDTH 3000 0
DWIDTH 48 0
BBX 48 128 0 -2
BITMAP 
000000000000
000000000000
000000000000
000000000000
000000000000
000000000000
000000000000
000000000000
000000000000
000000000000
000000000000
000000000000
000000000000
000000000000
000000000000
000000000000
000000000000
000000000000
000000000000
000000000000
000000000000
000000000000
000000000000
000000000000
000000000000
000000000000
000000000000
000000000000
000000000000
000000000000
000000000000
000000000000
000000000000
000000000000
000000000000
000000000000
000000000000
000000000000
000000000000
000000000000
000000000000
000000000000
000000000000
000000000000
000000000000
000000000000
000000000000
000000000000
000000000000
000000000000
000000000000
000000000000
000000000000
000000000000
000000000000
000000000000
000000000000
000000000000
000000000000
000000000000
000000000000
000000600000
000000f00000
000001f80000
000003fc0000
000007fe0000
00000fff0000
00001fff8000
00003fffc000
00007fffe000
0000fffff000
0001fffff800
0003fffffc00
0007fffffe00
000fffffff00
001fffffff80
003fffffffc0
007fffffffe0
007fffffffe0
00fffffffff0
00fffffffff0
00fffffffff0
00fffffffff0
007fffffffe0
000000000000
000000000000
000000000000
000000000000
000000000000
000000000000
000000000000
000000000000
000000000000
000000000000
000000000000
000000000000
000000000000
000000000000
000000000000
000000000000
000000000000
000000000000
000000000000
000000000000
000000000000
000000000000
000000000000
000000000000
000000000000
000000000000
000000000000
000000000000
000000000000
000000000000
000000000000
000000000000
000000000000
000000000000
000000000000
000000000000
000000000000
000000000000
000000000000
000000000000
000000000000
000000000000
000000000000
000000000000
ENDCHAR
STARTCHAR U+001F
ENCODING 31
SWIDTH 3000 0
DWIDTH 48 0
BBX 48 128 0 -2
BITMAP 
000000000000
000000000000
000000000000
000000000000
000000000000
000000000000
000000000000
000000000000
000000000000
000000000000
000000000000
000000000000
000000000000
000000000000
000000000000
000000000000
000000000000
000000000000
000000000000
000000000000
000000000000
000000000000
000000000000
000000000000
000000000000
000000000000
000000000000
000000000000
000000000000
000000000000
000000000000
000000000000
000000000000
000000000000
000000000000
000000000000
000000000000
000000000000
000000000000
000000000000
000000000000
000000000000
000000000000
000000000000
000000000000
000000000000
000000000000
000000000000
000000000000
000000000000
000000000000
000000000000
000000000000
000000000000
000000000000
000000000000
000000000000
000000000000
000000000000
000000000000
007fffffffe0
00fffffffff0
00fffffffff0
00fffffffff0
00fffffffff0
007fffffffe0
007fffffffe0
003fffffffc0
001fffffff80
000fffffff00
0007fffffe00
0003fffffc00
0001fffff800
0000fffff000
00007fffe000
00003fffc000
00001fff8000
00000fff0000
000007fe0000
000003fc0000
000001f80000
000000f00000
000000600000
000000000000
000000000000
000000000000
000000000000
000000000000
000000000000
000000000000
000000000000
000000000000
000000000000
000000000000
000000000000
000000000000
000000000000
000000000000
000000000000
000000000000
000000000000
000000000000
000000000000
000000000000
000000000000
000000000000
000000000000
000000000000
000000000000
000000000000
000000000000
000000000000
000000000000
000000000000
000000000000
000000000000
000000000000
000000000000
000000000000
000000000000
000000000000
000000000000
000000000000
000000000000
000000000000
000000000000
000000000000
000000000000
ENDCHAR
STARTCHAR U+0020
ENCODING 32
SWIDTH 3000 0
DWIDTH 48 0
BBX 48 128 0 -2
BITMAP 
000000000000
000000000000
000000000000
000000000000
000000000000
000000000000
000000000000
000000000000
000000000000
000000000000
000000000000
000000000000
000000000000
000000000000
000000000000
000000000000
000000000000
000000000000
000000000000
000000000000
000000000000
000000000000
000000000000
000000000000
000000000000
000000000000
000000000000
000000000000
000000000000
000000000000
000000000000
000000000000
000000000000
000000000000
000000000000
000000000000
000000000000
000000000000
000000000000
000000000000
000000000000
000000000000
000000000000
000000000000
000000000000
000000000000
000000000000
000000000000
000000000000
000000000000
000000000000
000000000000
000000000000
000000000000
000000000000
000000000000
000000000000
000000000000
000000000000
000000000000
000000000000
000000000000
000000000000
000000000000
000000000000
000000000000
000000000000
000000000000
000000000000
000000000000
000000000000
000000000000
000000000000
000000000000
000000000000
000000000000
000000000000
000000000000
000000000000
000000000000
000000000000
000000000000
000000000000
000000000000
000000000000
000000000000
000000000000
000000000000
000000000000
000000000000
000000000000
000000000000
000000000000
000000000000
000000000000
000000000000
000000000000
000000000000
000000000000
000000000000
000000000000
000000000000
000000000000
000000000000
000000000000
000000000000
000000000000
000000000000
000000000000
000000000000
000000000000
000000000000
000000000000
000000000000
000000000000
000000000000
000000000000
000000000000
000000000000
000000000000
000000000000
000000000000
000000000000
000000000000
000000000000
000000000000
000000000000
000000000000
ENDCHAR
STARTCHAR U+0021
ENCODING 33
SWIDTH 3000 0
DWIDTH 48 0
BBX 48 128 0 -2
BITMAP 
000000000000
000000000000
000000000000
000000000000
000000000000
000000000000
000000000000
000000000000
000000000000
000000000000
000000000000
000000000000
000000000000
000000000000
000000000000
000000000000
000000000000
000000000000
000000000000
000000000000
000000000000
000000000000
000000000000
000000000000
000000000000
000000000000
000000000000
000000000000
000000000000
000000000000
000000000000
000000000000
000000000000
000000000000
000000000000
000000000000
000000000000
000000000000
000000000000
000000000000
000007e00000
00000ff00000
00000ff00000
00000ff00000
00000ff00000
00000ff00000
00000ff00000
00000ff00000
00000ff00000
00000ff00000
00000ff00000
00000ff00000
00000ff00000
00000ff00000
00000ff00000
00000ff00000
00000ff00000
00000ff00000
00000ff00000
00000ff00000
00000ff00000
00000ff00000
00000ff00000
00000ff00000
00000ff00000
00000ff00000
00000ff00000
00000ff00000
00000ff00000
00000ff00000
00000ff00000
00000ff00000
00000ff00000
00000ff00000
00000ff00000
00000ff00000
00000ff00000
00000ff00000
00000ff00000
00000ff00000
00000ff00000
00000ff00000
00000ff00000
00000ff00000
00000ff00000
00000ff00000
00000ff00000
000007e00000
000000000000
000000000000
000000000000
000000000000
000007e00000
00000ff00000
00000ff00000
00000ff00000
00000ff00000
00000ff00000
00000ff00000
00000ff00000
00000ff00000
00000ff00000
00000ff00000
000007e00000
000000000000
000000000000
000000000000
000000000000
000000000000
000000000000
000000000000
000000000000
000000000000
000000000000
000000000000
000000000000
000000000000
000000000000
000000000000
000000000000
000000000000
000000000000
000000000000
000000000000
000000000000
000000000000
000000000000
000000000000
ENDCHAR
STARTCHAR U+0022
ENCODING 34
SWIDTH 3000 0
DWIDTH 48 0
BBX 48 128 0 -2
BITMAP 
000000000000
000000000000
000000000000
000000000000
000000000000
000000000000
000000000000
000000000000
000000000000
000000000000
000000000000
000000000000
000000000000
000000000000
000000000000
000000000000
000000000000
000000000000
000000000000
000000000000
000000000000
000000000000
000000000000
000000000000
0007e007e000
000ff00ff000
000ff00ff000
000ff00ff000
000ff00ff000
000ff00ff000
000ff00ff000
000ff00ff000
000ff00ff000
000ff00ff000
000ff00ff000
000ff00ff000
000ff00ff000
000ff00ff000
000ff00ff000
000ff00ff000
000ff00ff000
000ff00ff000
000ff00ff000
0007e007e000
000000000000
000000000000
000000000000
000000000000
000000000000
000000000000
000000000000
000000000000
000000000000
000000000000
000000000000
000000000000
000000000000
000000000000
000000000000
000000000000
000000000000
000000000000
000000000000
000000000000
000000000000
000000000000
000000000000
000000000000
000000000000
000000000000
000000000000
000000000000
000000000000
000000000000
000000000000
000000000000
000000000000
000000000000
000000000000
000000000000
000000000000
000000000000
000000000000
000000000000
000000000000
000000000000
000000000000
000000000000
000000000000
000000000000
000000000000
000000000000
000000000000
000000000000
000000000000
000000000000
000000000000
000000000000
000000000000
000000000000
000000000000
000000000000
000000000000
000000000000
000000000000
000000000000
000000000000
000000000000
000000000000
000000000000
000000000000
000000000000
000000000000
000000000000
000000000000
000000000000
000000000000
000000000000
000000000000
000000000000
000000000000
000000000000
000000000000
000000000000
000000000000
000000000000
000000000000
000000000000
ENDCHAR
STARTCHAR U+0023
ENCODING 35
SWIDTH 3000 0
DWIDTH 48 0
BBX 48 128 0 -2
BITMAP 
000000000000
000000000000
000000000000
000000000000
000000000000
000000000000
000000000000
000000000000
000000000000
000000000000
000000000000
000000000000
000000000000
000000000000
000000000000
000000000000
000000000000
000000000000
000000000000
000000000000
000000000000
000000000000
000000000000
000000000000
000000000000
000000000000
000000000000
000000000000
000000000000
000000000000
000000000000
000000000000
000000000000
000000000000
000000000000
000000000000
000000000000
000000000000
000000000000
000000000000
00007e007e00
0000ff00ff00
0000ff00ff00
0000ff00ff00
0000ff00ff00
0000ff00ff00
0000ff00ff00
0000ff00ff00
0000ff00ff00
0000ff00ff00
0000ff00ff00
0000ff00ff00
0000ff00ff00
0000ff00ff00
0000ff00ff00
0000ff00ff00
007fffffffff
00ffffffffff
00ffffffffff
00ffffffffff
00ffffffffff
00ffffffffff
00ffffffffff
007fffffffff
0000ff00ff00
0000ff00ff00
0000ff00ff00
0000ff00ff00
0000ff00ff00
0000ff00ff00
0000ff00ff00
0000ff00ff00
0000ff00ff00
0000ff00ff00
0000ff00ff00
0000ff00ff00
0000ff00ff00
0000ff00ff00
0000ff00ff00
0000ff00ff00
007fffffffff
00ffffffffff
00ffffffffff
00ffffffffff
00ffffffffff
00ffffffffff
00ffffffffff
007fffffffff
0000ff00ff00
0000ff00ff00
0000ff00ff00
0000ff00ff00
0000ff00ff00
0000ff00ff00
0000ff00ff00
0000ff00ff00
0000ff00ff00
0000ff00ff00
0000ff00ff00
0000ff00ff00
0000ff00ff00
0000ff00ff00
0000ff00ff00
00007e007e00
000000000000
000000000000
000000000000
000000000000
000000000000
000000000000
000000000000
000000000000
000000000000
000000000000
000000000000
000000000000
000000000000
000000000000
000000000000
000000000000
000000000000
000000000000
000000000000
000000000000
000000000000
000000000000
000000000000
000000000000
ENDCHAR
STARTCHAR U+0024
ENCODING 36
SWIDTH 3000 0
DWIDTH 48 0
BBX 48 128 0 -2
BITMAP 
000000000000
000000000000
000000000000
000000000000
000000000000
000000000000
000000000000
000000000000
000000000000
000000000000
000000000000
000000000000
000000000000
000000000000
000000000000
000000000000
000000000000
000000000000
000000000000
000000000000
000000000000
000000000000
000000000000
000000000000
000000000000
000000000000
000000000000
000000000000
000000000000
000000000000
000000000000
000000000000
000000000000
000000000000
000000000000
000000000000
0000007e0000
000000ff0000
000000ff0000
000000ff0000
000000ff0000
000000ff0000
000000ff0000
000000ff0000
000000ff0000
000000ff0000
000000ff0000
000000ff0000
0001fffff800
0007fffffe00
000fffffff00
001fffffff80
003fffffffc0
007fffffffe0
007fffffffe0
00fffffffff0
00ff00000ff0
00ff00000ff0
00ff00000ff0
00ff00000ff0
00ff00000ff0
00ff80000ff0
00ff80000ff0
00ffc00007e0
00ffc0000000
007fe0000000
007ff8000000
003ffe000000
001ffff80000
000ffffe0000
0007ffff8000
0001ffffe000
00007ffff800
00001ffffe00
000007ffff00
000001ffff80
00000007ffc0
00000001ffe0
000000007fe0
000000003ff0
007e00003ff0
00ff00001ff0
00ff00001ff0
00ff00000ff0
00ff00000ff0
00ff00000ff0
00ff00000ff0
00ff00000ff0
00fffffffff0
007fffffffe0
007fffffffe0
003fffffffc0
001fffffff80
000fffffff00
0007fffffe00
0001fffff800
000000ff0000
000000ff0000
000000ff0000
000000ff0000
000000ff0000
000000ff0000
000000ff0000
000000ff0000
000000ff0000
000000ff0000
000000ff0000
0000007e0000
000000000000
000000000000
000000000000
000000000000
000000000000
000000000000
000000000000
000000000000
000000000000
000000000000
000000000000
000000000000
000000000000
000000000000
000000000000
000000000000
000000000000
000000000000
000000000000
000000000000
ENDCHAR
STARTCHAR U+0025
ENCODING 37
SWIDTH 3000 0
DWIDTH 48 0
BBX 48 128 0 -2
BITMAP 
000000000000
000000000000
000000000000
000000000000
000000000000
000000000000
000000000000
000000000000
000000000000
000000000000
000000000000
000000000000
000000000000
000000000000
000000000000
000000000000
000000000000
000000000000
000000000000
000000000000
000000000000
000000000000
000000000000
000000000000
000000000000
000000000000
000000000000
000000000000
000000000000
000000000000
000000000000
000000000000
000000000000
000000000000
000000000000
000000000000
0001f8000000
0007fe000000
000fff000000
001fff800000
003f0fc00000
007f0fe00000
007f0fe00000
00ff0ff00000
00ff0ff00000
00ff0ff00000
00ff0ff00000
00ff0ff00000
00ff0ff00000
00ff0ff00000
00ff0ff00000
00ff0ff00000
00ff0ff00020
007f0fe00070
007f0fe000f0
003f0fc001f0
001fff8003f0
000fff0007e0
0007fe000fe0
0001f8001fc0
000000003f80
000000007f00
00000000fe00
00000001fc00
00000003f800
00000007f000
0000000fe000
0000001fc000
0000003f8000
0000007f0000
000000fe0000
000001fc0000
000003f80000
000007f00000
00000fe00000
00001fc00000
00003f800000
00007f000000
0000fe000000
0001fc000000
0003f8000000
0007f0000000
000fe0000000
001fc0000000
003f8001f800
007f0007fe00
007e000fff00
00fc001fff80
00f8003f0fc0
00f0007f0fe0
00e0007f0fe0
004000ff0ff0
000000ff0ff0
000000ff0ff0
000000ff0ff0
000000ff0ff0
000000ff0ff0
000000ff0ff0
000000ff0ff0
000000ff0ff0
000000ff0ff0
0000007f0fe0
0000007f0fe0
0000003f0fc0
0000001fff80
0000000fff00
00000007fe00
00000001f800
000000000000
000000000000
000000000000
000000000000
000000000000
000000000000
000000000000
000000000000
000000000000
000000000000
000000000000
000000000000
000000000000
000000000000
000000000000
000000000000
000000000000
000000000000
000000000000
000000000000
ENDCHAR
STARTCHAR U+0026
ENCODING 38
SWIDTH 3000 0
DWIDTH 48 0
BBX 48 128 0 -2
BITMAP 
000000000000
000000000000
000000000000
000000000000
000000000000
000000000000
000000000000
000000000000
000000000000
000000000000
000000000000
000000000000
000000000000
000000000000
000000000000
000000000000
000000000000
000000000000
000000000000
000000000000
000000000000
000000000000
000000000000
000000000000
000000000000
000000000000
000000000000
000000000000
000000000000
000000000000
000000000000
000000000000
000000000000
000000000000
000000000000
000000000000
000000000000
000000000000
000000000000
000000000000
000001f80000
000007fe0000
00000fff0000
00001fff8000
00003fffc000
00007fffe000
0000fffff000
0001fffff800
0003ff9ffc00
0007ff0ffe00
0007fe07fe00
000ffc03ff00
000ffc03ff00
000ff801ff00
000ff801ff00
000ff000ff00
000ff000ff00
0007f801fe00
0007f801fe00
0003fc03fc00
0001fc03f800
0000fe07f000
00007f0fe000
00003f9fc000
00001fffc000
00000fff8000
00000fff8000
00001fff0000
00003fff0000
00007fff8000
0000ffff8000
0001ffffc000
0003ff8fc000
0007ff0fe000
000ffe0fe000
001ffc0ff000
003ff80ff020
007ff007f070
007fe007f0f0
00ffc003f1f0
00ffc003fff0
00ff8001fff0
00ff8001fff0
00ff0000fff0
00ff0000fff0
00ff0000ffe0
00ff0000ffe0
00ff0000ffc0
00ff0000ffc0
00ff8001ff80
00ff8001ff80
00ffc003ff00
00ffc003ff00
007fe007ff80
007ff81fff80
003ffe7fffc0
001fffff8fc0
000fffff0fe0
0007fffe0fe0
0003fffc0ff0
0001fff80ff0
0000fff00ff0
00007fe00ff0
00001f8007e0
000000000000
000000000000
000000000000
000000000000
000000000000
000000000000
000000000000
000000000000
000000000000
000000000000
000000000000
000000000000
000000000000
000000000000
000000000000
000000000000
000000000000
000000000000
000000000000
000000000000
000000000000
000000000000
000000000000
000000000000
ENDCHAR
STARTCHAR U+0027
ENCODING 39
SWIDTH 3000 0
DWIDTH 48 0
BBX 48 128 0 -2
BITMAP 
000000000000
000000000000
000000000000
000000000000
000000000000
000000000000
000000000000
000000000000
000000000000
000000000000
000000000000
000000000000
000000000000
000000000000
000000000000
000000000000
000000000000
000000000000
000000000000
000000000000
000000000000
000000000000
000000000000
000000000000
000007e00000
00000ff00000
00000ff00000
00000ff00000
00000ff00000
00000ff00000
00000ff00000
00000ff00000
00000ff00000
00000ff00000
00000ff00000
00000ff00000
00000ff00000
00000ff00000
00000ff00000
000007e00000
000000000000
000000000000
000000000000
000000000000
000000000000
000000000000
000000000000
000000000000
000000000000
000000000000
000000000000
000000000000
000000000000
000000000000
000000000000
000000000000
000000000000
000000000000
000000000000
000000000000
000000000000
000000000000
000000000000
000000000000
000000000000
000000000000
000000000000
000000000000
000000000000
000000000000
000000000000
000000000000
000000000000
000000000000
000000000000
000000000000
000000000000
000000000000
000000000000
000000000000
000000000000
000000000000
000000000000
000000000000
000000000000
000000000000
000000000000
000000000000
000000000000
000000000000
000000000000
000000000000
000000000000
000000000000
000000000000
000000000000
000000000000
000000000000
000000000000
000000000000
000000000000
000000000000
000000000000
000000000000
000000000000
000000000000
000000000000
000000000000
000000000000
000000000000
000000000000
000000000000
000000000000
000000000000
000000000000
000000000000
000000000000
000000000000
000000000000
000000000000
000000000000
000000000000
000000000000
000000000000
000000000000
000000000000
000000000000
000000000000
ENDCHAR
STARTCHAR U+0028
ENCODING 40
SWIDTH 3000 0
DWIDTH 48 0
BBX 48 128 0 -2
BITMAP 
000000000000
000000000000
000000000000
000000000000
000000000000
000000000000
000000000000
000000000000
000000000000
000000000000
000000000000
000000000000
000000000000
000000000000
000000000000
000000000000
000000000000
000000000000
000000000000
000000000000
000000000000
000000000000
000000000000
000000000000
000000000000
000000000000
000000000000
000000000000
000000000000
000000000000
000000000000
000000000000
00000001e000
00000007f000
0000000fe000
0000001fc000
0000003f8000
0000007f0000
000000fe0000
000001fc0000
000003fc0000
000007f80000
000007f80000
00000ff00000
00000ff00000
00000ff00000
00000ff00000
00000ff00000
00000ff00000
00001fe00000
00001fe00000
00003fc00000
00003fc00000
00007f800000
00007f800000
0000ff000000
0000ff000000
0000ff000000
0000ff000000
0000ff000000
0000ff000000
0000ff000000
0000ff000000
0000ff000000
0000ff000000
0000ff000000
0000ff000000
0000ff000000
0000ff000000
0000ff000000
0000ff000000
0000ff000000
0000ff000000
0000ff000000
0000ff000000
0000ff000000
0000ff000000
0000ff000000
0000ff000000
0000ff000000
0000ff000000
0000ff000000
0000ff000000
0000ff000000
0000ff000000
0000ff000000
0000ff000000
0000ff000000
0000ff000000
00007f800000
00007f800000
00003fc00000
00003fc00000
00001fe00000
00001fe00000
00000ff00000
00000ff00000
00000ff00000
00000ff00000
00000ff00000
00000ff00000
000007f80000
000007f80000
000003fc0000
000001fc0000
000000fe0000
0000007f0000
0000003f8000
0000001fc000
0000000fe000
00000007f000
00000001e000
000000000000
000000000000
000000000000
000000000000
000000000000
000000000000
000000000000
000000000000
000000000000
000000000000
000000000000
000000000000
000000000000
000000000000
000000000000
000000000000
ENDCHAR
STARTCHAR U+0029
ENCODING 41
SWIDTH 3000 0
DWIDTH 48 0
BBX 48 128 0 -2
BITMAP 
000000000000
000000000000
000000000000
000000000000
000000000000
000000000000
000000000000
000000000000
000000000000
000000000000
000000000000
000000000000
000000000000
000000000000
000000000000
000000000000
000000000000
000000000000
000000000000
000000000000
000000000000
000000000000
000000000000
000000000000
000000000000
000000000000
000000000000
000000000000
000000000000
000000000000
000000000000
000000000000
000078000000
0000fe000000
00007f000000
00003f800000
00001fc00000
00000fe00000
000007f00000
000003f80000
000003fc0000
000001fe0000
000001fe0000
000000ff0000
000000ff0000
000000ff0000
000000ff0000
000000ff0000
000000ff0000
0000007f8000
0000007f8000
0000003fc000
0000003fc000
0000001fe000
0000001fe000
0000000ff000
0000000ff000
0000000ff000
0000000ff000
0000000ff000
0000000ff000
0000000ff000
0000000ff000
0000000ff000
0000000ff000
0000000ff000
0000000ff000
0000000ff000
0000000ff000
0000000ff000
0000000ff000
0000000ff000
0000000ff000
0000000ff000
0000000ff000
0000000ff000
0000000ff000
0000000ff000
0000000ff000
0000000ff000
0000000ff000
0000000ff000
0000000ff000
0000000ff000
0000000ff000
0000000ff000
0000000ff000
0000000ff000
0000000ff000
0000001fe000
0000001fe000
0000003fc000
0000003fc000
0000007f8000
0000007f8000
000000ff0000
000000ff0000
000000ff0000
000000ff0000
000000ff0000
000000ff0000
000001fe0000
000001fe0000
000003fc0000
000003f80000
000007f00000
00000fe00000
00001fc00000
00003f800000
00007f000000
0000fe000000
000078000000
000000000000
000000000000
000000000000
000000000000
000000000000
000000000000
000000000000
000000000000
000000000000
000000000000
000000000000
000000000000
000000000000
000000000000
000000000000
000000000000
ENDCHAR
STARTCHAR U+002A
ENCODING 42
SWIDTH 3000 0
DWIDTH 48 0
BBX 48 128 0 -2
BITMAP 
000000000000
000000000000
000000000000
000000000000
000000000000
000000000000
000000000000
000000000000
000000000000
000000000000
000000000000
000000000000
000000000000
000000000000
000000000000
000000000000
000000000000
000000000000
000000000000
000000000000
000000000000
000000000000
000000000000
000000000000
000000000000
000000000000
000000000000
000000000000
000000000000
000000000000
000000000000
000000000000
000000000000
000000000000
000000000000
000000000000
000000000000
000000000000
000000000000
000000000000
000000000000
000000000000
000000000000
000000000000
000000000000
000000000000
000000000000
000000000000
000000000000
000000000000
000000000000
000000000000
000007e00000
00000ff00000
00000ff00000
00000ff00000
00400ff00200
00e00ff00700
00f00ff00f00
00f80ff01f00
00fc0ff03f00
007e0ff07e00
007f0ff0fe00
003f8ff1fc00
001ffffff800
000ffffff000
0007ffffe000
0003ffffc000
0001ffff8000
0000ffff0000
0000ffff0000
0001ffff8000
0003ffffc000
0007ffffe000
000ffffff000
001ffffff800
003f8ff1fc00
007f0ff0fe00
007e0ff07e00
00fc0ff03f00
00f80ff01f00
00f00ff00f00
00e00ff00700
00400ff00200
00000ff00000
00000ff00000
00000ff00000
000007e00000
000000000000
000000000000
000000000000
000000000000
000000000000
000000000000
000000000000
000000000000
000000000000
000000000000
000000000000
000000000000
000000000000
000000000000
000000000000
000000000000
000000000000
000000000000
000000000000
000000000000
000000000000
000000000000
000000000000
000000000000
000000000000
000000000000
000000000000
000000000000
000000000000
000000000000
000000000000
000000000000
000000000000
000000000000
000000000000
000000000000
000000000000
000000000000
000000000000
000000000000
ENDCHAR
STARTCHAR U+002B
ENCODING 43
SWIDTH 3000 0
DWIDTH 48 0
BBX 48 128 0 -2
BITMAP 
000000000000
000000000000
000000000000
000000000000
000000000000
000000000000
000000000000
000000000000
000000000000
000000000000
000000000000
000000000000
000000000000
000000000000
000000000000
000000000000
000000000000
000000000000
000000000000
000000000000
000000000000
000000000000
000000000000
000000000000
000000000000
000000000000
000000000000
000000000000
000000000000
000000000000
000000000000
000000000000
000000000000
000000000000
000000000000
000000000000
000000000000
000000000000
000000000000
000000000000
000000000000
000000000000
000000000000
000000000000
000000000000
000000000000
000000000000
000000000000
000000000000
000000000000
000000000000
000000000000
000000000000
000000000000
000000000000
000000000000
000007e00000
00000ff00000
00000ff00000
00000ff00000
00000ff00000
00000ff00000
00000ff00000
00000ff00000
00000ff00000
00000ff00000
00000ff00000
00000ff00000
007ffffffe00
00ffffffff00
00ffffffff00
00ffffffff00
00ffffffff00
00ffffffff00
00ffffffff00
007ffffffe00
00000ff00000
00000ff00000
00000ff00000
00000ff00000
00000ff00000
00000ff00000
00000ff00000
00000ff00000
00000ff00000
00000ff00000
00000ff00000
000007e00000
000000000000
000000000000
000000000000
000000000000
000000000000
000000000000
000000000000
000000000000
000000000000
000000000000
000000000000
000000000000
000000000000
000000000000
000000000000
000000000000
000000000000
000000000000
000000000000
000000000000
000000000000
000000000000
000000000000
000000000000
000000000000
000000000000
000000000000
000000000000
000000000000
000000000000
000000000000
000000000000
000000000000
000000000000
000000000000
000000000000
000000000000
000000000000
000000000000
000000000000
ENDCHAR
STARTCHAR U+002C
ENCODING 44
SWIDTH 3000 0
DWIDTH 48 0
BBX 48 128 0 -2
BITMAP 
000000000000
000000000000
000000000000
000000000000
000000000000
000000000000
000000000000
000000000000
000000000000
000000000000
000000000000
000000000000
000000000000
000000000000
000000000000
000000000000
000000000000
000000000000
000000000000
000000000000
000000000000
000000000000
000000000000
000000000000
000000000000
000000000000
000000000000
000000000000
000000000000
000000000000
000000000000
000000000000
000000000000
000000000000
000000000000
000000000000
000000000000
000000000000
000000000000
000000000000
000000000000
000000000000
000000000000
000000000000
000000000000
000000000000
000000000000
000000000000
000000000000
000000000000
000000000000
000000000000
000000000000
000000000000
000000000000
000000000000
000000000000
000000000000
000000000000
000000000000
000000000000
000000000000
000000000000
000000000000
000000000000
000000000000
000000000000
000000000000
000000000000
000000000000
000000000000
000000000000
000000000000
000000000000
000000000000
000000000000
000000000000
000000000000
000000000000
000000000000
000000000000
000000000000
000000000000
000000000000
000000000000
000000000000
000000000000
000000000000
000000000000
000000000000
000000000000
000000000000
000007e00000
00000ff00000
00000ff00000
00000ff00000
00000ff00000
00000ff00000
00000ff00000
00000ff00000
00000ff00000
000007f00000
000007f00000
000003f00000
000001f00000
000000f00000
000000f00000
000001f00000
000003f00000
000007e00000
000007e00000
00000fc00000
00000f800000
00000f000000
00000e000000
000004000000
000000000000
000000000000
000000000000
000000000000
000000000000
000000000000
000000000000
000000000000
000000000000
000000000000
000000000000
000000000000
ENDCHAR
STARTCHAR U+002D
ENCODING 45
SWIDTH 3000 0
DWIDTH 48 0
BBX 48 128 0 -2
BITMAP 
000000000000
000000000000
000000000000
000000000000
000000000000
000000000000
000000000000
000000000000
000000000000
000000000000
000000000000
000000000000
000000000000
000000000000
000000000000
000000000000
000000000000
000000000000
000000000000
000000000000
000000000000
000000000000
000000000000
000000000000
000000000000
000000000000
000000000000
000000000000
000000000000
000000000000
000000000000
000000000000
000000000000
000000000000
000000000000
000000000000
000000000000
000000000000
000000000000
000000000000
000000000000
000000000000
000000000000
000000000000
000000000000
000000000000
000000000000
000000000000
000000000000
000000000000
000000000000
000000000000
000000000000
000000000000
000000000000
000000000000
000000000000
000000000000
000000000000
000000000000
000000000000
000000000000
000000000000
000000000000
000000000000
000000000000
000000000000
000000000000
0007fffffe00
000fffffff00
000fffffff00
000fffffff00
000fffffff00
000fffffff00
000fffffff00
0007fffffe00
000000000000
000000000000
000000000000
000000000000
000000000000
000000000000
000000000000
000000000000
000000000000
000000000000
000000000000
000000000000
000000000000
000000000000
000000000000
000000000000
000000000000
000000000000
000000000000
000000000000
000000000000
000000000000
000000000000
000000000000
000000000000
000000000000
000000000000
000000000000
000000000000
000000000000
000000000000
000000000000
000000000000
000000000000
000000000000
000000000000
000000000000
000000000000
000000000000
000000000000
000000000000
000000000000
000000000000
000000000000
000000000000
000000000000
000000000000
000000000000
000000000000
000000000000
000000000000
000000000000
ENDCHAR
STARTCHAR U+002E
ENCODING 46
SWIDTH 3000 0
DWIDTH 48 0
BBX 48 128 0 -2
BITMAP 
000000000000
000000000000
000000000000
000000000000
000000000000
000000000000
000000000000
000000000000
000000000000
000000000000
000000000000
000000000000
000000000000
000000000000
000000000000
000000000000
000000000000
000000000000
000000000000
000000000000
000000000000
000000000000
000000000000
000000000000
000000000000
000000000000
000000000000
000000000000
000000000000
000000000000
000000000000
000000000000
000000000000
000000000000
000000000000
000000000000
000000000000
000000000000
000000000000
000000000000
000000000000
000000000000
000000000000
000000000000
000000000000
000000000000
000000000000
000000000000
000000000000
000000000000
000000000000
000000000000
000000000000
000000000000
000000000000
000000000000
000000000000
000000000000
000000000000
000000000000
000000000000
000000000000
000000000000
000000000000
000000000000
000000000000
000000000000
000000000000
000000000000
000000000000
000000000000
000000000000
000000000000
000000000000
000000000000
000000000000
000000000000
000000000000
000000000000
000000000000
000000000000
000000000000
000000000000
000000000000
000000000000
000000000000
000000000000
000000000000
000000000000
000000000000
000000000000
000000000000
000007e00000
00000ff00000
00000ff00000
00000ff00000
00000ff00000
00000ff00000
00000ff00000
00000ff00000
00000ff00000
00000ff00000
00000ff00000
000007e00000
000000000000
000000000000
000000000000
000000000000
000000000000
000000000000
000000000000
000000000000
000000000000
000000000000
000000000000
000000000000
000000000000
000000000000
000000000000
000000000000
000000000000
000000000000
000000000000
000000000000
000000000000
000000000000
000000000000
000000000000
ENDCHAR
STARTCHAR U+002F
ENCODING 47
SWIDTH 3000 0
DWIDTH 48 0
BBX 48 128 0 -2
BITMAP 
000000000000
000000000000
000000000000
000000000000
000000000000
000000000000
000000000000
000000000000
000000000000
000000000000
000000000000
000000000000
000000000000
000000000000
000000000000
000000000000
000000000000
000000000000
000000000000
000000000000
000000000000
000000000000
000000000000
000000000000
000000000000
000000000000
000000000000
000000000000
000000000000
000000000000
000000000000
000000000000
000000000000
000000000000
000000000000
000000000000
000000000000
000000000000
000000000000
000000000000
0000000007e0
000000000ff0
000000000ff0
000000000ff0
000000000ff0
000000001fe0
000000001fe0
000000003fc0
000000003fc0
000000007f80
000000007f80
00000000ff00
00000000ff00
00000001fe00
00000001fe00
00000003fc00
00000003fc00
00000007f800
00000007f800
0000000ff000
0000000ff000
0000001fe000
0000001fe000
0000003fc000
0000003fc000
0000007f8000
0000007f8000
000000ff0000
000000ff0000
000001fe0000
000001fe0000
000003fc0000
000003fc0000
000007f80000
000007f80000
00000ff00000
00000ff00000
00001fe00000
00001fe00000
00003fc00000
00003fc00000
00007f800000
00007f800000
0000ff000000
0000ff000000
0001fe000000
0001fe000000
0003fc000000
0003fc000000
0007f8000000
0007f8000000
000ff0000000
000ff0000000
001fe0000000
001fe0000000
003fc0000000
003fc0000000
007f80000000
007f80000000
00ff00000000
00ff00000000
00ff00000000
00ff00000000
007e00000000
000000000000
000000000000
000000000000
000000000000
000000000000
000000000000
000000000000
000000000000
000000000000
000000000000
000000000000
000000000000
000000000000
000000000000
000000000000
000000000000
000000000000
000000000000
000000000000
000000000000
000000000000
000000000000
000000000000
000000000000
ENDCHAR
STARTCHAR U+0030
ENCODING 48
SWIDTH 3000 0
DWIDTH 48 0
BBX 48 128 0 -2
BITMAP 
000000000000
000000000000
000000000000
000000000000
000000000000
000000000000
000000000000
000000000000
000000000000
000000000000
000000000000
000000000000
000000000000
000000000000
000000000000
000000000000
000000000000
000000000000
000000000000
000000000000
000000000000
000000000000
000000000000
000000000000
000000000000
000000000000
000000000000
000000000000
000000000000
000000000000
000000000000
000000000000
000000000000
000000000000
000000000000
000000000000
000000000000
000000000000
000000000000
000000000000
00001fff8000
00007fffe000
0000fffff000
0001fffff800
0003fffffc00
0007fffffe00
000fffffff00
001fffffff80
003ffe07ffc0
007ff801ffe0
007fe0007fe0
00ffc0003ff0
00ffc0003ff0
00ff80001ff0
00ff80001ff0
00ff00000ff0
00ff00000ff0
00ff00000ff0
00ff00000ff0
00ff00000ff0
00ff00000ff0
00ff00000ff0
00ff00000ff0
00ff00000ff0
00ff00600ff0
00ff00f00ff0
00ff00f00ff0
00ff00f00ff0
00ff00f00ff0
00ff00f00ff0
00ff00f00ff0
00ff00f00ff0
00ff00f00ff0
00ff00f00ff0
00ff00f00ff0
00ff00600ff0
00ff00000ff0
00ff00000ff0
00ff00000ff0
00ff00000ff0
00ff00000ff0
00ff00000ff0
00ff00000ff0
00ff00000ff0
00ff00000ff0
00ff00000ff0
00ff00000ff0
00ff00000ff0
00ff00000ff0
00ff80001ff0
00ff80001ff0
00ffc0003ff0
00ffc0003ff0
007fe0007fe0
007ff801ffe0
003ffe07ffc0
001fffffff80
000fffffff00
0007fffffe00
0003fffffc00
0001fffff800
0000fffff000
00007fffe000
00001fff8000
000000000000
000000000000
000000000000
000000000000
000000000000
000000000000
000000000000
000000000000
000000000000
000000000000
000000000000
000000000000
000000000000
000000000000
000000000000
000000000000
000000000000
000000000000
000000000000
000000000000
000000000000
000000000000
000000000000
000000000000
ENDCHAR
STARTCHAR U+0031
ENCODING 49
SWIDTH 3000 0
DWIDTH 48 0
BBX 48 128 0 -2
BITMAP 
000000000000
000000000000
000000000000
000000000000
000000000000
000000000000
000000000000
000000000000
000000000000
000000000000
000000000000
000000000000
000000000000
000000000000
000000000000
000000000000
000000000000
000000000000
000000000000
000000000000
000000000000
000000000000
000000000000
000000000000
000000000000
000000000000
000000000000
000000000000
000000000000
000000000000
000000000000
000000000000
000000000000
000000000000
000000000000
000000000000
000000000000
000000000000
000000000000
000000000000
0000001e0000
0000007f0000
000000ff0000
000001ff0000
000003ff0000
000007ff0000
00001fff0000
00007fff0000
0007ffff0000
000fffff0000
000fffff0000
000fffff0000
000ff8ff0000
000ff0ff0000
000fe0ff0000
000780ff0000
000000ff0000
000000ff0000
000000ff0000
000000ff0000
000000ff0000
000000ff0000
000000ff0000
000000ff0000
000000ff0000
000000ff0000
000000ff0000
000000ff0000
000000ff0000
000000ff0000
000000ff0000
000000ff0000
000000ff0000
000000ff0000
000000ff0000
000000ff0000
000000ff0000
000000ff0000
000000ff0000
000000ff0000
000000ff0000
000000ff0000
000000ff0000
000000ff0000
000000ff0000
000000ff0000
000000ff0000
000000ff0000
000000ff0000
000000ff0000
000000ff0000
000000ff0000
000000ff0000
000000ff0000
000000ff0000
000000ff0000
0007ffffffe0
000ffffffff0
000ffffffff0
000ffffffff0
000ffffffff0
000ffffffff0
000ffffffff0
0007ffffffe0
000000000000
000000000000
000000000000
000000000000
000000000000
000000000000
000000000000
000000000000
000000000000
000000000000
000000000000
000000000000
000000000000
000000000000
000000000000
000000000000
000000000000
000000000000
000000000000
000000000000
000000000000
000000000000
000000000000
000000000000
ENDCHAR
STARTCHAR U+0032
ENCODING 50
SWIDTH 3000 0
DWIDTH 48 0
BBX 48 128 0 -2
BITMAP 
000000000000
000000000000
000000000000
000000000000
000000000000
000000000000
000000000000
000000000000
000000000000
000000000000
000000000000
000000000000
000000000000
000000000000
000000000000
000000000000
000000000000
000000000000
000000000000
000000000000
000000000000
000000000000
000000000000
000000000000
000000000000
000000000000
000000000000
000000000000
000000000000
000000000000
000000000000
000000000000
000000000000
000000000000
000000000000
000000000000
000000000000
000000000000
000000000000
000000000000
00001fff8000
00007fffe000
0000fffff000
0001fffff800
0003fffffc00
0007fffffe00
000fffffff00
001fffffff80
003ffe07ffc0
007ff801ffe0
007fe0007fe0
00ffc0003ff0
00ffc0003ff0
00ff80001ff0
00ff80001ff0
00ff00000ff0
00ff00000ff0
00ff00000ff0
00ff00000ff0
007e00000ff0
000000000ff0
000000001ff0
000000001ff0
000000003ff0
000000003ff0
000000007fe0
00000000ffe0
00000001ffc0
00000003ff80
00000007ff00
0000000ffe00
0000001ffc00
0000003ff800
0000007ff000
000000ffe000
000001ffc000
000003ff8000
000007ff0000
00000ffe0000
00001ffc0000
00003ff80000
00007ff00000
0000ffe00000
0001ffc00000
0003ff800000
0007ff000000
000ffe000000
001ffc000000
003ff8000000
007ff0000000
007fe0000000
00ffc0000000
00ff80000000
00ff00000000
00ff00000000
00ff00000000
00ffffffffe0
00fffffffff0
00fffffffff0
00fffffffff0
00fffffffff0
00fffffffff0
00fffffffff0
007fffffffe0
000000000000
000000000000
000000000000
000000000000
000000000000
000000000000
000000000000
000000000000
000000000000
000000000000
000000000000
000000000000
000000000000
000000000000
000000000000
000000000000
000000000000
000000000000
000000000000
000000000000
000000000000
000000000000
000000000000
000000000000
ENDCHAR
STARTCHAR U+0033
ENCODING 51
SWIDTH 3000 0
DWIDTH 48 0
BBX 48 128 0 -2
BITMAP 
000000000000
000000000000
000000000000
000000000000
000000000000
000000000000
000000000000
000000000000
000000000000
000000000000
000000000000
000000000000
000000000000
000000000000
000000000000
000000000000
000000000000
000000000000
000000000000
000000000000
000000000000
000000000000
000000000000
000000000000
000000000000
000000000000
000000000000
000000000000
000000000000
000000000000
000000000000
000000000000
000000000000
000000000000
000000000000
000000000000
000000000000
000000000000
000000000000
000000000000
00001fff8000
00007fffe000
0000fffff000
0001fffff800
0003fffffc00
0007fffffe00
000fffffff00
001fffffff80
003ffe07ffc0
007ff801ffe0
007fe0007fe0
00ffc0003ff0
00ffc0003ff0
00ff80001ff0
00ff80001ff0
00ff00000ff0
00ff00000ff0
00ff00000ff0
00ff00000ff0
007e00000ff0
000000000ff0
000000001fe0
000000001fe0
000000003fc0
000000003f80
000000007f00
00000001fe00
00000007fc00
000007fff800
00000ffff000
00000ffff000
00000ffff800
00000ffffc00
00000ffffe00
00000fffff00
000007ffff80
00000007ffc0
00000001ffe0
000000007fe0
000000003ff0
000000003ff0
000000001ff0
000000001ff0
000000000ff0
000000000ff0
000000000ff0
000000000ff0
000000000ff0
007800000ff0
00fe00001ff0
00ff00001ff0
00ff80003ff0
00ffc0003ff0
007fe0007fe0
007ff801ffe0
003ffe07ffc0
001fffffff80
000fffffff00
0007fffffe00
0003fffffc00
0001fffff800
0000fffff000
00007fffe000
00001fff8000
000000000000
000000000000
000000000000
000000000000
000000000000
000000000000
000000000000
000000000000
000000000000
000000000000
000000000000
000000000000
000000000000
000000000000
000000000000
000000000000
000000000000
000000000000
000000000000
000000000000
000000000000
000000000000
000000000000
000000000000
ENDCHAR
STARTCHAR U+0034
ENCODING 52
SWIDTH 3000 0
DWIDTH 48 0
BBX 48 128 0 -2
BITMAP 
000000000000
000000000000
000000000000
000000000000
000000000000
000000000000
000000000000
000000000000
000000000000
000000000000
000000000000
000000000000
000000000000
000000000000
000000000000
000000000000
000000000000
000000000000
000000000000
000000000000
000000000000
000000000000
000000000000
000000000000
000000000000
000000000000
000000000000
000000000000
000000000000
000000000000
000000000000
000000000000
000000000000
000000000000
000000000000
000000000000
000000000000
000000000000
000000000000
000000000000
00000001fe00
00000007ff00
0000000fff00
0000001fff00
0000003fff00
0000007fff00
0000007fff00
000000ffff00
000000ffff00
000001ffff00
000001ffff00
000003ffff00
000003f0ff00
000007f0ff00
000007f0ff00
00000ff0ff00
00000ff0ff00
00001fe0ff00
00001fe0ff00
00003fc0ff00
00003fc0ff00
00007f80ff00
00007f80ff00
0000ff00ff00
0000ff00ff00
0001fe00ff00
0001fe00ff00
0003fc00ff00
0003fc00ff00
0007f800ff00
0007f800ff00
000ff000ff00
000ff000ff00
001fe000ff00
001fe000ff00
003fc000ff00
003fc000ff00
007f8000ff00
007f8000ff00
00ff0000ff00
00ff0000ff00
00ff0000ff80
00ff0000ff80
00ff0000ffc0
00ffffffffc0
00ffffffffe0
00ffffffffe0
00fffffffff0
00fffffffff0
00ffffffffe0
00ffffffffe0
007fffffffc0
00000000ffc0
00000000ff80
00000000ff80
00000000ff00
00000000ff00
00000000ff00
00000000ff00
00000000ff00
00000000ff00
00000000ff00
00000000ff00
000000007e00
000000000000
000000000000
000000000000
000000000000
000000000000
000000000000
000000000000
000000000000
000000000000
000000000000
000000000000
000000000000
000000000000
000000000000
000000000000
000000000000
000000000000
000000000000
000000000000
000000000000
000000000000
000000000000
000000000000
000000000000
ENDCHAR
STARTCHAR U+0035
ENCODING 53
SWIDTH 3000 0
DWIDTH 48 0
BBX 48 128 0 -2
BITMAP 
000000000000
000000000000
000000000000
000000000000
000000000000
000000000000
000000000000
000000000000
000000000000
000000000000
000000000000
000000000000
000000000000
000000000000
000000000000
000000000000
000000000000
000000000000
000000000000
000000000000
000000000000
000000000000
000000000000
000000000000
000000000000
000000000000
000000000000
000000000000
000000000000
000000000000
000000000000
000000000000
000000000000
000000000000
000000000000
000000000000
000000000000
000000000000
000000000000
000000000000
007ffffffe00
00ffffffff00
00ffffffff00
00ffffffff00
00ffffffff00
00ffffffff00
00ffffffff00
00fffffffe00
00ff00000000
00ff00000000
00ff00000000
00ff00000000
00ff00000000
00ff00000000
00ff00000000
00ff00000000
00ff00000000
00ff00000000
00ff00000000
00ff00000000
00ffffff8000
00ffffffe000
00fffffff000
00fffffff800
00fffffffc00
00fffffffe00
00ffffffff00
00ffffffff80
00ffe007ffc0
00ff8001ffe0
00fe00007fe0
007800003ff0
000000003ff0
000000001ff0
000000001ff0
000000000ff0
000000000ff0
000000000ff0
000000000ff0
000000000ff0
000000000ff0
000000000ff0
000000000ff0
000000000ff0
000000000ff0
000000000ff0
000000000ff0
000000000ff0
007800000ff0
00fe00001ff0
00ff00001ff0
00ff80003ff0
00ffc0003ff0
007fe0007fe0
007ff801ffe0
003ffe07ffc0
001fffffff80
000fffffff00
0007fffffe00
0003fffffc00
0001fffff800
0000fffff000
00007fffe000
00001fff8000
000000000000
000000000000
000000000000
000000000000
000000000000
000000000000
000000000000
000000000000
000000000000
000000000000
000000000000
000000000000
000000000000
000000000000
000000000000
000000000000
000000000000
000000000000
000000000000
000000000000
000000000000
000000000000
000000000000
000000000000
ENDCHAR
STARTCHAR U+0036
ENCODING 54
SWIDTH 3000 0
DWIDTH 48 0
BBX 48 128 0 -2
BITMAP 
000000000000
000000000000
000000000000
000000000000
000000000000
000000000000
000000000000
000000000000
000000000000
000000000000
000000000000
000000000000
000000000000
000000000000
000000000000
000000000000
000000000000
000000000000
000000000000
000000000000
000000000000
000000000000
000000000000
000000000000
000000000000
000000000000
000000000000
000000000000
000000000000
000000000000
000000000000
000000000000
000000000000
000000000000
000000000000
000000000000
000000000000
000000000000
000000000000
000000000000
00001fff8000
00007fffe000
0000fffff000
0001fffff800
0003fffffc00
0007fffffe00
000fffffff00
001fffffff80
003ffe07ffc0
007ff801ffe0
007fe0007fe0
00ffc0003ff0
00ffc0001ff0
00ff80000ff0
00ff800007f0
00ff000001e0
00ff00000000
00ff00000000
00ff00000000
00ff00000000
00ff00000000
00ff00000000
00ff00000000
00ff00000000
00ff01ff8000
00ff07ffe000
00ff0ffff000
00ff1ffff800
00fffffffc00
00fffffffe00
00ffffffff00
00ffffffff80
00fffe07ffc0
00fff801ffe0
00ffe0007fe0
00ffc0003ff0
00ffc0003ff0
00ff80001ff0
00ff80001ff0
00ff00000ff0
00ff00000ff0
00ff00000ff0
00ff00000ff0
00ff00000ff0
00ff00000ff0
00ff00000ff0
00ff00000ff0
00ff00000ff0
00ff00000ff0
00ff80001ff0
00ff80001ff0
00ffc0003ff0
00ffc0003ff0
007fe0007fe0
007ff801ffe0
003ffe07ffc0
001fffffff80
000fffffff00
0007fffffe00
0003fffffc00
0001fffff800
0000fffff000
00007fffe000
00001fff8000
000000000000
000000000000
000000000000
000000000000
000000000000
000000000000
000000000000
000000000000
000000000000
000000000000
000000000000
000000000000
000000000000
000000000000
000000000000
000000000000
000000000000
000000000000
000000000000
000000000000
000000000000
000000000000
000000000000
000000000000
ENDCHAR
STARTCHAR U+0037
ENCODING 55
SWIDTH 3000 0
DWIDTH 48 0
BBX 48 128 0 -2
BITMAP 
000000000000
000000000000
000000000000
000000000000
000000000000
000000000000
000000000000
000000000000
000000000000
000000000000
000000000000
000000000000
000000000000
000000000000
000000000000
000000000000
000000000000
000000000000
000000000000
000000000000
000000000000
000000000000
000000000000
000000000000
000000000000
000000000000
000000000000
000000000000
000000000000
000000000000
000000000000
000000000000
000000000000
000000000000
000000000000
000000000000
000000000000
000000000000
000000000000
000000000000
007fffffffe0
00fffffffff0
00fffffffff0
00fffffffff0
00fffffffff0
00fffffffff0
00fffffffff0
007ffffffff0
000000000ff0
000000000fe0
000000000fe0
000000001fc0
000000003fc0
000000007f80
000000007f80
00000000ff00
00000000ff00
00000001fe00
00000001fe00
00000003fc00
00000003fc00
00000007f800
00000007f800
0000000ff000
0000000ff000
0000001fe000
0000001fe000
0000003fc000
0000003fc000
0000007f8000
0000007f8000
000000ff0000
000000ff0000
000000ff0000
000000ff0000
000000ff0000
000000ff0000
000001fe0000
000001fe0000
000003fc0000
000003fc0000
000007f80000
000007f80000
00000ff00000
00000ff00000
00000ff00000
00000ff00000
00000ff00000
00000ff00000
00000ff00000
00000ff00000
00000ff00000
00000ff00000
00000ff00000
00000ff00000
00000ff00000
00000ff00000
00000ff00000
00000ff00000
00000ff00000
00000ff00000
00000ff00000
00000ff00000
000007e00000
000000000000
000000000000
000000000000
000000000000
000000000000
000000000000
000000000000
000000000000
000000000000
000000000000
000000000000
000000000000
000000000000
000000000000
000000000000
000000000000
000000000000
000000000000
000000000000
000000000000
000000000000
000000000000
000000000000
000000000000
ENDCHAR
STARTCHAR U+0038
ENCODING 56
SWIDTH 3000 0
DWIDTH 48 0
BBX 48 128 0 -2
BITMAP 
000000000000
000000000000
000000000000
000000000000
000000000000
000000000000
000000000000
000000000000
000000000000
000000000000
000000000000
000000000000
000000000000
000000000000
000000000000
000000000000
000000000000
000000000000
000000000000
000000000000
000000000000
000000000000
000000000000
000000000000
000000000000
000000000000
000000000000
000000000000
000000000000
000000000000
000000000000
000000000000
000000000000
000000000000
000000000000
000000000000
000000000000
000000000000
000000000000
000000000000
00001fff8000
00007fffe000
0000fffff000
0001fffff800
0003fffffc00
0007fffffe00
000fffffff00
001fffffff80
003ffe07ffc0
007ff801ffe0
007fe0007fe0
00ffc0003ff0
00ffc0003ff0
00ff80001ff0
00ff80001ff0
00ff00000ff0
00ff00000ff0
007f80001fe0
007f80001fe0
003fc0003fc0
001fc0003f80
000fe0007f00
0007f801fe00
0003fe07fc00
0001fffff800
0000fffff000
0000fffff000
0001fffff800
0003fffffc00
0007fffffe00
000fffffff00
001fffffff80
003ffe07ffc0
007ff801ffe0
007fe0007fe0
00ffc0003ff0
00ffc0003ff0
00ff80001ff0
00ff80001ff0
00ff00000ff0
00ff00000ff0
00ff00000ff0
00ff00000ff0
00ff00000ff0
00ff00000ff0
00ff00000ff0
00ff00000ff0
00ff00000ff0
00ff00000ff0
00ff80001ff0
00ff80001ff0
00ffc0003ff0
00ffc0003ff0
007fe0007fe0
007ff801ffe0
003ffe07ffc0
001fffffff80
000fffffff00
0007fffffe00
0003fffffc00
0001fffff800
0000fffff000
00007fffe000
00001fff8000
000000000000
000000000000
000000000000
000000000000
000000000000
000000000000
000000000000
000000000000
000000000000
000000000000
000000000000
000000000000
000000000000
000000000000
000000000000
000000000000
000000000000
000000000000
000000000000
000000000000
000000000000
000000000000
000000000000
000000000000
ENDCHAR
STARTCHAR U+0039
ENCODING 57
SWIDTH 3000 0
DWIDTH 48 0
BBX 48 128 0 -2
BITMAP 
000000000000
000000000000
000000000000
000000000000
000000000000
000000000000
000000000000
000000000000
000000000000
000000000000
000000000000
000000000000
000000000000
000000000000
000000000000
000000000000
000000000000
000000000000
000000000000
000000000000
000000000000
000000000000
000000000000
000000000000
000000000000
000000000000
000000000000
000000000000
000000000000
000000000000
000000000000
000000000000
000000000000
000000000000
000000000000
000000000000
000000000000
000000000000
000000000000
000000000000
00001fff8000
00007fffe000
0000fffff000
0001fffff800
0003fffffc00
0007fffffe00
000fffffff00
001fffffff80
003ffe07ffc0
007ff801ffe0
007fe0007fe0
00ffc0003ff0
00ffc0003ff0
00ff80001ff0
00ff80001ff0
00ff00000ff0
00ff00000ff0
00ff00000ff0
00ff00000ff0
00ff00000ff0
00ff00000ff0
00ff00000ff0
00ff00000ff0
00ff00000ff0
00ff00000ff0
00ff80001ff0
00ff80001ff0
00ffc0003ff0
00ffc0003ff0
007fe0007ff0
007ff801fff0
003ffe07fff0
001ffffffff0
000ffffffff0
0007fffffff0
0003fffffff0
0001ffff8ff0
0000ffff0ff0
00007ffe0ff0
00001ff80ff0
000000000ff0
000000000ff0
000000000ff0
000000000ff0
000000000ff0
000000000ff0
000000000ff0
000000000ff0
007800000ff0
00fe00001ff0
00ff00001ff0
00ff80003ff0
00ffc0003ff0
007fe0007fe0
007ff801ffe0
003ffe07ffc0
001fffffff80
000fffffff00
0007fffffe00
0003fffffc00
0001fffff800
0000fffff000
00007fffe000
00001fff8000
000000000000
000000000000
000000000000
000000000000
000000000000
000000000000
000000000000
000000000000
000000000000
000000000000
000000000000
000000000000
000000000000
000000000000
000000000000
000000000000
000000000000
000000000000
000000000000
000000000000
000000000000
000000000000
000000000000
000000000000
ENDCHAR
STARTCHAR U+003A
ENCODING 58
SWIDTH 3000 0
DWIDTH 48 0
BBX 48 128 0 -2
BITMAP 
000000000000
000000000000
000000000000
000000000000
000000000000
000000000000
000000000000
000000000000
000000000000
000000000000
000000000000
000000000000
000000000000
000000000000
000000000000
000000000000
000000000000
000000000000
000000000000
000000000000
000000000000
000000000000
000000000000
000000000000
000000000000
000000000000
000000000000
000000000000
000000000000
000000000000
000000000000
000000000000
000000000000
000000000000
000000000000
000000000000
000000000000
000000000000
000000000000
000000000000
000000000000
000000000000
000000000000
000000000000
000000000000
000000000000
000000000000
000000000000
000000000000
000000000000
000000000000
000000000000
000000000000
000000000000
000000000000
000000000000
000007e00000
00000ff00000
00000ff00000
00000ff00000
00000ff00000
00000ff00000
00000ff00000
00000ff00000
00000ff00000
00000ff00000
00000ff00000
000007e00000
000000000000
000000000000
000000000000
000000000000
000000000000
000000000000
000000000000
000000000000
000000000000
000000000000
000000000000
000000000000
000000000000
000000000000
000000000000
000000000000
000000000000
000000000000
000000000000
000000000000
000000000000
000000000000
000000000000
000000000000
000007e00000
00000ff00000
00000ff00000
00000ff00000
00000ff00000
00000ff00000
00000ff00000
00000ff00000
00000ff00000
00000ff00000
00000ff00000
000007e00000
000000000000
000000000000
000000000000
000000000000
000000000000
000000000000
000000000000
000000000000
000000000000
000000000000
000000000000
000000000000
000000000000
000000000000
000000000000
000000000000
000000000000
000000000000
000000000000
000000000000
000000000000
000000000000
000000000000
000000000000
ENDCHAR
STARTCHAR U+003B
ENCODING 59
SWIDTH 3000 0
DWIDTH 48 0
BBX 48 128 0 -2
BITMAP 
000000000000
000000000000
000000000000
000000000000
000000000000
000000000000
000000000000
000000000000
000000000000
000000000000
000000000000
000000000000
000000000000
000000000000
000000000000
000000000000
000000000000
000000000000
000000000000
000000000000
000000000000
000000000000
000000000000
000000000000
000000000000
000000000000
000000000000
000000000000
000000000000
000000000000
000000000000
000000000000
000000000000
000000000000
000000000000
000000000000
000000000000
000000000000
000000000000
000000000000
000000000000
000000000000
000000000000
000000000000
000000000000
000000000000
000000000000
000000000000
000000000000
000000000000
000000000000
000000000000
000000000000
000000000000
000000000000
000000000000
000007e00000
00000ff00000
00000ff00000
00000ff00000
00000ff00000
00000ff00000
00000ff00000
00000ff00000
00000ff00000
00000ff00000
00000ff00000
000007e00000
000000000000
000000000000
000000000000
000000000000
000000000000
000000000000
000000000000
000000000000
000000000000
000000000000
000000000000
000000000000
000000000000
000000000000
000000000000
000000000000
000000000000
000000000000
000000000000
000000000000
000000000000
000000000000
000000000000
000000000000
000007e00000
00000ff00000
00000ff00000
00000ff00000
00000ff00000
00000ff00000
00000ff00000
00000ff00000
00000ff00000
000007f00000
000007f00000
000003f00000
000001f00000
000000f00000
000000f00000
000001f00000
000003f00000
000007e00000
000007e00000
00000fc00000
00000f800000
00000f000000
00000e000000
000004000000
000000000000
000000000000
000000000000
000000000000
000000000000
000000000000
000000000000
000000000000
000000000000
000000000000
000000000000
000000000000
ENDCHAR
STARTCHAR U+003C
ENCODING 60
SWIDTH 3000 0
DWIDTH 48 0
BBX 48 128 0 -2
BITMAP 
000000000000
000000000000
000000000000
000000000000
000000000000
000000000000
000000000000
000000000000
000000000000
000000000000
000000000000
000000000000
000000000000
000000000000
000000000000
000000000000
000000000000
000000000000
000000000000
000000000000
000000000000
000000000000
000000000000
000000000000
000000000000
000000000000
000000000000
000000000000
000000000000
000000000000
000000000000
000000000000
000000000000
000000000000
000000000000
000000000000
000000000000
000000000000
000000000000
000000000000
000000000000
000000000000
000000000000
000000000000
000000001fe0
000000007ff0
00000000ffe0
00000001ffc0
00000003ff80
00000007ff00
0000000ffe00
0000001ffc00
0000003ff800
0000007ff000
000000ffe000
000001ffc000
000003ff8000
000007ff0000
00000ffe0000
00001ffc0000
00003ff80000
00007ff00000
0000ffe00000
0001ffc00000
0003ff800000
0007ff000000
000ffe000000
001ffc000000
003ffc000000
007ff8000000
007ff8000000
00fff0000000
00fff0000000
007ff8000000
007ff8000000
003ffc000000
001ffc000000
000ffe000000
0007ff000000
0003ff800000
0001ffc00000
0000ffe00000
00007ff00000
00003ff80000
00001ffc0000
00000ffe0000
000007ff0000
000003ff8000
000001ffc000
000000ffe000
0000007ff000
0000003ff800
0000001ffc00
0000000ffe00
00000007ff00
00000003ff80
00000001ffc0
00000000ffe0
000000007ff0
000000001fe0
000000000000
000000000000
000000000000
000000000000
000000000000
000000000000
000000000000
000000000000
000000000000
000000000000
000000000000
000000000000
000000000000
000000000000
000000000000
000000000000
000000000000
000000000000
000000000000
000000000000
000000000000
000000000000
000000000000
000000000000
000000000000
000000000000
000000000000
000000000000
ENDCHAR
STARTCHAR U+003D
ENCODING 61
SWIDTH 3000 0
DWIDTH 48 0
BBX 48 128 0 -2
BITMAP 
000000000000
000000000000
000000000000
000000000000
000000000000
000000000000
000000000000
000000000000
000000000000
000000000000
000000000000
000000000000
000000000000
000000000000
000000000000
000000000000
000000000000
000000000000
000000000000
000000000000
000000000000
000000000000
000000000000
000000000000
000000000000
000000000000
000000000000
000000000000
000000000000
000000000000
000000000000
000000000000
000000000000
000000000000
000000000000
000000000000
000000000000
000000000000
000000000000
000000000000
000000000000
000000000000
000000000000
000000000000
000000000000
000000000000
000000000000
000000000000
000000000000
000000000000
000000000000
000000000000
000000000000
000000000000
000000000000
000000000000
000000000000
000000000000
000000000000
000000000000
007ffffffe00
00ffffffff00
00ffffffff00
00ffffffff00
00ffffffff00
00ffffffff00
00ffffffff00
007ffffffe00
000000000000
000000000000
000000000000
000000000000
000000000000
000000000000
000000000000
000000000000
007ffffffe00
00ffffffff00
00ffffffff00
00ffffffff00
00ffffffff00
00ffffffff00
00ffffffff00
007ffffffe00
000000000000
000000000000
000000000000
000000000000
000000000000
000000000000
000000000000
000000000000
000000000000
000000000000
000000000000
000000000000
000000000000
000000000000
000000000000
000000000000
000000000000
000000000000
000000000000
000000000000
000000000000
000000000000
000000000000
000000000000
000000000000
000000000000
000000000000
000000000000
000000000000
000000000000
000000000000
000000000000
000000000000
000000000000
000000000000
000000000000
000000000000
000000000000
000000000000
000000000000
000000000000
000000000000
000000000000
000000000000
ENDCHAR
STARTCHAR U+003E
ENCODING 62
SWIDTH 3000 0
DWIDTH 48 0
BBX 48 128 0 -2
BITMAP 
000000000000
000000000000
000000000000
000000000000
000000000000
000000000000
000000000000
000000000000
000000000000
000000000000
000000000000
000000000000
000000000000
000000000000
000000000000
000000000000
000000000000
000000000000
000000000000
000000000000
000000000000
000000000000
000000000000
000000000000
000000000000
000000000000
000000000000
000000000000
000000000000
000000000000
000000000000
000000000000
000000000000
000000000000
000000000000
000000000000
000000000000
000000000000
000000000000
000000000000
000000000000
000000000000
000000000000
000000000000
007f80000000
00ffe0000000
007ff0000000
003ff8000000
001ffc000000
000ffe000000
0007ff000000
0003ff800000
0001ffc00000
0000ffe00000
00007ff00000
00003ff80000
00001ffc0000
00000ffe0000
000007ff0000
000003ff8000
000001ffc000
000000ffe000
0000007ff000
0000003ff800
0000001ffc00
0000000ffe00
00000007ff00
00000003ff80
00000003ffc0
00000001ffe0
00000001ffe0
00000000fff0
00000000fff0
00000001ffe0
00000001ffe0
00000003ffc0
00000003ff80
00000007ff00
0000000ffe00
0000001ffc00
0000003ff800
0000007ff000
000000ffe000
000001ffc000
000003ff8000
000007ff0000
00000ffe0000
00001ffc0000
00003ff80000
00007ff00000
0000ffe00000
0001ffc00000
0003ff800000
0007ff000000
000ffe000000
001ffc000000
003ff8000000
007ff0000000
00ffe0000000
007f80000000
000000000000
000000000000
000000000000
000000000000
000000000000
000000000000
000000000000
000000000000
000000000000
000000000000
000000000000
000000000000
000000000000
000000000000
000000000000
000000000000
000000000000
000000000000
000000000000
000000000000
000000000000
000000000000
000000000000
000000000000
000000000000
000000000000
000000000000
000000000000
ENDCHAR
STARTCHAR U+003F
ENCODING 63
SWIDTH 3000 0
DWIDTH 48 0
BBX 48 128 0 -2
BITMAP 
000000000000
000000000000
000000000000
000000000000
000000000000
000000000000
000000000000
000000000000
000000000000
000000000000
000000000000
000000000000
000000000000
000000000000
000000000000
000000000000
000000000000
000000000000
000000000000
000000000000
000000000000
000000000000
000000000000
000000000000
000000000000
000000000000
000000000000
000000000000
000000000000
000000000000
000000000000
000000000000
000000000000
000000000000
000000000000
000000000000
000000000000
000000000000
000000000000
000000000000
00001fff8000
00007fffe000
0000fffff000
0001fffff800
0003fffffc00
0007fffffe00
000fffffff00
001fffffff80
003ffe07ffc0
007ff801ffe0
007fe0007fe0
00ffc0003ff0
00ffc0003ff0
00ff80001ff0
00ff80001ff0
00ff00000ff0
00ff00000ff0
00ff00000ff0
00ff00000ff0
007e00000ff0
000000000ff0
000000001ff0
000000001ff0
000000003ff0
000000003ff0
000000007fe0
00000000ffe0
00000001ffc0
00000003ff80
00000007ff00
0000000ffe00
0000001ffc00
0000003ff800
0000007ff000
000000ffe000
000001ffc000
000003ff8000
000007ff0000
000007fe0000
00000ffc0000
00000ffc0000
00000ff80000
00000ff80000
00000ff00000
00000ff00000
00000ff00000
00000ff00000
000007e00000
000000000000
000000000000
000000000000
000000000000
000007e00000
00000ff00000
00000ff00000
00000ff00000
00000ff00000
00000ff00000
00000ff00000
00000ff00000
00000ff00000
00000ff00000
00000ff00000
000007e00000
000000000000
000000000000
000000000000
000000000000
000000000000
000000000000
000000000000
000000000000
000000000000
000000000000
000000000000
000000000000
000000000000
000000000000
000000000000
000000000000
000000000000
000000000000
000000000000
000000000000
000000000000
000000000000
000000000000
000000000000
ENDCHAR
STARTCHAR U+0040
ENCODING 64
SWIDTH 3000 0
DWIDTH 48 0
BBX 48 128 0 -2
BITMAP 
000000000000
000000000000
000000000000
000000000000
000000000000
000000000000
000000000000
000000000000
000000000000
000000000000
000000000000
000000000000
000000000000
000000000000
000000000000
000000000000
000000000000
000000000000
000000000000
000000000000
000000000000
000000000000
000000000000
000000000000
000000000000
000000000000
000000000000
000000000000
000000000000
000000000000
000000000000
000000000000
000000000000
000000000000
000000000000
000000000000
000000000000
000000000000
000000000000
000000000000
000000000000
000000000000
000000000000
000000000000
0001ffff8000
0007ffffe000
000ffffff000
001ffffff800
003ffffffc00
007ffffffe00
00ffffffff00
01ffffffff80
03ffe007ffc0
07ff8001ffe0
07fe00007fe0
0ffc00003ff0
0ffc00001ff0
0ff800000ff0
0ff800000ff0
0ff000000ff0
0ff0001ffff0
0ff0007ffff0
0ff000fffff0
0ff001fffff0
0ff003fffff0
0ff007fffff0
0ff007fffff0
0ff00ffffff0
0ff00ff00ff0
0ff00ff00ff0
0ff00ff00ff0
0ff00ff00ff0
0ff00ff00ff0
0ff00ff00ff0
0ff00ff00ff0
0ff00ff00ff0
0ff00ffffff0
0ff007ffffe0
0ff007ffffe0
0ff003ffffc0
0ff001ffff80
0ff000ffff00
0ff0007ffe00
0ff0001ff800
0ff000000000
0ff800000000
0ff800000000
0ffc00000000
0ffc00000020
07fe00000070
07ff800001f0
03ffe00007f0
01fffffffff0
00ffffffffe0
007fffffffe0
003fffffffc0
001fffffff80
000fffffff00
0007fffffe00
0001fffff800
000000000000
000000000000
000000000000
000000000000
000000000000
000000000000
000000000000
000000000000
000000000000
000000000000
000000000000
000000000000
000000000000
000000000000
000000000000
000000000000
000000000000
000000000000
000000000000
000000000000
000000000000
000000000000
000000000000
000000000000
000000000000
000000000000
000000000000
000000000000
ENDCHAR
STARTCHAR U+0041
ENCODING 65
SWIDTH 3000 0
DWIDTH 48 0
BBX 48 128 0 -2
BITMAP 
000000000000
000000000000
000000000000
000000000000
000000000000
000000000000
000000000000
000000000000
000000000000
000000000000
000000000000
000000000000
000000000000
000000000000
000000000000
000000000000
000000000000
000000000000
000000000000
000000000000
000000000000
000000000000
000000000000
000000000000
000000000000
000000000000
000000000000
000000000000
000000000000
000000000000
000000000000
000000000000
000000000000
000000000000
000000000000
000000000000
000000000000
000000000000
000000000000
000000000000
000001f80000
000007fe0000
00000fff0000
00001fff8000
00003fffc000
00007fffe000
0000fffff000
0001fffff800
0003ff9ffc00
0007ff0ffe00
000ffe07ff00
001ffc03ff80
003ff801ffc0
007ff000ffe0
007fe0007fe0
00ffc0003ff0
00ffc0003ff0
00ff80001ff0
00ff80001ff0
00ff00000ff0
00ff00000ff0
00ff00000ff0
00ff00000ff0
00ff00000ff0
00ff00000ff0
00ff00000ff0
00ff00000ff0
00ff00000ff0
00ff00000ff0
00ff00000ff0
00ff00000ff0
00ff00000ff0
00fffffffff0
00fffffffff0
00fffffffff0
00fffffffff0
00fffffffff0
00fffffffff0
00fffffffff0
00fffffffff0
00ff00000ff0
00ff00000ff0
00ff00000ff0
00ff00000ff0
00ff00000ff0
00ff00000ff0
00ff00000ff0
00ff00000ff0
00ff00000ff0
00ff00000ff0
00ff00000ff0
00ff00000ff0
00ff00000ff0
00ff00000ff0
00ff00000ff0
00ff00000ff0
00ff00000ff0
00ff00000ff0
00ff00000ff0
00ff00000ff0
00ff00000ff0
00ff00000ff0
00ff00000ff0
007e000007e0
000000000000
000000000000
000000000000
000000000000
000000000000
000000000000
000000000000
000000000000
000000000000
000000000000
000000000000
000000000000
000000000000
000000000000
000000000000
000000000000
000000000000
000000000000
000000000000
000000000000
000000000000
000000000000
000000000000
000000000000
ENDCHAR
STARTCHAR U+0042
ENCODING 66
SWIDTH 3000 0
DWIDTH 48 0
BBX 48 128 0 -2
BITMAP 
000000000000
000000000000
000000000000
000000000000
000000000000
000000000000
000000000000
000000000000
000000000000
000000000000
000000000000
000000000000
000000000000
000000000000
000000000000
000000000000
000000000000
000000000000
000000000000
000000000000
000000000000
000000000000
000000000000
000000000000
000000000000
000000000000
000000000000
000000000000
000000000000
000000000000
000000000000
000000000000
000000000000
000000000000
000000000000
000000000000
000000000000
000000000000
000000000000
000000000000
007fffff8000
00ffffffe000
00fffffff000
00fffffff800
00fffffffc00
00fffffffe00
00ffffffff00
00ffffffff80
00ff0007ffc0
00ff0001ffe0
00ff00007fe0
00ff00003ff0
00ff00003ff0
00ff00001ff0
00ff00001ff0
00ff00000ff0
00ff00000ff0
00ff00000ff0
00ff00000ff0
00ff00000ff0
00ff00000ff0
00ff00001ff0
00ff00001ff0
00ff00003ff0
00ff00003ff0
00ff00007fe0
00ff0001ffe0
00ff0007ffc0
00ffffffffc0
00ffffffff80
00ffffffff80
00ffffffff00
00ffffffff00
00ffffffff80
00ffffffff80
00ffffffffc0
00ff0007ffc0
00ff0001ffe0
00ff00007fe0
00ff00003ff0
00ff00003ff0
00ff00001ff0
00ff00001ff0
00ff00000ff0
00ff00000ff0
00ff00000ff0
00ff00000ff0
00ff00000ff0
00ff00000ff0
00ff00001ff0
00ff00001ff0
00ff00003ff0
00ff00003ff0
00ff00007fe0
00ff0001ffe0
00ff0007ffc0
00ffffffff80
00ffffffff00
00fffffffe00
00fffffffc00
00fffffff800
00fffffff000
00ffffffe000
007fffff8000
000000000000
000000000000
000000000000
000000000000
000000000000
000000000000
000000000000
000000000000
000000000000
000000000000
000000000000
000000000000
000000000000
000000000000
000000000000
000000000000
000000000000
000000000000
000000000000
000000000000
000000000000
000000000000
000000000000
000000000000
ENDCHAR
STARTCHAR U+0043
ENCODING 67
SWIDTH 3000 0
DWIDTH 48 0
BBX 48 128 0 -2
BITMAP 
000000000000
000000000000
000000000000
000000000000
000000000000
000000000000
000000000000
000000000000
000000000000
000000000000
000000000000
000000000000
000000000000
000000000000
000000000000
000000000000
000000000000
000000000000
000000000000
000000000000
000000000000
000000000000
000000000000
000000000000
000000000000
000000000000
000000000000
000000000000
000000000000
000000000000
000000000000
000000000000
000000000000
000000000000
000000000000
000000000000
000000000000
000000000000
000000000000
000000000000
00001fff8000
00007fffe000
0000fffff000
0001fffff800
0003fffffc00
0007fffffe00
000fffffff00
001fffffff80
003ffe07ffc0
007ff801ffe0
007fe0007fe0
00ffc0003ff0
00ffc0003ff0
00ff80001ff0
00ff80001ff0
00ff00000ff0
00ff00000ff0
00ff00000ff0
00ff00000ff0
00ff000007e0
00ff00000000
00ff00000000
00ff00000000
00ff00000000
00ff00000000
00ff00000000
00ff00000000
00ff00000000
00ff00000000
00ff00000000
00ff00000000
00ff00000000
00ff00000000
00ff00000000
00ff00000000
00ff00000000
00ff00000000
00ff00000000
00ff00000000
00ff00000000
00ff00000000
00ff00000000
00ff00000000
00ff00000000
00ff000007e0
00ff00000ff0
00ff00000ff0
00ff00000ff0
00ff00000ff0
00ff80001ff0
00ff80001ff0
00ffc0003ff0
00ffc0003ff0
007fe0007fe0
007ff801ffe0
003ffe07ffc0
001fffffff80
000fffffff00
0007fffffe00
0003fffffc00
0001fffff800
0000fffff000
00007fffe000
00001fff8000
000000000000
000000000000
000000000000
000000000000
000000000000
000000000000
000000000000
000000000000
000000000000
000000000000
000000000000
000000000000
000000000000
000000000000
000000000000
000000000000
000000000000
000000000000
000000000000
000000000000
000000000000
000000000000
000000000000
000000000000
ENDCHAR
STARTCHAR U+0044
ENCODING 68
SWIDTH 3000 0
DWIDTH 48 0
BBX 48 128 0 -2
BITMAP 
000000000000
000000000000
000000000000
000000000000
000000000000
000000000000
000000000000
000000000000
000000000000
000000000000
000000000000
000000000000
000000000000
000000000000
000000000000
000000000000
000000000000
000000000000
000000000000
000000000000
000000000000
000000000000
000000000000
000000000000
000000000000
000000000000
000000000000
000000000000
000000000000
000000000000
000000000000
000000000000
000000000000
000000000000
000000000000
000000000000
000000000000
000000000000
000000000000
000000000000
007fffff8000
00ffffffe000
00fffffff000
00fffffff800
00fffffffc00
00fffffffe00
00ffffffff00
00ffffffff80
00ff0007ffc0
00ff0001ffe0
00ff00007fe0
00ff00003ff0
00ff00003ff0
00ff00001ff0
00ff00001ff0
00ff00000ff0
00ff00000ff0
00ff00000ff0
00ff00000ff0
00ff00000ff0
00ff00000ff0
00ff00000ff0
00ff00000ff0
00ff00000ff0
00ff00000ff0
00ff00000ff0
00ff00000ff0
00ff00000ff0
00ff00000ff0
00ff00000ff0
00ff00000ff0
00ff00000ff0
00ff00000ff0
00ff00000ff0
00ff00000ff0
00ff00000ff0
00ff00000ff0
00ff00000ff0
00ff00000ff0
00ff00000ff0
00ff00000ff0
00ff00000ff0
00ff00000ff0
00ff00000ff0
00ff00000ff0
00ff00000ff0
00ff00000ff0
00ff00000ff0
00ff00000ff0
00ff00001ff0
00ff00001ff0
00ff00003ff0
00ff00003ff0
00ff00007fe0
00ff0001ffe0
00ff0007ffc0
00ffffffff80
00ffffffff00
00fffffffe00
00fffffffc00
00fffffff800
00fffffff000
00ffffffe000
007fffff8000
000000000000
000000000000
000000000000
000000000000
000000000000
000000000000
000000000000
000000000000
000000000000
000000000000
000000000000
000000000000
000000000000
000000000000
000000000000
000000000000
000000000000
000000000000
000000000000
000000000000
000000000000
000000000000
000000000000
000000000000
ENDCHAR
STARTCHAR U+0045
ENCODING 69
SWIDTH 3000 0
DWIDTH 48 0
BBX 48 128 0 -2
BITMAP 
000000000000
000000000000
000000000000
000000000000
000000000000
000000000000
000000000000
000000000000
000000000000
000000000000
000000000000
000000000000
000000000000
000000000000
000000000000
000000000000
000000000000
000000000000
000000000000
000000000000
000000000000
000000000000
000000000000
000000000000
000000000000
000000000000
000000000000
000000000000
000000000000
000000000000
000000000000
000000000000
000000000000
000000000000
000000000000
000000000000
000000000000
000000000000
000000000000
000000000000
007fffffffe0
00fffffffff0
00fffffffff0
00fffffffff0
00fffffffff0
00fffffffff0
00fffffffff0
00ffffffffe0
00ff00000000
00ff00000000
00ff00000000
00ff00000000
00ff00000000
00ff00000000
00ff00000000
00ff00000000
00ff00000000
00ff00000000
00ff00000000
00ff00000000
00ff00000000
00ff00000000
00ff00000000
00ff00000000
00ff00000000
00ff00000000
00ff00000000
00ff00000000
00fffffffe00
00ffffffff00
00ffffffff00
00ffffffff00
00ffffffff00
00ffffffff00
00ffffffff00
00fffffffe00
00ff00000000
00ff00000000
00ff00000000
00ff00000000
00ff00000000
00ff00000000
00ff00000000
00ff00000000
00ff00000000
00ff00000000
00ff00000000
00ff00000000
00ff00000000
00ff00000000
00ff00000000
00ff00000000
00ff00000000
00ff00000000
00ff00000000
00ff00000000
00ffffffffe0
00fffffffff0
00fffffffff0
00fffffffff0
00fffffffff0
00fffffffff0
00fffffffff0
007fffffffe0
000000000000
000000000000
000000000000
000000000000
000000000000
000000000000
000000000000
000000000000
000000000000
000000000000
000000000000
000000000000
000000000000
000000000000
000000000000
000000000000
000000000000
000000000000
000000000000
000000000000
000000000000
000000000000
000000000000
000000000000
ENDCHAR
STARTCHAR U+0046
ENCODING 70
SWIDTH 3000 0
DWIDTH 48 0
BBX 48 128 0 -2
BITMAP 
000000000000
000000000000
000000000000
000000000000
000000000000
000000000000
000000000000
000000000000
000000000000
000000000000
000000000000
000000000000
000000000000
000000000000
000000000000
000000000000
000000000000
000000000000
000000000000
000000000000
000000000000
000000000000
000000000000
000000000000
000000000000
000000000000
000000000000
000000000000
000000000000
000000000000
000000000000
000000000000
000000000000
000000000000
000000000000
000000000000
000000000000
000000000000
000000000000
000000000000
007fffffffe0
00fffffffff0
00fffffffff0
00fffffffff0
00fffffffff0
00fffffffff0
00fffffffff0
00ffffffffe0
00ff00000000
00ff00000000
00ff00000000
00ff00000000
00ff00000000
00ff00000000
00ff00000000
00ff00000000
00ff00000000
00ff00000000
00ff00000000
00ff00000000
00ff00000000
00ff00000000
00ff00000000
00ff00000000
00ff00000000
00ff00000000
00ff00000000
00ff00000000
00fffffffe00
00ffffffff00
00ffffffff00
00ffffffff00
00ffffffff00
00ffffffff00
00ffffffff00
00fffffffe00
00ff00000000
00ff00000000
00ff00000000
00ff00000000
00ff00000000
00ff00000000
00ff00000000
00ff00000000
00ff00000000
00ff00000000
00ff00000000
00ff00000000
00ff00000000
00ff00000000
00ff00000000
00ff00000000
00ff00000000
00ff00000000
00ff00000000
00ff00000000
00ff00000000
00ff00000000
00ff00000000
00ff00000000
00ff00000000
00ff00000000
00ff00000000
007e00000000
000000000000
000000000000
000000000000
000000000000
000000000000
000000000000
000000000000
000000000000
000000000000
000000000000
000000000000
000000000000
000000000000
000000000000
000000000000
000000000000
000000000000
000000000000
000000000000
000000000000
000000000000
000000000000
000000000000
000000000000
ENDCHAR
STARTCHAR U+0047
ENCODING 71
SWIDTH 3000 0
DWIDTH 48 0
BBX 48 128 0 -2
BITMAP 
000000000000
000000000000
000000000000
000000000000
000000000000
000000000000
000000000000
000000000000
000000000000
000000000000
000000000000
000000000000
000000000000
000000000000
000000000000
000000000000
000000000000
000000000000
000000000000
000000000000
000000000000
000000000000
000000000000
000000000000
000000000000
000000000000
000000000000
000000000000
000000000000
000000000000
000000000000
000000000000
000000000000
000000000000
000000000000
000000000000
000000000000
000000000000
000000000000
000000000000
00001fff8000
00007fffe000
0000fffff000
0001fffff800
0003fffffc00
0007fffffe00
000fffffff00
001fffffff80
003ffe07ffc0
007ff801ffe0
007fe0007fe0
00ffc0003ff0
00ffc0003ff0
00ff80001ff0
00ff80001ff0
00ff00000ff0
00ff00000ff0
00ff00000ff0
00ff00000ff0
00ff000007e0
00ff00000000
00ff00000000
00ff00000000
00ff00000000
00ff00000000
00ff00000000
00ff00000000
00ff00000000
00ff0007ffe0
00ff000ffff0
00ff000ffff0
00ff000ffff0
00ff000ffff0
00ff000ffff0
00ff000ffff0
00ff0007fff0
00ff00000ff0
00ff00000ff0
00ff00000ff0
00ff00000ff0
00ff00000ff0
00ff00000ff0
00ff00000ff0
00ff00000ff0
00ff00000ff0
00ff00000ff0
00ff00000ff0
00ff00000ff0
00ff00000ff0
00ff80001ff0
00ff80001ff0
00ffc0003ff0
00ffc0003ff0
007fe0007ff0
007ff801fff0
003ffe07fff0
001ffffffff0
000ffffffff0
0007fffffff0
0003fffffff0
0001ffff9ff0
0000ffff0ff0
00007ffe07f0
00001ff801e0
000000000000
000000000000
000000000000
000000000000
000000000000
000000000000
000000000000
000000000000
000000000000
000000000000
000000000000
000000000000
000000000000
000000000000
000000000000
000000000000
000000000000
000000000000
000000000000
000000000000
000000000000
000000000000
000000000000
000000000000
ENDCHAR
STARTCHAR U+0048
ENCODING 72
SWIDTH 3000 0
DWIDTH 48 0
BBX 48 128 0 -2
BITMAP 
000000000000
000000000000
000000000000
000000000000
000000000000
000000000000
000000000000
000000000000
000000000000
000000000000
000000000000
000000000000
000000000000
000000000000
000000000000
000000000000
000000000000
000000000000
000000000000
000000000000
000000000000
000000000000
000000000000
000000000000
000000000000
000000000000
000000000000
000000000000
000000000000
000000000000
000000000000
000000000000
000000000000
000000000000
000000000000
000000000000
000000000000
000000000000
000000000000
000000000000
007e000007e0
00ff00000ff0
00ff00000ff0
00ff00000ff0
00ff00000ff0
00ff00000ff0
00ff00000ff0
00ff00000ff0
00ff00000ff0
00ff00000ff0
00ff00000ff0
00ff00000ff0
00ff00000ff0
00ff00000ff0
00ff00000ff0
00ff00000ff0
00ff00000ff0
00ff00000ff0
00ff00000ff0
00ff00000ff0
00ff00000ff0
00ff00000ff0
00ff00000ff0
00ff00000ff0
00ff00000ff0
00ff00000ff0
00ff00000ff0
00ff00000ff0
00fffffffff0
00fffffffff0
00fffffffff0
00fffffffff0
00fffffffff0
00fffffffff0
00fffffffff0
00fffffffff0
00ff00000ff0
00ff00000ff0
00ff00000ff0
00ff00000ff0
00ff00000ff0
00ff00000ff0
00ff00000ff0
00ff00000ff0
00ff00000ff0
00ff00000ff0
00ff00000ff0
00ff00000ff0
00ff00000ff0
00ff00000ff0
00ff00000ff0
00ff00000ff0
00ff00000ff0
00ff00000ff0
00ff00000ff0
00ff00000ff0
00ff00000ff0
00ff00000ff0
00ff00000ff0
00ff00000ff0
00ff00000ff0
00ff00000ff0
00ff00000ff0
007e000007e0
000000000000
000000000000
000000000000
000000000000
000000000000
000000000000
000000000000
000000000000
000000000000
000000000000
000000000000
000000000000
000000000000
000000000000
000000000000
000000000000
000000000000
000000000000
000000000000
000000000000
000000000000
000000000000
000000000000
000000000000
ENDCHAR
STARTCHAR U+0049
ENCODING 73
SWIDTH 3000 0
DWIDTH 48 0
BBX 48 128 0 -2
BITMAP 
000000000000
000000000000
000000000000
000000000000
000000000000
000000000000
000000000000
000000000000
000000000000
000000000000
000000000000
000000000000
000000000000
000000000000
000000000000
000000000000
000000000000
000000000000
000000000000
000000000000
000000000000
000000000000
000000000000
000000000000
000000000000
000000000000
000000000000
000000000000
000000000000
000000000000
000000000000
000000000000
000000000000
000000000000
000000000000
000000000000
000000000000
000000000000
000000000000
000000000000
0007ffffe000
000ffffff000
000ffffff000
000ffffff000
000ffffff000
000ffffff000
000ffffff000
0007ffffe000
00000ff00000
00000ff00000
00000ff00000
00000ff00000
00000ff00000
00000ff00000
00000ff00000
00000ff00000
00000ff00000
00000ff00000
00000ff00000
00000ff00000
00000ff00000
00000ff00000
00000ff00000
00000ff00000
00000ff00000
00000ff00000
00000ff00000
00000ff00000
00000ff00000
00000ff00000
00000ff00000
00000ff00000
00000ff00000
00000ff00000
00000ff00000
00000ff00000
00000ff00000
00000ff00000
00000ff00000
00000ff00000
00000ff00000
00000ff00000
00000ff00000
00000ff00000
00000ff00000
00000ff00000
00000ff00000
00000ff00000
00000ff00000
00000ff00000
00000ff00000
00000ff00000
00000ff00000
00000ff00000
00000ff00000
00000ff00000
0007ffffe000
000ffffff000
000ffffff000
000ffffff000
000ffffff000
000ffffff000
000ffffff000
0007ffffe000
000000000000
000000000000
000000000000
000000000000
000000000000
000000000000
000000000000
000000000000
000000000000
000000000000
000000000000
000000000000
000000000000
000000000000
000000000000
000000000000
000000000000
000000000000
000000000000
000000000000
000000000000
000000000000
000000000000
000000000000
ENDCHAR
STARTCHAR U+004A
ENCODING 74
SWIDTH 3000 0
DWIDTH 48 0
BBX 48 128 0 -2
BITMAP 
000000000000
000000000000
000000000000
000000000000
000000000000
000000000000
000000000000
000000000000
000000000000
000000000000
000000000000
000000000000
000000000000
000000000000
000000000000
000000000000
000000000000
000000000000
000000000000
000000000000
000000000000
000000000000
000000000000
000000000000
000000000000
000000000000
000000000000
000000000000
000000000000
000000000000
000000000000
000000000000
000000000000
000000000000
000000000000
000000000000
000000000000
000000000000
000000000000
000000000000
000007ffffe0
00000ffffff0
00000ffffff0
00000ffffff0
00000ffffff0
00000fffffe0
00000fffffe0
000007ffffc0
00000000ffc0
00000000ff80
00000000ff80
00000000ff00
00000000ff00
00000000ff00
00000000ff00
00000000ff00
00000000ff00
00000000ff00
00000000ff00
00000000ff00
00000000ff00
00000000ff00
00000000ff00
00000000ff00
00000000ff00
00000000ff00
00000000ff00
00000000ff00
00000000ff00
00000000ff00
00000000ff00
00000000ff00
00000000ff00
00000000ff00
00000000ff00
00000000ff00
00000000ff00
00000000ff00
00000000ff00
00000000ff00
00000000ff00
00000000ff00
00000000ff00
00000000ff00
007e0000ff00
00ff0000ff00
00ff0000ff00
00ff0000ff00
00ff0000ff00
00ff8001ff00
00ff8001ff00
00ffc003ff00
00ffc003ff00
007fe007fe00
007ff81ffe00
003ffe7ffc00
001ffffff800
000ffffff000
0007ffffe000
0003ffffc000
0001ffff8000
0000ffff0000
00007ffe0000
00001ff80000
000000000000
000000000000
000000000000
000000000000
000000000000
000000000000
000000000000
000000000000
000000000000
000000000000
000000000000
000000000000
000000000000
000000000000
000000000000
000000000000
000000000000
000000000000
000000000000
000000000000
000000000000
000000000000
000000000000
000000000000
ENDCHAR
STARTCHAR U+004B
ENCODING 75
SWIDTH 3000 0
DWIDTH 48 0
BBX 48 128 0 -2
BITMAP 
000000000000
000000000000
000000000000
000000000000
000000000000
000000000000
000000000000
000000000000
000000000000
000000000000
000000000000
000000000000
000000000000
000000000000
000000000000
000000000000
000000000000
000000000000
000000000000
000000000000
000000000000
000000000000
000000000000
000000000000
000000000000
000000000000
000000000000
000000000000
000000000000
000000000000
000000000000
000000000000
000000000000
000000000000
000000000000
000000000000
000000000000
000000000000
000000000000
000000000000
007e000001e0
00ff000007f0
00ff00000ff0
00ff00001ff0
00ff00003ff0
00ff00007fe0
00ff00007fe0
00ff0000ffc0
00ff0000ffc0
00ff0001ff80
00ff0001ff80
00ff0003ff00
00ff0003ff00
00ff0007fe00
00ff0007fe00
00ff000ffc00
00ff000ffc00
00ff001ff800
00ff001ff800
00ff003ff000
00ff003ff000
00ff007fe000
00ff007fe000
00ff00ffc000
00ff00ff8000
00ff00ff0000
00ff00fe0000
00ff00fc0000
00fffff80000
00fffff00000
00fffff00000
00fffff80000
00fffffc0000
00fffffe0000
00ffffff0000
00ffffff8000
00ff07ffc000
00ff01ffe000
00ff007fe000
00ff003ff000
00ff003ff000
00ff001ff800
00ff001ff800
00ff000ffc00
00ff000ffc00
00ff0007fe00
00ff0007fe00
00ff0003ff00
00ff0003ff00
00ff0001ff80
00ff0001ff80
00ff0000ffc0
00ff0000ffc0
00ff00007fe0
00ff00007fe0
00ff00003ff0
00ff00003ff0
00ff00001ff0
00ff00001ff0
00ff00000ff0
00ff00000fff
00ff00000fff
00ff00000fff
007e000007ff
000000000000
000000000000
000000000000
000000000000
000000000000
000000000000
000000000000
000000000000
000000000000
000000000000
000000000000
000000000000
000000000000
000000000000
000000000000
000000000000
000000000000
000000000000
000000000000
000000000000
000000000000
000000000000
000000000000
000000000000
ENDCHAR
STARTCHAR U+004C
ENCODING 76
SWIDTH 3000 0
DWIDTH 48 0
BBX 48 128 0 -2
BITMAP 
000000000000
000000000000
000000000000
000000000000
000000000000
000000000000
000000000000
000000000000
000000000000
000000000000
000000000000
000000000000
000000000000
000000000000
000000000000
000000000000
000000000000
000000000000
000000000000
000000000000
000000000000
000000000000
000000000000
000000000000
000000000000
000000000000
000000000000
000000000000
000000000000
000000000000
000000000000
000000000000
000000000000
000000000000
000000000000
000000000000
000000000000
000000000000
000000000000
000000000000
007e00000000
00ff00000000
00ff00000000
00ff00000000
00ff00000000
00ff00000000
00ff00000000
00ff00000000
00ff00000000
00ff00000000
00ff00000000
00ff00000000
00ff00000000
00ff00000000
00ff00000000
00ff00000000
00ff00000000
00ff00000000
00ff00000000
00ff00000000
00ff00000000
00ff00000000
00ff00000000
00ff00000000
00ff00000000
00ff00000000
00ff00000000
00ff00000000
00ff00000000
00ff00000000
00ff00000000
00ff00000000
00ff00000000
00ff00000000
00ff00000000
00ff00000000
00ff00000000
00ff00000000
00ff00000000
00ff00000000
00ff00000000
00ff00000000
00ff00000000
00ff00000000
00ff00000000
00ff00000000
00ff00000000
00ff00000000
00ff00000000
00ff00000000
00ff00000000
00ff00000000
00ff00000000
00ff00000000
00ff00000000
00ff00000000
00ffffffffe0
00fffffffff0
00fffffffff0
00fffffffff0
00fffffffff0
00fffffffff0
00fffffffff0
007fffffffe0
000000000000
000000000000
000000000000
000000000000
000000000000
000000000000
000000000000
000000000000
000000000000
000000000000
000000000000
000000000000
000000000000
000000000000
000000000000
000000000000
000000000000
000000000000
000000000000
000000000000
000000000000
000000000000
000000000000
000000000000
ENDCHAR
STARTCHAR U+004D
ENCODING 77
SWIDTH 3000 0
DWIDTH 48 0
BBX 48 128 0 -2
BITMAP 
000000000000
000000000000
000000000000
000000000000
000000000000
000000000000
000000000000
000000000000
000000000000
000000000000
000000000000
000000000000
000000000000
000000000000
000000000000
000000000000
000000000000
000000000000
000000000000
000000000000
000000000000
000000000000
000000000000
000000000000
000000000000
000000000000
000000000000
000000000000
000000000000
000000000000
000000000000
000000000000
000000000000
000000000000
000000000000
000000000000
000000000000
000000000000
000000000000
000000000000
07e0000007e0
0ff000000ff0
0ff000000ff0
0ff000000ff0
0ff000000ff0
0ff800001ff0
0ff800001ff0
0ffc00003ff0
0ffc00003ff0
0ffe00007ff0
0fff0000fff0
0fff8001fff0
0fffc003fff0
0fffe007fff0
0ffff81ffff0
0ffffe7ffff0
0ff1ffff8ff0
0ff0ffff0ff0
0ff07ffe0ff0
0ff03ffc0ff0
0ff03ffc0ff0
0ff01ff80ff0
0ff01ff80ff0
0ff00ff00ff0
0ff00ff00ff0
0ff00ff00ff0
0ff00ff00ff0
0ff00ff00ff0
0ff00ff00ff0
0ff00ff00ff0
0ff00ff00ff0
0ff00ff00ff0
0ff00ff00ff0
0ff00ff00ff0
0ff00ff00ff0
0ff007e00ff0
0ff000000ff0
0ff000000ff0
0ff000000ff0
0ff000000ff0
0ff000000ff0
0ff000000ff0
0ff000000ff0
0ff000000ff0
0ff000000ff0
0ff000000ff0
0ff000000ff0
0ff000000ff0
0ff000000ff0
0ff000000ff0
0ff000000ff0
0ff000000ff0
0ff000000ff0
0ff000000ff0
0ff000000ff0
0ff000000ff0
0ff000000ff0
0ff000000ff0
0ff000000ff0
0ff000000ff0
0ff000000ff0
0ff000000ff0
0ff000000ff0
07e0000007e0
000000000000
000000000000
000000000000
000000000000
000000000000
000000000000
000000000000
000000000000
000000000000
000000000000
000000000000
000000000000
000000000000
000000000000
000000000000
000000000000
000000000000
000000000000
000000000000
000000000000
000000000000
000000000000
000000000000
000000000000
ENDCHAR
STARTCHAR U+004E
ENCODING 78
SWIDTH 3000 0
DWIDTH 48 0
BBX 48 128 0 -2
BITMAP 
000000000000
000000000000
000000000000
000000000000
000000000000
000000000000
000000000000
000000000000
000000000000
000000000000
000000000000
000000000000
000000000000
000000000000
000000000000
000000000000
000000000000
000000000000
000000000000
000000000000
000000000000
000000000000
000000000000
000000000000
000000000000
000000000000
000000000000
000000000000
000000000000
000000000000
000000000000
000000000000
000000000000
000000000000
000000000000
000000000000
000000000000
000000000000
000000000000
000000000000
007e000007e0
00ff00000ff0
00ff00000ff0
00ff00000ff0
00ff00000ff0
00ff80000ff0
00ff80000ff0
00ffc0000ff0
00ffc0000ff0
00ffe0000ff0
00ffe0000ff0
00fff0000ff0
00fff0000ff0
00fff8000ff0
00fff8000ff0
00fffc000ff0
00fffc000ff0
00fffe000ff0
00fffe000ff0
00ffff000ff0
00ffff000ff0
00ffff800ff0
00ffff800ff0
00ffffc00ff0
00ff0fc00ff0
00ff0fe00ff0
00ff0fe00ff0
00ff0ff00ff0
00ff0ff00ff0
00ff07f80ff0
00ff07f80ff0
00ff03fc0ff0
00ff03fc0ff0
00ff01fe0ff0
00ff01fe0ff0
00ff00ff0ff0
00ff00ff0ff0
00ff007f0ff0
00ff007f0ff0
00ff003f0ff0
00ff003ffff0
00ff001ffff0
00ff001ffff0
00ff000ffff0
00ff000ffff0
00ff0007fff0
00ff0007fff0
00ff0003fff0
00ff0003fff0
00ff0001fff0
00ff0001fff0
00ff0000fff0
00ff0000fff0
00ff00007ff0
00ff00007ff0
00ff00003ff0
00ff00003ff0
00ff00001ff0
00ff00001ff0
00ff00000ff0
00ff00000ff0
00ff00000ff0
00ff00000ff0
007e000007e0
000000000000
000000000000
000000000000
000000000000
000000000000
000000000000
000000000000
000000000000
000000000000
000000000000
000000000000
000000000000
000000000000
000000000000
000000000000
000000000000
000000000000
000000000000
000000000000
000000000000
000000000000
000000000000
000000000000
000000000000
ENDCHAR
STARTCHAR U+004F
ENCODING 79
SWIDTH 3000 0
DWIDTH 48 0
BBX 48 128 0 -2
BITMAP 
000000000000
000000000000
000000000000
000000000000
000000000000
000000000000
000000000000
000000000000
000000000000
000000000000
000000000000
000000000000
000000000000
000000000000
000000000000
000000000000
000000000000
000000000000
000000000000
000000000000
000000000000
000000000000
000000000000
000000000000
000000000000
000000000000
000000000000
000000000000
000000000000
000000000000
000000000000
000000000000
000000000000
000000000000
000000000000
000000000000
000000000000
000000000000
000000000000
000000000000
00001fff8000
00007fffe000
0000fffff000
0001fffff800
0003fffffc00
0007fffffe00
000fffffff00
001fffffff80
003ffe07ffc0
007ff801ffe0
007fe0007fe0
00ffc0003ff0
00ffc0003ff0
00ff80001ff0
00ff80001ff0
00ff00000ff0
00ff00000ff0
00ff00000ff0
00ff00000ff0
00ff00000ff0
00ff00000ff0
00ff00000ff0
00ff00000ff0
00ff00000ff0
00ff00000ff0
00ff00000ff0
00ff00000ff0
00ff00000ff0
00ff00000ff0
00ff00000ff0
00ff00000ff0
00ff00000ff0
00ff00000ff0
00ff00000ff0
00ff00000ff0
00ff00000ff0
00ff00000ff0
00ff00000ff0
00ff00000ff0
00ff00000ff0
00ff00000ff0
00ff00000ff0
00ff00000ff0
00ff00000ff0
00ff00000ff0
00ff00000ff0
00ff00000ff0
00ff00000ff0
00ff00000ff0
00ff80001ff0
00ff80001ff0
00ffc0003ff0
00ffc0003ff0
007fe0007fe0
007ff801ffe0
003ffe07ffc0
001fffffff80
000fffffff00
0007fffffe00
0003fffffc00
0001fffff800
0000fffff000
00007fffe000
00001fff8000
000000000000
000000000000
000000000000
000000000000
000000000000
000000000000
000000000000
000000000000
000000000000
000000000000
000000000000
000000000000
000000000000
000000000000
000000000000
000000000000
000000000000
000000000000
000000000000
000000000000
000000000000
000000000000
000000000000
000000000000
ENDCHAR
STARTCHAR U+0050
ENCODING 80
SWIDTH 3000 0
DWIDTH 48 0
BBX 48 128 0 -2
BITMAP 
000000000000
000000000000
000000000000
000000000000
000000000000
000000000000
000000000000
000000000000
000000000000
000000000000
000000000000
000000000000
000000000000
000000000000
000000000000
000000000000
000000000000
000000000000
000000000000
000000000000
000000000000
000000000000
000000000000
000000000000
000000000000
000000000000
000000000000
000000000000
000000000000
000000000000
000000000000
000000000000
000000000000
000000000000
000000000000
000000000000
000000000000
000000000000
000000000000
000000000000
007fffff8000
00ffffffe000
00fffffff000
00fffffff800
00fffffffc00
00fffffffe00
00ffffffff00
00ffffffff80
00ff0007ffc0
00ff0001ffe0
00ff00007fe0
00ff00003ff0
00ff00003ff0
00ff00001ff0
00ff00001ff0
00ff00000ff0
00ff00000ff0
00ff00000ff0
00ff00000ff0
00ff00000ff0
00ff00000ff0
00ff00000ff0
00ff00000ff0
00ff00000ff0
00ff00000ff0
00ff00001ff0
00ff00001ff0
00ff00003ff0
00ff00003ff0
00ff00007fe0
00ff0001ffe0
00ff0007ffc0
00ffffffff80
00ffffffff00
00fffffffe00
00fffffffc00
00fffffff800
00fffffff000
00ffffffe000
00ffffff8000
00ff00000000
00ff00000000
00ff00000000
00ff00000000
00ff00000000
00ff00000000
00ff00000000
00ff00000000
00ff00000000
00ff00000000
00ff00000000
00ff00000000
00ff00000000
00ff00000000
00ff00000000
00ff00000000
00ff00000000
00ff00000000
00ff00000000
00ff00000000
00ff00000000
00ff00000000
00ff00000000
007e00000000
000000000000
000000000000
000000000000
000000000000
000000000000
000000000000
000000000000
000000000000
000000000000
000000000000
000000000000
000000000000
000000000000
000000000000
000000000000
000000000000
000000000000
000000000000
000000000000
000000000000
000000000000
000000000000
000000000000
000000000000
ENDCHAR
STARTCHAR U+0051
ENCODING 81
SWIDTH 3000 0
DWIDTH 48 0
BBX 48 128 0 -2
BITMAP 
000000000000
000000000000
000000000000
000000000000
000000000000
000000000000
000000000000
000000000000
000000000000
000000000000
000000000000
000000000000
000000000000
000000000000
000000000000
000000000000
000000000000
000000000000
000000000000
000000000000
000000000000
000000000000
000000000000
000000000000
000000000000
000000000000
000000000000
000000000000
000000000000
000000000000
000000000000
000000000000
000000000000
000000000000
000000000000
000000000000
000000000000
000000000000
000000000000
000000000000
00001fff8000
00007fffe000
0000fffff000
0001fffff800
0003fffffc00
0007fffffe00
000fffffff00
001fffffff80
003ffe07ffc0
007ff801ffe0
007fe0007fe0
00ffc0003ff0
00ffc0003ff0
00ff80001ff0
00ff80001ff0
00ff00000ff0
00ff00000ff0
00ff00000ff0
00ff00000ff0
00ff00000ff0
00ff00000ff0
00ff00000ff0
00ff00000ff0
00ff00000ff0
00ff00000ff0
00ff00000ff0
00ff00000ff0
00ff00000ff0
00ff00000ff0
00ff00000ff0
00ff00000ff0
00ff00000ff0
00ff00000ff0
00ff00000ff0
00ff00000ff0
00ff00000ff0
00ff00000ff0
00ff00000ff0
00ff00000ff0
00ff00000ff0
00ff00000ff0
00ff00000ff0
00ff00000ff0
00ff00000ff0
00ff00000ff0
00ff00000ff0
00ff00000ff0
00ff00000ff0
00ff00000ff0
00ff80001ff0
00ff80001ff0
00ffc0003ff0
00ffc0003ff0
007fe0007fe0
007ff801ffe0
003ffe07ffc0
001fffffff80
000fffffff00
0007fffffe00
0003fffffc00
0001fffff800
0000fffff000
00007ffff000
00001ffff800
0000007ffc00
0000001ffe00
00000007fe00
00000003ff00
00000001ff00
00000000ff00
000000007f00
000000001e00
000000000000
000000000000
000000000000
000000000000
000000000000
000000000000
000000000000
000000000000
000000000000
000000000000
000000000000
000000000000
000000000000
000000000000
000000000000
000000000000
ENDCHAR
STARTCHAR U+0052
ENCODING 82
SWIDTH 3000 0
DWIDTH 48 0
BBX 48 128 0 -2
BITMAP 
000000000000
000000000000
000000000000
000000000000
000000000000
000000000000
000000000000
000000000000
000000000000
000000000000
000000000000
000000000000
000000000000
000000000000
000000000000
000000000000
000000000000
000000000000
000000000000
000000000000
000000000000
000000000000
000000000000
000000000000
000000000000
000000000000
000000000000
000000000000
000000000000
000000000000
000000000000
000000000000
000000000000
000000000000
000000000000
000000000000
000000000000
000000000000
000000000000
000000000000
007fffff8000
00ffffffe000
00fffffff000
00fffffff800
00fffffffc00
00fffffffe00
00ffffffff00
00ffffffff80
00ff0007ffc0
00ff0001ffe0
00ff00007fe0
00ff00003ff0
00ff00003ff0
00ff00001ff0
00ff00001ff0
00ff00000ff0
00ff00000ff0
00ff00000ff0
00ff00000ff0
00ff00000ff0
00ff00000ff0
00ff00000ff0
00ff00000ff0
00ff00000ff0
00ff00000ff0
00ff00001ff0
00ff00001ff0
00ff00003ff0
00ff00003ff0
00ff00007fe0
00ff0001ffe0
00ff0007ffc0
00ffffffff80
00ffffffff00
00fffffffe00
00fffffffc00
00fffffff800
00fffffff000
00ffffffe000
00ffffffc000
00ff07ff8000
00ff01ff0000
00ff007f0000
00ff003f8000
00ff003fc000
00ff001fe000
00ff001ff000
00ff000ff800
00ff000ffc00
00ff0007fe00
00ff0007fe00
00ff0003ff00
00ff0001ff00
00ff0000ff80
00ff00007f80
00ff00003fc0
00ff00003fc0
00ff00001fe0
00ff00001fe0
00ff00000ff0
00ff00000ff0
00ff00000ff0
00ff00000ff0
007e000007e0
000000000000
000000000000
000000000000
000000000000
000000000000
000000000000
000000000000
000000000000
000000000000
000000000000
000000000000
000000000000
000000000000
000000000000
000000000000
000000000000
000000000000
000000000000
000000000000
000000000000
000000000000
000000000000
000000000000
000000000000
ENDCHAR
STARTCHAR U+0053
ENCODING 83
SWIDTH 3000 0
DWIDTH 48 0
BBX 48 128 0 -2
BITMAP 
000000000000
000000000000
000000000000
000000000000
000000000000
000000000000
000000000000
000000000000
000000000000
000000000000
000000000000
000000000000
000000000000
000000000000
000000000000
000000000000
000000000000
000000000000
000000000000
000000000000
000000000000
000000000000
000000000000
000000000000
000000000000
000000000000
000000000000
000000000000
000000000000
000000000000
000000000000
000000000000
000000000000
000000000000
000000000000
000000000000
000000000000
000000000000
000000000000
000000000000
00001fff8000
00007fffe000
0000fffff000
0001fffff800
0003fffffc00
0007fffffe00
000fffffff00
001fffffff80
003ffe07ffc0
007ff801ffe0
007fe0007fe0
00ffc0003ff0
00ffc0001ff0
00ff80000ff0
00ff800007f0
00ff000001e0
00ff00000000
00ff80000000
00ff80000000
00ffc0000000
00ffc0000000
007fe0000000
007ff0000000
003ff8000000
001ffc000000
000ffe000000
0007ff800000
0003ffe00000
0001fff80000
0000fffe0000
00007fff0000
00003fff8000
00001fffc000
00000fffe000
000007fff000
000001fff800
0000007ffc00
0000001ffe00
00000007ff00
00000003ff80
00000001ffc0
00000000ffe0
000000007fe0
000000003ff0
000000003ff0
000000001ff0
000000001ff0
000000000ff0
007800000ff0
00fe00001ff0
00ff00001ff0
00ff80003ff0
00ffc0003ff0
007fe0007fe0
007ff801ffe0
003ffe07ffc0
001fffffff80
000fffffff00
0007fffffe00
0003fffffc00
0001fffff800
0000fffff000
00007fffe000
00001fff8000
000000000000
000000000000
000000000000
000000000000
000000000000
000000000000
000000000000
000000000000
000000000000
000000000000
000000000000
000000000000
000000000000
000000000000
000000000000
000000000000
000000000000
000000000000
000000000000
000000000000
000000000000
000000000000
000000000000
000000000000
ENDCHAR
STARTCHAR U+0054
ENCODING 84
SWIDTH 3000 0
DWIDTH 48 0
BBX 48 128 0 -2
BITMAP 
000000000000
000000000000
000000000000
000000000000
000000000000
000000000000
000000000000
000000000000
000000000000
000000000000
000000000000
000000000000
000000000000
000000000000
000000000000
000000000000
000000000000
000000000000
000000000000
000000000000
000000000000
000000000000
000000000000
000000000000
000000000000
000000000000
000000000000
000000000000
000000000000
000000000000
000000000000
000000000000
000000000000
000000000000
000000000000
000000000000
000000000000
000000000000
000000000000
000000000000
07ffffffffe0
0ffffffffff0
0ffffffffff0
0ffffffffff0
0ffffffffff0
0ffffffffff0
0ffffffffff0
07ffffffffe0
00000ff00000
00000ff00000
00000ff00000
00000ff00000
00000ff00000
00000ff00000
00000ff00000
00000ff00000
00000ff00000
00000ff00000
00000ff00000
00000ff00000
00000ff00000
00000ff00000
00000ff00000
00000ff00000
00000ff00000
00000ff00000
00000ff00000
00000ff00000
00000ff00000
00000ff00000
00000ff00000
00000ff00000
00000ff00000
00000ff00000
00000ff00000
00000ff00000
00000ff00000
00000ff00000
00000ff00000
00000ff00000
00000ff00000
00000ff00000
00000ff00000
00000ff00000
00000ff00000
00000ff00000
00000ff00000
00000ff00000
00000ff00000
00000ff00000
00000ff00000
00000ff00000
00000ff00000
00000ff00000
00000ff00000
00000ff00000
00000ff00000
00000ff00000
00000ff00000
00000ff00000
00000ff00000
00000ff00000
00000ff00000
000007e00000
000000000000
000000000000
000000000000
000000000000
000000000000
000000000000
000000000000
000000000000
000000000000
000000000000
000000000000
000000000000
000000000000
000000000000
000000000000
000000000000
000000000000
000000000000
000000000000
000000000000
000000000000
000000000000
000000000000
000000000000
ENDCHAR
STARTCHAR U+0055
ENCODING 85
SWIDTH 3000 0
DWIDTH 48 0
BBX 48 128 0 -2
BITMAP 
000000000000
000000000000
000000000000
000000000000
000000000000
000000000000
000000000000
000000000000
000000000000
000000000000
000000000000
000000000000
000000000000
000000000000
000000000000
000000000000
000000000000
000000000000
000000000000
000000000000
000000000000
000000000000
000000000000
000000000000
000000000000
000000000000
000000000000
000000000000
000000000000
000000000000
000000000000
000000000000
000000000000
000000000000
000000000000
000000000000
000000000000
000000000000
000000000000
000000000000
007e000007e0
00ff00000ff0
00ff00000ff0
00ff00000ff0
00ff00000ff0
00ff00000ff0
00ff00000ff0
00ff00000ff0
00ff00000ff0
00ff00000ff0
00ff00000ff0
00ff00000ff0
00ff00000ff0
00ff00000ff0
00ff00000ff0
00ff00000ff0
00ff00000ff0
00ff00000ff0
00ff00000ff0
00ff00000ff0
00ff00000ff0
00ff00000ff0
00ff00000ff0
00ff00000ff0
00ff00000ff0
00ff00000ff0
00ff00000ff0
00ff00000ff0
00ff00000ff0
00ff00000ff0
00ff00000ff0
00ff00000ff0
00ff00000ff0
00ff00000ff0
00ff00000ff0
00ff00000ff0
00ff00000ff0
00ff00000ff0
00ff00000ff0
00ff00000ff0
00ff00000ff0
00ff00000ff0
00ff00000ff0
00ff00000ff0
00ff00000ff0
00ff00000ff0
00ff00000ff0
00ff00000ff0
00ff00000ff0
00ff80001ff0
00ff80001ff0
00ffc0003ff0
00ffc0003ff0
007fe0007fe0
007ff801ffe0
003ffe07ffc0
001fffffff80
000fffffff00
0007fffffe00
0003fffffc00
0001fffff800
0000fffff000
00007fffe000
00001fff8000
000000000000
000000000000
000000000000
000000000000
000000000000
000000000000
000000000000
000000000000
000000000000
000000000000
000000000000
000000000000
000000000000
000000000000
000000000000
000000000000
000000000000
000000000000
000000000000
000000000000
000000000000
000000000000
000000000000
000000000000
ENDCHAR
STARTCHAR U+0056
ENCODING 86
SWIDTH 3000 0
DWIDTH 48 0
BBX 48 128 0 -2
BITMAP 
000000000000
000000000000
000000000000
000000000000
000000000000
000000000000
000000000000
000000000000
000000000000
000000000000
000000000000
000000000000
000000000000
000000000000
000000000000
000000000000
000000000000
000000000000
000000000000
000000000000
000000000000
000000000000
000000000000
000000000000
000000000000
000000000000
000000000000
000000000000
000000000000
000000000000
000000000000
000000000000
000000000000
000000000000
000000000000
000000000000
000000000000
000000000000
000000000000
000000000000
007e000007e0
00ff00000ff0
00ff00000ff0
00ff00000ff0
00ff00000ff0
00ff00000ff0
00ff00000ff0
00ff00000ff0
00ff00000ff0
00ff00000ff0
00ff00000ff0
00ff00000ff0
00ff00000ff0
00ff00000ff0
00ff00000ff0
00ff00000ff0
00ff00000ff0
007f80001fe0
007f80001fe0
003fc0003fc0
003fc0003fc0
001fe0007f80
001fe0007f80
000ff000ff00
000ff000ff00
000ff000ff00
000ff000ff00
000ff000ff00
000ff000ff00
000ff000ff00
000ff000ff00
000ff000ff00
000ff000ff00
000ff000ff00
000ff000ff00
000ff000ff00
000ff000ff00
0007f801fe00
0007f801fe00
0003fc03fc00
0003fc03fc00
0001fe07f800
0001fe07f800
0000ff0ff000
0000ff0ff000
0000ff0ff000
0000ff0ff000
0000ff0ff000
0000ff0ff000
00007f0fe000
00007f0fe000
00003f0fc000
00003fffc000
00001fff8000
00001fff8000
00000fff0000
00000fff0000
00000fff0000
00000fff0000
00000fff0000
00000fff0000
00000fff0000
00000fff0000
000007fe0000
000000000000
000000000000
000000000000
000000000000
000000000000
000000000000
000000000000
000000000000
000000000000
000000000000
000000000000
000000000000
000000000000
000000000000
000000000000
000000000000
000000000000
000000000000
000000000000
000000000000
000000000000
000000000000
000000000000
000000000000
ENDCHAR
STARTCHAR U+0057
ENCODING 87
SWIDTH 3000 0
DWIDTH 48 0
BBX 48 128 0 -2
BITMAP 
000000000000
000000000000
000000000000
000000000000
000000000000
000000000000
000000000000
000000000000
000000000000
000000000000
000000000000
000000000000
000000000000
000000000000
000000000000
000000000000
000000000000
000000000000
000000000000
000000000000
000000000000
000000000000
000000000000
000000000000
000000000000
000000000000
000000000000
000000000000
000000000000
000000000000
000000000000
000000000000
000000000000
000000000000
000000000000
000000000000
000000000000
000000000000
000000000000
000000000000
07e0000007e0
0ff000000ff0
0ff000000ff0
0ff000000ff0
0ff000000ff0
0ff000000ff0
0ff000000ff0
0ff000000ff0
0ff000000ff0
0ff000000ff0
0ff000000ff0
0ff000000ff0
0ff000000ff0
0ff000000ff0
0ff000000ff0
0ff000000ff0
0ff000000ff0
0ff000000ff0
0ff000000ff0
0ff000000ff0
0ff000000ff0
0ff000000ff0
0ff000000ff0
0ff000000ff0
0ff000000ff0
0ff000000ff0
0ff000000ff0
0ff000000ff0
0ff000000ff0
0ff000000ff0
0ff000000ff0
0ff000000ff0
0ff007e00ff0
0ff00ff00ff0
0ff00ff00ff0
0ff00ff00ff0
0ff00ff00ff0
0ff00ff00ff0
0ff00ff00ff0
0ff00ff00ff0
0ff00ff00ff0
0ff01ff80ff0
0ff01ff80ff0
0ff03ffc0ff0
0ff03ffc0ff0
0ff07ffe0ff0
0ff07ffe0ff0
0ff0ffff0ff0
0ff0f00f0ff0
0ff0f00f0ff0
0ff0f00f0ff0
0ff0f00f0ff0
0ffff00ffff0
07ffe007ffe0
07ffe007ffe0
03ffc003ffc0
03ffc003ffc0
01ff8001ff80
01ff8001ff80
00ff0000ff00
00ff0000ff00
00ff0000ff00
00ff0000ff00
007e00007e00
000000000000
000000000000
000000000000
000000000000
000000000000
000000000000
000000000000
000000000000
000000000000
000000000000
000000000000
000000000000
000000000000
000000000000
000000000000
000000000000
000000000000
000000000000
000000000000
000000000000
000000000000
000000000000
000000000000
000000000000
ENDCHAR
STARTCHAR U+0058
ENCODING 88
SWIDTH 3000 0
DWIDTH 48 0
BBX 48 128 0 -2
BITMAP 
000000000000
000000000000
000000000000
000000000000
000000000000
000000000000
000000000000
000000000000
000000000000
000000000000
000000000000
000000000000
000000000000
000000000000
000000000000
000000000000
000000000000
000000000000
000000000000
000000000000
000000000000
000000000000
000000000000
000000000000
000000000000
000000000000
000000000000
000000000000
000000000000
000000000000
000000000000
000000000000
000000000000
000000000000
000000000000
000000000000
000000000000
000000000000
000000000000
000000000000
007e000007e0
00ff00000ff0
00ff00000ff0
00ff00000ff0
00ff00000ff0
00ff00000ff0
00ff00000ff0
00ff00000ff0
00ff00000ff0
007f80001fe0
007f80001fe0
003fc0003fc0
003fc0003fc0
001fe0007f80
001fe0007f80
000ff000ff00
000ff000ff00
0007f801fe00
0007f801fe00
0003fc03fc00
0003fc03fc00
0001fe07f800
0001fe07f800
0000ff0ff000
0000ff0ff000
00007f0fe000
00007f0fe000
00003f0fc000
00003fffc000
00001fff8000
00001fff8000
00000fff0000
00000fff0000
00001fff8000
00001fff8000
00003fffc000
00003f0fc000
00007f0fe000
00007f0fe000
0000ff0ff000
0000ff0ff000
0001fe07f800
0001fe07f800
0003fc03fc00
0003fc03fc00
0007f801fe00
0007f801fe00
000ff000ff00
000ff000ff00
001fe0007f80
001fe0007f80
003fc0003fc0
003fc0003fc0
007f80001fe0
007f80001fe0
00ff00000ff0
00ff00000ff0
00ff00000ff0
00ff00000ff0
00ff00000ff0
00ff00000ff0
00ff00000ff0
00ff00000ff0
007e000007e0
000000000000
000000000000
000000000000
000000000000
000000000000
000000000000
000000000000
000000000000
000000000000
000000000000
000000000000
000000000000
000000000000
000000000000
000000000000
000000000000
000000000000
000000000000
000000000000
000000000000
000000000000
000000000000
000000000000
000000000000
ENDCHAR
STARTCHAR U+0059
ENCODING 89
SWIDTH 3000 0
DWIDTH 48 0
BBX 48 128 0 -2
BITMAP 
000000000000
000000000000
000000000000
000000000000
000000000000
000000000000
000000000000
000000000000
000000000000
000000000000
000000000000
000000000000
000000000000
000000000000
000000000000
000000000000
000000000000
000000000000
000000000000
000000000000
000000000000
000000000000
000000000000
000000000000
000000000000
000000000000
000000000000
000000000000
000000000000
000000000000
000000000000
000000000000
000000000000
000000000000
000000000000
000000000000
000000000000
000000000000
000000000000
000000000000
07e0000007e0
0ff000000ff0
0ff000000ff0
0ff000000ff0
0ff000000ff0
0ff000000ff0
0ff000000ff0
0ff000000ff0
0ff000000ff0
07f800001fe0
07f800001fe0
03fc00003fc0
03fc00003fc0
01fe00007f80
01fe00007f80
00ff0000ff00
00ff0000ff00
007f8001fe00
007f8001fe00
003fc003fc00
003fc003fc00
001fe007f800
001fe007f800
000ff00ff000
000ff00ff000
0007f00fe000
0007f00fe000
0003f00fc000
0001ffff8000
0000ffff0000
00007ffe0000
00003ffc0000
00003ffc0000
00001ff80000
00001ff80000
00000ff00000
00000ff00000
00000ff00000
00000ff00000
00000ff00000
00000ff00000
00000ff00000
00000ff00000
00000ff00000
00000ff00000
00000ff00000
00000ff00000
00000ff00000
00000ff00000
00000ff00000
00000ff00000
00000ff00000
00000ff00000
00000ff00000
00000ff00000
00000ff00000
00000ff00000
00000ff00000
00000ff00000
00000ff00000
00000ff00000
00000ff00000
00000ff00000
000007e00000
000000000000
000000000000
000000000000
000000000000
000000000000
000000000000
000000000000
000000000000
000000000000
000000000000
000000000000
000000000000
000000000000
000000000000
000000000000
000000000000
000000000000
000000000000
000000000000
000000000000
000000000000
000000000000
000000000000
000000000000
ENDCHAR
STARTCHAR U+005A
ENCODING 90
SWIDTH 3000 0
DWIDTH 48 0
BBX 48 128 0 -2
BITMAP 
000000000000
000000000000
000000000000
000000000000
000000000000
000000000000
000000000000
000000000000
000000000000
000000000000
000000000000
000000000000
000000000000
000000000000
000000000000
000000000000
000000000000
000000000000
000000000000
000000000000
000000000000
000000000000
000000000000
000000000000
000000000000
000000000000
000000000000
000000000000
000000000000
000000000000
000000000000
000000000000
000000000000
000000000000
000000000000
000000000000
000000000000
000000000000
000000000000
000000000000
007fffffffe0
00fffffffff0
00fffffffff0
00fffffffff0
00fffffffff0
00ffffffffe0
00ffffffffe0
007fffffffc0
00000000ffc0
00000000ff80
00000000ff80
00000000ff00
00000000ff00
00000001fe00
00000001fe00
00000003fc00
00000003fc00
00000007f800
00000007f800
0000000ff000
0000000ff000
0000001fe000
0000001fe000
0000003fc000
0000003fc000
0000007f8000
0000007f8000
000000ff0000
000000ff0000
000001fe0000
000001fe0000
000003fc0000
000003fc0000
000007f80000
000007f80000
00000ff00000
00000ff00000
00001fe00000
00001fe00000
00003fc00000
00003fc00000
00007f800000
00007f800000
0000ff000000
0000ff000000
0001fe000000
0001fe000000
0003fc000000
0003fc000000
0007f8000000
0007f8000000
000ff0000000
000ff0000000
001ff0000000
001ff0000000
003ff0000000
003fffffffe0
007ffffffff0
007ffffffff0
00fffffffff0
00fffffffff0
00fffffffff0
00fffffffff0
007fffffffe0
000000000000
000000000000
000000000000
000000000000
000000000000
000000000000
000000000000
000000000000
000000000000
000000000000
000000000000
000000000000
000000000000
000000000000
000000000000
000000000000
000000000000
000000000000
000000000000
000000000000
000000000000
000000000000
000000000000
000000000000
ENDCHAR
STARTCHAR U+005B
ENCODING 91
SWIDTH 3000 0
DWIDTH 48 0
BBX 48 128 0 -2
BITMAP 
000000000000
000000000000
000000000000
000000000000
000000000000
000000000000
000000000000
000000000000
000000000000
000000000000
000000000000
000000000000
000000000000
000000000000
000000000000
000000000000
000000000000
000000000000
000000000000
000000000000
000000000000
000000000000
000000000000
000000000000
000000000000
000000000000
000000000000
000000000000
00007fffe000
0000fffff000
0000fffff000
0000fffff000
0000fffff000
0000fffff000
0000fffff000
0000ffffe000
0000ff000000
0000ff000000
0000ff000000
0000ff000000
0000ff000000
0000ff000000
0000ff000000
0000ff000000
0000ff000000
0000ff000000
0000ff000000
0000ff000000
0000ff000000
0000ff000000
0000ff000000
0000ff000000
0000ff000000
0000ff000000
0000ff000000
0000ff000000
0000ff000000
0000ff000000
0000ff000000
0000ff000000
0000ff000000
0000ff000000
0000ff000000
0000ff000000
0000ff000000
0000ff000000
0000ff000000
0000ff000000
0000ff000000
0000ff000000
0000ff000000
0000ff000000
0000ff000000
0000ff000000
0000ff000000
0000ff000000
0000ff000000
0000ff000000
0000ff000000
0000ff000000
0000ff000000
0000ff000000
0000ff000000
0000ff000000
0000ff000000
0000ff000000
0000ff000000
0000ff000000
0000ff000000
0000ff000000
0000ff000000
0000ff000000
0000ff000000
0000ff000000
0000ff000000
0000ff000000
0000ff000000
0000ff000000
0000ff000000
0000ff000000
0000ff000000
0000ff000000
0000ff000000
0000ff000000
0000ff000000
0000ff000000
0000ff000000
0000ff000000
0000ffffe000
0000fffff000
0000fffff000
0000fffff000
0000fffff000
0000fffff000
0000fffff000
00007fffe000
000000000000
000000000000
000000000000
000000000000
000000000000
000000000000
000000000000
000000000000
000000000000
000000000000
000000000000
000000000000
ENDCHAR
STARTCHAR U+005C
ENCODING 92
SWIDTH 3000 0
DWIDTH 48 0
BBX 48 128 0 -2
BITMAP 
000000000000
000000000000
000000000000
000000000000
000000000000
000000000000
000000000000
000000000000
000000000000
000000000000
000000000000
000000000000
000000000000
000000000000
000000000000
000000000000
000000000000
000000000000
000000000000
000000000000
000000000000
000000000000
000000000000
000000000000
000000000000
000000000000
000000000000
000000000000
000000000000
000000000000
000000000000
000000000000
000000000000
000000000000
000000000000
000000000000
000000000000
000000000000
000000000000
000000000000
007e00000000
00ff00000000
00ff00000000
00ff00000000
00ff00000000
007f80000000
007f80000000
003fc0000000
003fc0000000
001fe0000000
001fe0000000
000ff0000000
000ff0000000
0007f8000000
0007f8000000
0003fc000000
0003fc000000
0001fe000000
0001fe000000
0000ff000000
0000ff000000
00007f800000
00007f800000
00003fc00000
00003fc00000
00001fe00000
00001fe00000
00000ff00000
00000ff00000
000007f80000
000007f80000
000003fc0000
000003fc0000
000001fe0000
000001fe0000
000000ff0000
000000ff0000
0000007f8000
0000007f8000
0000003fc000
0000003fc000
0000001fe000
0000001fe000
0000000ff000
0000000ff000
00000007f800
00000007f800
00000003fc00
00000003fc00
00000001fe00
00000001fe00
00000000ff00
00000000ff00
000000007f80
000000007f80
000000003fc0
000000003fc0
000000001fe0
000000001fe0
000000000ff0
000000000ff0
000000000ff0
000000000ff0
0000000007e0
000000000000
000000000000
000000000000
000000000000
000000000000
000000000000
000000000000
000000000000
000000000000
000000000000
000000000000
000000000000
000000000000
000000000000
000000000000
000000000000
000000000000
000000000000
000000000000
000000000000
000000000000
000000000000
000000000000
000000000000
ENDCHAR
STARTCHAR U+005D
ENCODING 93
SWIDTH 3000 0
DWIDTH 48 0
BBX 48 128 0 -2
BITMAP 
000000000000
000000000000
000000000000
000000000000
000000000000
000000000000
000000000000
000000000000
000000000000
000000000000
000000000000
000000000000
000000000000
000000000000
000000000000
000000000000
000000000000
000000000000
000000000000
000000000000
000000000000
000000000000
000000000000
000000000000
000000000000
000000000000
000000000000
000000000000
00007fffe000
0000fffff000
0000fffff000
0000fffff000
0000fffff000
0000fffff000
0000fffff000
00007ffff000
0000000ff000
0000000ff000
0000000ff000
0000000ff000
0000000ff000
0000000ff000
0000000ff000
0000000ff000
0000000ff000
0000000ff000
0000000ff000
0000000ff000
0000000ff000
0000000ff000
0000000ff000
0000000ff000
0000000ff000
0000000ff000
0000000ff000
0000000ff000
0000000ff000
0000000ff000
0000000ff000
0000000ff000
0000000ff000
0000000ff000
0000000ff000
0000000ff000
0000000ff000
0000000ff000
0000000ff000
0000000ff000
0000000ff000
0000000ff000
0000000ff000
0000000ff000
0000000ff000
0000000ff000
0000000ff000
0000000ff000
0000000ff000
0000000ff000
0000000ff000
0000000ff000
0000000ff000
0000000ff000
0000000ff000
0000000ff000
0000000ff000
0000000ff000
0000000ff000
0000000ff000
0000000ff000
0000000ff000
0000000ff000
0000000ff000
0000000ff000
0000000ff000
0000000ff000
0000000ff000
0000000ff000
0000000ff000
0000000ff000
0000000ff000
0000000ff000
0000000ff000
0000000ff000
0000000ff000
0000000ff000
0000000ff000
0000000ff000
0000000ff000
00007ffff000
0000fffff000
0000fffff000
0000fffff000
0000fffff000
0000fffff000
0000fffff000
00007fffe000
000000000000
000000000000
000000000000
000000000000
000000000000
000000000000
000000000000
000000000000
000000000000
000000000000
000000000000
000000000000
ENDCHAR
STARTCHAR U+005E
ENCODING 94
SWIDTH 3000 0
DWIDTH 48 0
BBX 48 128 0 -2
BITMAP 
000000000000
000000000000
000000000000
000000000000
000000000000
000000000000
000000000000
000000000000
000000000000
000000000000
000000000000
000000000000
000000000000
000000000000
000000000000
000000000000
000000000000
000000600000
000000f00000
000001f80000
000003fc0000
000007fe0000
00000fff0000
00001fff8000
00003f9fc000
00007f0fe000
0000fe07f000
0001fc03f800
0003f801fc00
0007f000fe00
000fe0007f00
001fc0003f80
003f80001fc0
007f00000fe0
00fe000007f0
0078000001e0
000000000000
000000000000
000000000000
000000000000
000000000000
000000000000
000000000000
000000000000
000000000000
000000000000
000000000000
000000000000
000000000000
000000000000
000000000000
000000000000
000000000000
000000000000
000000000000
000000000000
000000000000
000000000000
000000000000
000000000000
000000000000
000000000000
000000000000
000000000000
000000000000
000000000000
000000000000
000000000000
000000000000
000000000000
000000000000
000000000000
000000000000
000000000000
000000000000
000000000000
000000000000
000000000000
000000000000
000000000000
000000000000
000000000000
000000000000
000000000000
000000000000
000000000000
000000000000
000000000000
000000000000
000000000000
000000000000
000000000000
000000000000
000000000000
000000000000
000000000000
000000000000
000000000000
000000000000
000000000000
000000000000
000000000000
000000000000
000000000000
000000000000
000000000000
000000000000
000000000000
000000000000
000000000000
000000000000
000000000000
000000000000
000000000000
000000000000
000000000000
000000000000
000000000000
000000000000
000000000000
000000000000
000000000000
000000000000
000000000000
000000000000
000000000000
000000000000
000000000000
ENDCHAR
STARTCHAR U+005F
ENCODING 95
SWIDTH 3000 0
DWIDTH 48 0
BBX 48 128 0 -2
BITMAP 
000000000000
000000000000
000000000000
000000000000
000000000000
000000000000
000000000000
000000000000
000000000000
000000000000
000000000000
000000000000
000000000000
000000000000
000000000000
000000000000
000000000000
000000000000
000000000000
000000000000
000000000000
000000000000
000000000000
000000000000
000000000000
000000000000
000000000000
000000000000
000000000000
000000000000
000000000000
000000000000
000000000000
000000000000
000000000000
000000000000
000000000000
000000000000
000000000000
000000000000
000000000000
000000000000
000000000000
000000000000
000000000000
000000000000
000000000000
000000000000
000000000000
000000000000
000000000000
000000000000
000000000000
000000000000
000000000000
000000000000
000000000000
000000000000
000000000000
000000000000
000000000000
000000000000
000000000000
000000000000
000000000000
000000000000
000000000000
000000000000
000000000000
000000000000
000000000000
000000000000
000000000000
000000000000
000000000000
000000000000
000000000000
000000000000
000000000000
000000000000
000000000000
000000000000
000000000000
000000000000
000000000000
000000000000
000000000000
000000000000
000000000000
000000000000
000000000000
000000000000
000000000000
000000000000
000000000000
000000000000
000000000000
000000000000
000000000000
000000000000
000000000000
000000000000
000000000000
000000000000
000000000000
000000000000
000000000000
000000000000
ffffffffffff
ffffffffffff
ffffffffffff
ffffffffffff
000000000000
000000000000
000000000000
000000000000
000000000000
000000000000
000000000000
000000000000
000000000000
000000000000
000000000000
000000000000
000000000000
000000000000
000000000000
000000000000
ENDCHAR
STARTCHAR U+0060
ENCODING 96
SWIDTH 3000 0
DWIDTH 48 0
BBX 48 128 0 -2
BITMAP 
000000000000
000000000000
000000000000
000000000000
000000000000
000000000000
000000000000
000000000000
000000000000
000000000000
000000000000
000000000000
000000000000
000000000000
000000000000
000000000000
000000000000
000000000000
000000000000
000000000000
000000000000
000000000000
000000000000
000000000000
000000000000
000000000000
000000000000
000000000000
000000000000
000000000000
000000000000
000000000000
000078000000
0000fe000000
00007f000000
00003f800000
00001fc00000
00000fe00000
000007f00000
000003f80000
000001fc0000
000000fe0000
0000007f0000
0000003f8000
0000001fc000
0000000fe000
00000007f000
00000001e000
000000000000
000000000000
000000000000
000000000000
000000000000
000000000000
000000000000
000000000000
000000000000
000000000000
000000000000
000000000000
000000000000
000000000000
000000000000
000000000000
000000000000
000000000000
000000000000
000000000000
000000000000
000000000000
000000000000
000000000000
000000000000
000000000000
000000000000
000000000000
000000000000
000000000000
000000000000
000000000000
000000000000
000000000000
000000000000
000000000000
000000000000
000000000000
000000000000
000000000000
000000000000
000000000000
000000000000
000000000000
000000000000
000000000000
000000000000
000000000000
000000000000
000000000000
000000000000
000000000000
000000000000
000000000000
000000000000
000000000000
000000000000
000000000000
000000000000
000000000000
000000000000
000000000000
000000000000
000000000000
000000000000
000000000000
000000000000
000000000000
000000000000
000000000000
000000000000
000000000000
000000000000
000000000000
000000000000
000000000000
000000000000
000000000000
000000000000
000000000000
ENDCHAR
STARTCHAR U+0061
ENCODING 97
SWIDTH 3000 0
DWIDTH 48 0
BBX 48 128 0 -2
BITMAP 
000000000000
000000000000
000000000000
000000000000
000000000000
000000000000
000000000000
000000000000
000000000000
000000000000
000000000000
000000000000
000000000000
000000000000
000000000000
000000000000
000000000000
000000000000
000000000000
000000000000
000000000000
000000000000
000000000000
000000000000
000000000000
000000000000
000000000000
000000000000
000000000000
000000000000
000000000000
000000000000
000000000000
000000000000
000000000000
000000000000
000000000000
000000000000
000000000000
000000000000
000000000000
000000000000
000000000000
000000000000
000000000000
000000000000
000000000000
000000000000
000000000000
000000000000
000000000000
000000000000
000000000000
000000000000
000000000000
000000000000
00001fff8000
00007fffe000
0000fffff000
0001fffff800
0003fffffc00
0007fffffe00
000fffffff00
0007ffffff80
00000007ffc0
00000001ffe0
000000007fe0
000000003ff0
000000001ff0
000000000ff0
000000000ff0
000000000ff0
00001ffffff0
00007ffffff0
0000fffffff0
0001fffffff0
0003fffffff0
0007fffffff0
000ffffffff0
001ffffffff0
003ffe000ff0
007ff8000ff0
007fe0000ff0
00ffc0000ff0
00ffc0000ff0
00ff80000ff0
00ff80000ff0
00ff00000ff0
00ff00000ff0
00ff80001ff0
00ff80001ff0
00ffc0003ff0
00ffc0003ff0
007fe0007ff0
007ff801fff0
003ffe07fff0
001ffffffff0
000ffffffff0
0007fffffff0
0003fffffff0
0001ffff9ff0
0000ffff0ff0
00007ffe07f0
00001ff801e0
000000000000
000000000000
000000000000
000000000000
000000000000
000000000000
000000000000
000000000000
000000000000
000000000000
000000000000
000000000000
000000000000
000000000000
000000000000
000000000000
000000000000
000000000000
000000000000
000000000000
000000000000
000000000000
000000000000
000000000000
ENDCHAR
STARTCHAR U+0062
ENCODING 98
SWIDTH 3000 0
DWIDTH 48 0
BBX 48 128 0 -2
BITMAP 
000000000000
000000000000
000000000000
000000000000
000000000000
000000000000
000000000000
000000000000
000000000000
000000000000
000000000000
000000000000
000000000000
000000000000
000000000000
000000000000
000000000000
000000000000
000000000000
000000000000
000000000000
000000000000
000000000000
000000000000
000000000000
000000000000
000000000000
000000000000
000000000000
000000000000
000000000000
000000000000
000000000000
000000000000
000000000000
000000000000
000000000000
000000000000
000000000000
000000000000
007e00000000
00ff00000000
00ff00000000
00ff00000000
00ff00000000
00ff00000000
00ff00000000
00ff00000000
00ff00000000
00ff00000000
00ff00000000
00ff00000000
00ff00000000
00ff00000000
00ff00000000
00ff00000000
00ff01ff8000
00ff07ffe000
00ff0ffff000
00ff1ffff800
00fffffffc00
00fffffffe00
00ffffffff00
00ffffffff80
00fffe07ffc0
00fff801ffe0
00ffe0007fe0
00ffc0003ff0
00ffc0003ff0
00ff80001ff0
00ff80001ff0
00ff00000ff0
00ff00000ff0
00ff00000ff0
00ff00000ff0
00ff00000ff0
00ff00000ff0
00ff00000ff0
00ff00000ff0
00ff00000ff0
00ff00000ff0
00ff00000ff0
00ff00000ff0
00ff00000ff0
00ff00000ff0
00ff00000ff0
00ff00000ff0
00ff00000ff0
00ff00000ff0
00ff80001ff0
00ff80001ff0
00ffc0003ff0
00ffc0003ff0
00ffe0007fe0
00fff801ffe0
00fffe07ffc0
00ffffffff80
00ffffffff00
00fffffffe00
00fffffffc00
00ff9ffff800
00ff0ffff000
00fe07ffe000
007801ff8000
000000000000
000000000000
000000000000
000000000000
000000000000
000000000000
000000000000
000000000000
000000000000
000000000000
000000000000
000000000000
000000000000
000000000000
000000000000
000000000000
000000000000
000000000000
000000000000
000000000000
000000000000
000000000000
000000000000
000000000000
ENDCHAR
STARTCHAR U+0063
ENCODING 99
SWIDTH 3000 0
DWIDTH 48 0
BBX 48 128 0 -2
BITMAP 
000000000000
000000000000
000000000000
000000000000
000000000000
000000000000
000000000000
000000000000
000000000000
000000000000
000000000000
000000000000
000000000000
000000000000
000000000000
000000000000
000000000000
000000000000
000000000000
000000000000
000000000000
000000000000
000000000000
000000000000
000000000000
000000000000
000000000000
000000000000
000000000000
000000000000
000000000000
000000000000
000000000000
000000000000
000000000000
000000000000
000000000000
000000000000
000000000000
000000000000
000000000000
000000000000
000000000000
000000000000
000000000000
000000000000
000000000000
000000000000
000000000000
000000000000
000000000000
000000000000
000000000000
000000000000
000000000000
000000000000
00001fff8000
00007fffe000
0000fffff000
0001fffff800
0003fffffc00
0007fffffe00
000fffffff00
001fffffff80
003ffe07ffc0
007ff801ffe0
007fe0007fe0
00ffc0003ff0
00ffc0001ff0
00ff80000ff0
00ff800007f0
00ff000001e0
00ff00000000
00ff00000000
00ff00000000
00ff00000000
00ff00000000
00ff00000000
00ff00000000
00ff00000000
00ff00000000
00ff00000000
00ff00000000
00ff00000000
00ff00000000
00ff00000000
00ff00000000
00ff00000000
00ff000001e0
00ff800007f0
00ff80000ff0
00ffc0001ff0
00ffc0003ff0
007fe0007fe0
007ff801ffe0
003ffe07ffc0
001fffffff80
000fffffff00
0007fffffe00
0003fffffc00
0001fffff800
0000fffff000
00007fffe000
00001fff8000
000000000000
000000000000
000000000000
000000000000
000000000000
000000000000
000000000000
000000000000
000000000000
000000000000
000000000000
000000000000
000000000000
000000000000
000000000000
000000000000
000000000000
000000000000
000000000000
000000000000
000000000000
000000000000
000000000000
000000000000
ENDCHAR
STARTCHAR U+0064
ENCODING 100
SWIDTH 3000 0
DWIDTH 48 0
BBX 48 128 0 -2
BITMAP 
000000000000
000000000000
000000000000
000000000000
000000000000
000000000000
000000000000
000000000000
000000000000
000000000000
000000000000
000000000000
000000000000
000000000000
000000000000
000000000000
000000000000
000000000000
000000000000
000000000000
000000000000
000000000000
000000000000
000000000000
000000000000
000000000000
000000000000
000000000000
000000000000
000000000000
000000000000
000000000000
000000000000
000000000000
000000000000
000000000000
000000000000
000000000000
000000000000
000000000000
0000000007e0
000000000ff0
000000000ff0
000000000ff0
000000000ff0
000000000ff0
000000000ff0
000000000ff0
000000000ff0
000000000ff0
000000000ff0
000000000ff0
000000000ff0
000000000ff0
000000000ff0
000000000ff0
00001ff80ff0
00007ffe0ff0
0000ffff0ff0
0001ffff8ff0
0003fffffff0
0007fffffff0
000ffffffff0
001ffffffff0
003ffe07fff0
007ff801fff0
007fe0007ff0
00ffc0003ff0
00ffc0003ff0
00ff80001ff0
00ff80001ff0
00ff00000ff0
00ff00000ff0
00ff00000ff0
00ff00000ff0
00ff00000ff0
00ff00000ff0
00ff00000ff0
00ff00000ff0
00ff00000ff0
00ff00000ff0
00ff00000ff0
00ff00000ff0
00ff00000ff0
00ff00000ff0
00ff00000ff0
00ff00000ff0
00ff00000ff0
00ff00000ff0
00ff80001ff0
00ff80001ff0
00ffc0003ff0
00ffc0003ff0
007fe0007ff0
007ff801fff0
003ffe07fff0
001ffffffff0
000ffffffff0
0007fffffff0
0003fffffff0
0001ffff9ff0
0000ffff0ff0
00007ffe07f0
00001ff801e0
000000000000
000000000000
000000000000
000000000000
000000000000
000000000000
000000000000
000000000000
000000000000
000000000000
000000000000
000000000000
000000000000
000000000000
000000000000
000000000000
000000000000
000000000000
000000000000
000000000000
000000000000
000000000000
000000000000
000000000000
ENDCHAR
STARTCHAR U+0065
ENCODING 101
SWIDTH 3000 0
DWIDTH 48 0
BBX 48 128 0 -2
BITMAP 
000000000000
000000000000
000000000000
000000000000
000000000000
000000000000
000000000000
000000000000
000000000000
000000000000
000000000000
000000000000
000000000000
000000000000
000000000000
000000000000
000000000000
000000000000
000000000000
000000000000
000000000000
000000000000
000000000000
000000000000
000000000000
000000000000
000000000000
000000000000
000000000000
000000000000
000000000000
000000000000
000000000000
000000000000
000000000000
000000000000
000000000000
000000000000
000000000000
000000000000
000000000000
000000000000
000000000000
000000000000
000000000000
000000000000
000000000000
000000000000
000000000000
000000000000
000000000000
000000000000
000000000000
000000000000
000000000000
000000000000
00001fff8000
00007fffe000
0000fffff000
0001fffff800
0003fffffc00
0007fffffe00
000fffffff00
001fffffff80
003ffe07ffc0
007ff801ffe0
007fe0007fe0
00ffc0003ff0
00ffc0003ff0
00ff80001ff0
00ff80001ff0
00ff00000ff0
00ff00000ff0
00ff00000ff0
00ff00000ff0
00ff00000ff0
00fffffffff0
00fffffffff0
00fffffffff0
00fffffffff0
00fffffffff0
00fffffffff0
00fffffffff0
00ffffffffe0
00ff00000000
00ff00000000
00ff00000000
00ff00000000
00ff00000000
00ff80000000
00ff80000000
00ffc0000000
00ffc00001e0
007fe00007f0
007ff8001fe0
003ffe007fc0
001fffffff80
000fffffff00
0007fffffe00
0003fffffc00
0001fffff800
0000fffff000
00007fffe000
00001fff8000
000000000000
000000000000
000000000000
000000000000
000000000000
000000000000
000000000000
000000000000
000000000000
000000000000
000000000000
000000000000
000000000000
000000000000
000000000000
000000000000
000000000000
000000000000
000000000000
000000000000
000000000000
000000000000
000000000000
000000000000
ENDCHAR
STARTCHAR U+0066
ENCODING 102
SWIDTH 3000 0
DWIDTH 48 0
BBX 48 128 0 -2
BITMAP 
000000000000
000000000000
000000000000
000000000000
000000000000
000000000000
000000000000
000000000000
000000000000
000000000000
000000000000
000000000000
000000000000
000000000000
000000000000
000000000000
000000000000
000000000000
000000000000
000000000000
000000000000
000000000000
000000000000
000000000000
000000000000
000000000000
000000000000
000000000000
000000000000
000000000000
000000000000
000000000000
000000000000
000000000000
000000000000
000000000000
000000000000
000000000000
000000000000
000000000000
00000001ffe0
00000007fff0
0000000ffff0
0000001ffff0
0000003ffff0
0000007ffff0
000000fffff0
000001ffffe0
000003ffe000
000007ff8000
000007fe0000
00000ffc0000
00000ffc0000
00000ff80000
00000ff80000
00000ff00000
00000ff00000
00000ff00000
00000ff00000
00000ff00000
0007fffffe00
000fffffff00
000fffffff00
000fffffff00
000fffffff00
000fffffff00
000fffffff00
0007fffffe00
00000ff00000
00000ff00000
00000ff00000
00000ff00000
00000ff00000
00000ff00000
00000ff00000
00000ff00000
00000ff00000
00000ff00000
00000ff00000
00000ff00000
00000ff00000
00000ff00000
00000ff00000
00000ff00000
00000ff00000
00000ff00000
00000ff00000
00000ff00000
00000ff00000
00000ff00000
00000ff00000
00000ff00000
00000ff00000
00000ff00000
00000ff00000
00000ff00000
00000ff00000
00000ff00000
00000ff00000
00000ff00000
00000ff00000
00000ff00000
00000ff00000
000007e00000
000000000000
000000000000
000000000000
000000000000
000000000000
000000000000
000000000000
000000000000
000000000000
000000000000
000000000000
000000000000
000000000000
000000000000
000000000000
000000000000
000000000000
000000000000
000000000000
000000000000
000000000000
000000000000
000000000000
000000000000
ENDCHAR
STARTCHAR U+0067
ENCODING 103
SWIDTH 3000 0
DWIDTH 48 0
BBX 48 128 0 -2
BITMAP 
000000000000
000000000000
000000000000
000000000000
000000000000
000000000000
000000000000
000000000000
000000000000
000000000000
000000000000
000000000000
000000000000
000000000000
000000000000
000000000000
000000000000
000000000000
000000000000
000000000000
000000000000
000000000000
000000000000
000000000000
000000000000
000000000000
000000000000
000000000000
000000000000
000000000000
000000000000
000000000000
000000000000
000000000000
000000000000
000000000000
000000000000
000000000000
000000000000
000000000000
000000000000
000000000000
000000000000
000000000000
000000000000
000000000000
000000000000
000000000000
000000000000
000000000000
000000000000
000000000000
000000000000
000000000000
000000000000
000000000000
00001ff801e0
00007ffe07f0
0000ffff0ff0
0001ffff9ff0
0003fffffff0
0007fffffff0
000ffffffff0
001ffffffff0
003ffe07fff0
007ff801fff0
007fe0007ff0
00ffc0003ff0
00ffc0003ff0
00ff80001ff0
00ff80001ff0
00ff00000ff0
00ff00000ff0
00ff00000ff0
00ff00000ff0
00ff00000ff0
00ff00000ff0
00ff00000ff0
00ff00000ff0
00ff00000ff0
00ff00000ff0
00ff00000ff0
00ff00000ff0
00ff00000ff0
00ff00000ff0
00ff00000ff0
00ff00000ff0
00ff00000ff0
00ff00000ff0
00ff80001ff0
00ff80001ff0
00ffc0003ff0
00ffc0003ff0
007fe0007ff0
007ff801fff0
003ffe07fff0
001ffffffff0
000ffffffff0
0007fffffff0
0003fffffff0
0001ffff8ff0
0000ffff0ff0
00007ffe0ff0
00001ff80ff0
000000000ff0
000000000ff0
000000000ff0
000000000ff0
000000000ff0
000000001ff0
000000001ff0
000000003ff0
000780003ff0
000fe0007fe0
000ff801ffe0
000ffe07ffc0
000fffffff80
0007ffffff00
0007fffffe00
0003fffffc00
0001fffff800
0000fffff000
00007fffe000
00001fff8000
000000000000
000000000000
000000000000
000000000000
ENDCHAR
STARTCHAR U+0068
ENCODING 104
SWIDTH 3000 0
DWIDTH 48 0
BBX 48 128 0 -2
BITMAP 
000000000000
000000000000
000000000000
000000000000
000000000000
000000000000
000000000000
000000000000
000000000000
000000000000
000000000000
000000000000
000000000000
000000000000
000000000000
000000000000
000000000000
000000000000
000000000000
000000000000
000000000000
000000000000
000000000000
000000000000
000000000000
000000000000
000000000000
000000000000
000000000000
000000000000
000000000000
000000000000
000000000000
000000000000
000000000000
000000000000
000000000000
000000000000
000000000000
000000000000
007e00000000
00ff00000000
00ff00000000
00ff00000000
00ff00000000
00ff00000000
00ff00000000
00ff00000000
00ff00000000
00ff00000000
00ff00000000
00ff00000000
00ff00000000
00ff00000000
00ff00000000
00ff00000000
00ff01ff8000
00ff07ffe000
00ff0ffff000
00ff1ffff800
00fffffffc00
00fffffffe00
00ffffffff00
00ffffffff80
00fffe07ffc0
00fff801ffe0
00ffe0007fe0
00ffc0003ff0
00ffc0003ff0
00ff80001ff0
00ff80001ff0
00ff00000ff0
00ff00000ff0
00ff00000ff0
00ff00000ff0
00ff00000ff0
00ff00000ff0
00ff00000ff0
00ff00000ff0
00ff00000ff0
00ff00000ff0
00ff00000ff0
00ff00000ff0
00ff00000ff0
00ff00000ff0
00ff00000ff0
00ff00000ff0
00ff00000ff0
00ff00000ff0
00ff00000ff0
00ff00000ff0
00ff00000ff0
00ff00000ff0
00ff00000ff0
00ff00000ff0
00ff00000ff0
00ff00000ff0
00ff00000ff0
00ff00000ff0
00ff00000ff0
00ff00000ff0
00ff00000ff0
00ff00000ff0
007e000007e0
000000000000
000000000000
000000000000
000000000000
000000000000
000000000000
000000000000
000000000000
000000000000
000000000000
000000000000
000000000000
000000000000
000000000000
000000000000
000000000000
000000000000
000000000000
000000000000
000000000000
000000000000
000000000000
000000000000
000000000000
ENDCHAR
STARTCHAR U+0069
ENCODING 105
SWIDTH 3000 0
DWIDTH 48 0
BBX 48 128 0 -2
BITMAP 
000000000000
000000000000
000000000000
000000000000
000000000000
000000000000
000000000000
000000000000
000000000000
000000000000
000000000000
000000000000
000000000000
000000000000
000000000000
000000000000
000000000000
000000000000
000000000000
000000000000
000000000000
000000000000
000000000000
000000000000
000000000000
000000000000
000000000000
000000000000
000000000000
000000000000
000000000000
000000000000
000000000000
000000000000
000000000000
000000000000
0000007e0000
000000ff0000
000000ff0000
000000ff0000
000000ff0000
000000ff0000
000000ff0000
000000ff0000
000000ff0000
000000ff0000
000000ff0000
0000007e0000
000000000000
000000000000
000000000000
000000000000
000000000000
000000000000
000000000000
000000000000
00007ffe0000
0000ffff0000
0000ffff0000
0000ffff0000
0000ffff0000
0000ffff0000
0000ffff0000
00007fff0000
000000ff0000
000000ff0000
000000ff0000
000000ff0000
000000ff0000
000000ff0000
000000ff0000
000000ff0000
000000ff0000
000000ff0000
000000ff0000
000000ff0000
000000ff0000
000000ff0000
000000ff0000
000000ff0000
000000ff0000
000000ff0000
000000ff0000
000000ff0000
000000ff0000
000000ff0000
000000ff0000
000000ff0000
000000ff0000
000000ff0000
000000ff0000
000000ff0000
000000ff0000
000000ff0000
000000ff0000
000000ff0000
00007ffffe00
0000ffffff00
0000ffffff00
0000ffffff00
0000ffffff00
0000ffffff00
0000ffffff00
00007ffffe00
000000000000
000000000000
000000000000
000000000000
000000000000
000000000000
000000000000
000000000000
000000000000
000000000000
000000000000
000000000000
000000000000
000000000000
000000000000
000000000000
000000000000
000000000000
000000000000
000000000000
000000000000
000000000000
000000000000
000000000000
ENDCHAR
STARTCHAR U+006A
ENCODING 106
SWIDTH 3000 0
DWIDTH 48 0
BBX 48 128 0 -2
BITMAP 
000000000000
000000000000
000000000000
000000000000
000000000000
000000000000
000000000000
000000000000
000000000000
000000000000
000000000000
000000000000
000000000000
000000000000
000000000000
000000000000
000000000000
000000000000
000000000000
000000000000
000000000000
000000000000
000000000000
000000000000
000000000000
000000000000
000000000000
000000000000
000000000000
000000000000
000000000000
000000000000
000000000000
000000000000
000000000000
000000000000
0000007e0000
000000ff0000
000000ff0000
000000ff0000
000000ff0000
000000ff0000
000000ff0000
000000ff0000
000000ff0000
000000ff0000
000000ff0000
0000007e0000
000000000000
000000000000
000000000000
000000000000
000000000000
000000000000
000000000000
000000000000
00007ffe0000
0000ffff0000
0000ffff0000
0000ffff0000
0000ffff0000
0000ffff0000
0000ffff0000
00007fff0000
000000ff0000
000000ff0000
000000ff0000
000000ff0000
000000ff0000
000000ff0000
000000ff0000
000000ff0000
000000ff0000
000000ff0000
000000ff0000
000000ff0000
000000ff0000
000000ff0000
000000ff0000
000000ff0000
000000ff0000
000000ff0000
000000ff0000
000000ff0000
000000ff0000
000000ff0000
000000ff0000
000000ff0000
000000ff0000
000000ff0000
000000ff0000
000000ff0000
000000ff0000
000000ff0000
000000ff0000
000000ff0000
000000ff0000
000000ff0000
000000ff0000
000000ff0000
000000ff0000
000000ff0000
000000ff0000
000000ff0000
000000ff0000
000000ff0000
000000ff0000
000000ff0000
000000ff0000
000001ff0000
000001ff0000
000003ff0000
000003ff0000
000007fe0000
00001ffe0000
00007ffc0000
0007fff80000
000ffff00000
000fffe00000
000fffc00000
000fff800000
000fff000000
000ffe000000
0007f8000000
000000000000
000000000000
000000000000
000000000000
ENDCHAR
STARTCHAR U+006B
ENCODING 107
SWIDTH 3000 0
DWIDTH 48 0
BBX 48 128 0 -2
BITMAP 
000000000000
000000000000
000000000000
000000000000
000000000000
000000000000
000000000000
000000000000
000000000000
000000000000
000000000000
000000000000
000000000000
000000000000
000000000000
000000000000
000000000000
000000000000
000000000000
000000000000
000000000000
000000000000
000000000000
000000000000
000000000000
000000000000
000000000000
000000000000
000000000000
000000000000
000000000000
000000000000
000000000000
000000000000
000000000000
000000000000
000000000000
000000000000
000000000000
000000000000
007e00000000
00ff00000000
00ff00000000
00ff00000000
00ff00000000
00ff00000000
00ff00000000
00ff00000000
00ff00000000
00ff00000000
00ff00000000
00ff00000000
00ff00000000
00ff00000000
00ff00000000
00ff00000000
00ff00001e00
00ff00007f00
00ff0000ff00
00ff0001ff00
00ff0003ff00
00ff0007fe00
00ff000ffe00
00ff001ffc00
00ff003ff800
00ff007ff000
00ff00ffe000
00ff01ffc000
00ff03ff8000
00ff07ff0000
00ff0ffe0000
00ff1ffc0000
00fffff80000
00fffff00000
00ffffe00000
00ffffc00000
00ffff800000
00ffff000000
00ffff000000
00ffff800000
00ffffc00000
00ffffe00000
00fffff00000
00fffff80000
00ff1ffc0000
00ff0ffe0000
00ff07ff0000
00ff03ff8000
00ff01ffc000
00ff00ffe000
00ff007ff000
00ff003ff800
00ff001ffc00
00ff000ffe00
00ff0007ff00
00ff0003ff80
00ff0001ffc0
00ff0000ffe0
00ff00007fe0
00ff00003ff0
00ff00001ff0
00ff00000ff0
00ff000007f0
007e000001e0
000000000000
000000000000
000000000000
000000000000
000000000000
000000000000
000000000000
000000000000
000000000000
000000000000
000000000000
000000000000
000000000000
000000000000
000000000000
000000000000
000000000000
000000000000
000000000000
000000000000
000000000000
000000000000
000000000000
000000000000
ENDCHAR
STARTCHAR U+006C
ENCODING 108
SWIDTH 3000 0
DWIDTH 48 0
BBX 48 128 0 -2
BITMAP 
000000000000
000000000000
000000000000
000000000000
000000000000
000000000000
000000000000
000000000000
000000000000
000000000000
000000000000
000000000000
000000000000
000000000000
000000000000
000000000000
000000000000
000000000000
000000000000
000000000000
000000000000
000000000000
000000000000
000000000000
000000000000
000000000000
000000000000
000000000000
000000000000
000000000000
000000000000
000000000000
000000000000
000000000000
000000000000
000000000000
000000000000
000000000000
000000000000
000000000000
0007ffe00000
000ffff00000
000ffff00000
000ffff00000
000ffff00000
000ffff00000
000ffff00000
0007fff00000
00000ff00000
00000ff00000
00000ff00000
00000ff00000
00000ff00000
00000ff00000
00000ff00000
00000ff00000
00000ff00000
00000ff00000
00000ff00000
00000ff00000
00000ff00000
00000ff00000
00000ff00000
00000ff00000
00000ff00000
00000ff00000
00000ff00000
00000ff00000
00000ff00000
00000ff00000
00000ff00000
00000ff00000
00000ff00000
00000ff00000
00000ff00000
00000ff00000
00000ff00000
00000ff00000
00000ff00000
00000ff00000
00000ff00000
00000ff00000
00000ff00000
00000ff00000
00000ff00000
00000ff00000
00000ff00000
00000ff00000
00000ff00000
00000ff80000
00000ff80000
00000ffc0000
00000ffc0000
000007fe0000
000007ff8000
000003ffe000
000001fffe00
000000ffff00
0000007fff00
0000003fff00
0000001fff00
0000000fff00
00000007ff00
00000001fe00
000000000000
000000000000
000000000000
000000000000
000000000000
000000000000
000000000000
000000000000
000000000000
000000000000
000000000000
000000000000
000000000000
000000000000
000000000000
000000000000
000000000000
000000000000
000000000000
000000000000
000000000000
000000000000
000000000000
000000000000
ENDCHAR
STARTCHAR U+006D
ENCODING 109
SWIDTH 3000 0
DWIDTH 48 0
BBX 48 128 0 -2
BITMAP 
000000000000
000000000000
000000000000
000000000000
000000000000
000000000000
000000000000
000000000000
000000000000
000000000000
000000000000
000000000000
000000000000
000000000000
000000000000
000000000000
000000000000
000000000000
000000000000
000000000000
000000000000
000000000000
000000000000
000000000000
000000000000
000000000000
000000000000
000000000000
000000000000
000000000000
000000000000
000000000000
000000000000
000000000000
000000000000
000000000000
000000000000
000000000000
000000000000
000000000000
000000000000
000000000000
000000000000
000000000000
000000000000
000000000000
000000000000
000000000000
000000000000
000000000000
000000000000
000000000000
000000000000
000000000000
000000000000
000000000000
078018001800
0fe07e007e00
0ff0ff81ff00
0ff9ffe7ff80
0fffffffffc0
0fffffffffe0
0fffffffffe0
0ffffffffff0
0fff8fff8ff0
0fff0fff0ff0
0ffe0ffe0ff0
0ffc0ffc0ff0
0ffc0ffc0ff0
0ff80ff80ff0
0ff80ff80ff0
0ff00ff00ff0
0ff00ff00ff0
0ff00ff00ff0
0ff00ff00ff0
0ff00ff00ff0
0ff00ff00ff0
0ff00ff00ff0
0ff00ff00ff0
0ff00ff00ff0
0ff00ff00ff0
0ff00ff00ff0
0ff00ff00ff0
0ff00ff00ff0
0ff00ff00ff0
0ff00ff00ff0
0ff00ff00ff0
0ff00ff00ff0
0ff00ff00ff0
0ff00ff00ff0
0ff00ff00ff0
0ff00ff00ff0
0ff00ff00ff0
0ff00ff00ff0
0ff00ff00ff0
0ff00ff00ff0
0ff00ff00ff0
0ff00ff00ff0
0ff00ff00ff0
0ff00ff00ff0
0ff00ff00ff0
0ff00ff00ff0
0ff00ff00ff0
07e007e007e0
000000000000
000000000000
000000000000
000000000000
000000000000
000000000000
000000000000
000000000000
000000000000
000000000000
000000000000
000000000000
000000000000
000000000000
000000000000
000000000000
000000000000
000000000000
000000000000
000000000000
000000000000
000000000000
000000000000
000000000000
ENDCHAR
STARTCHAR U+006E
ENCODING 110
SWIDTH 3000 0
DWIDTH 48 0
BBX 48 128 0 -2
BITMAP 
000000000000
000000000000
000000000000
000000000000
000000000000
000000000000
000000000000
000000000000
000000000000
000000000000
000000000000
000000000000
000000000000
000000000000
000000000000
000000000000
000000000000
000000000000
000000000000
000000000000
000000000000
000000000000
000000000000
000000000000
000000000000
000000000000
000000000000
000000000000
000000000000
000000000000
000000000000
000000000000
000000000000
000000000000
000000000000
000000000000
000000000000
000000000000
000000000000
000000000000
000000000000
000000000000
000000000000
000000000000
000000000000
000000000000
000000000000
000000000000
000000000000
000000000000
000000000000
000000000000
000000000000
000000000000
000000000000
000000000000
007801ff8000
00fe07ffe000
00ff0ffff000
00ff9ffff800
00fffffffc00
00fffffffe00
00ffffffff00
00ffffffff80
00fffe07ffc0
00fff801ffe0
00ffe0007fe0
00ffc0003ff0
00ffc0003ff0
00ff80001ff0
00ff80001ff0
00ff00000ff0
00ff00000ff0
00ff00000ff0
00ff00000ff0
00ff00000ff0
00ff00000ff0
00ff00000ff0
00ff00000ff0
00ff00000ff0
00ff00000ff0
00ff00000ff0
00ff00000ff0
00ff00000ff0
00ff00000ff0
00ff00000ff0
00ff00000ff0
00ff00000ff0
00ff00000ff0
00ff00000ff0
00ff00000ff0
00ff00000ff0
00ff00000ff0
00ff00000ff0
00ff00000ff0
00ff00000ff0
00ff00000ff0
00ff00000ff0
00ff00000ff0
00ff00000ff0
00ff00000ff0
00ff00000ff0
00ff00000ff0
007e000007e0
000000000000
000000000000
000000000000
000000000000
000000000000
000000000000
000000000000
000000000000
000000000000
000000000000
000000000000
000000000000
000000000000
000000000000
000000000000
000000000000
000000000000
000000000000
000000000000
000000000000
000000000000
000000000000
000000000000
000000000000
ENDCHAR
STARTCHAR U+006F
ENCODING 111
SWIDTH 3000 0
DWIDTH 48 0
BBX 48 128 0 -2
BITMAP 
000000000000
000000000000
000000000000
000000000000
000000000000
000000000000
000000000000
000000000000
000000000000
000000000000
000000000000
000000000000
000000000000
000000000000
000000000000
000000000000
000000000000
000000000000
000000000000
000000000000
000000000000
000000000000
000000000000
000000000000
000000000000
000000000000
000000000000
000000000000
000000000000
000000000000
000000000000
000000000000
000000000000
000000000000
000000000000
000000000000
000000000000
000000000000
000000000000
000000000000
000000000000
000000000000
000000000000
000000000000
000000000000
000000000000
000000000000
000000000000
000000000000
000000000000
000000000000
000000000000
000000000000
000000000000
000000000000
000000000000
00001fff8000
00007fffe000
0000fffff000
0001fffff800
0003fffffc00
0007fffffe00
000fffffff00
001fffffff80
003ffe07ffc0
007ff801ffe0
007fe0007fe0
00ffc0003ff0
00ffc0003ff0
00ff80001ff0
00ff80001ff0
00ff00000ff0
00ff00000ff0
00ff00000ff0
00ff00000ff0
00ff00000ff0
00ff00000ff0
00ff00000ff0
00ff00000ff0
00ff00000ff0
00ff00000ff0
00ff00000ff0
00ff00000ff0
00ff00000ff0
00ff00000ff0
00ff00000ff0
00ff00000ff0
00ff00000ff0
00ff00000ff0
00ff80001ff0
00ff80001ff0
00ffc0003ff0
00ffc0003ff0
007fe0007fe0
007ff801ffe0
003ffe07ffc0
001fffffff80
000fffffff00
0007fffffe00
0003fffffc00
0001fffff800
0000fffff000
00007fffe000
00001fff8000
000000000000
000000000000
000000000000
000000000000
000000000000
000000000000
000000000000
000000000000
000000000000
000000000000
000000000000
000000000000
000000000000
000000000000
000000000000
000000000000
000000000000
000000000000
000000000000
000000000000
000000000000
000000000000
000000000000
000000000000
ENDCHAR
STARTCHAR U+0070
ENCODING 112
SWIDTH 3000 0
DWIDTH 48 0
BBX 48 128 0 -2
BITMAP 
000000000000
000000000000
000000000000
000000000000
000000000000
000000000000
000000000000
000000000000
000000000000
000000000000
000000000000
000000000000
000000000000
000000000000
000000000000
000000000000
000000000000
000000000000
000000000000
000000000000
000000000000
000000000000
000000000000
000000000000
000000000000
000000000000
000000000000
000000000000
000000000000
000000000000
000000000000
000000000000
000000000000
000000000000
000000000000
000000000000
000000000000
000000000000
000000000000
000000000000
000000000000
000000000000
000000000000
000000000000
000000000000
000000000000
000000000000
000000000000
000000000000
000000000000
000000000000
000000000000
000000000000
000000000000
000000000000
000000000000
007801ff8000
00fe07ffe000
00ff0ffff000
00ff9ffff800
00fffffffc00
00fffffffe00
00ffffffff00
00ffffffff80
00fffe07ffc0
00fff801ffe0
00ffe0007fe0
00ffc0003ff0
00ffc0003ff0
00ff80001ff0
00ff80001ff0
00ff00000ff0
00ff00000ff0
00ff00000ff0
00ff00000ff0
00ff00000ff0
00ff00000ff0
00ff00000ff0
00ff00000ff0
00ff00000ff0
00ff00000ff0
00ff00000ff0
00ff00000ff0
00ff00000ff0
00ff00000ff0
00ff00000ff0
00ff00000ff0
00ff00000ff0
00ff00000ff0
00ff80001ff0
00ff80001ff0
00ffc0003ff0
00ffc0003ff0
00ffe0007fe0
00fff801ffe0
00fffe07ffc0
00ffffffff80
00ffffffff00
00fffffffe00
00fffffffc00
00ff1ffff800
00ff0ffff000
00ff07ffe000
00ff01ff8000
00ff00000000
00ff00000000
00ff00000000
00ff00000000
00ff00000000
00ff00000000
00ff00000000
00ff00000000
00ff00000000
00ff00000000
00ff00000000
00ff00000000
00ff00000000
00ff00000000
00ff00000000
00ff00000000
00ff00000000
00ff00000000
00ff00000000
007e00000000
000000000000
000000000000
000000000000
000000000000
ENDCHAR
STARTCHAR U+0071
ENCODING 113
SWIDTH 3000 0
DWIDTH 48 0
BBX 48 128 0 -2
BITMAP 
000000000000
000000000000
000000000000
000000000000
000000000000
000000000000
000000000000
000000000000
000000000000
000000000000
000000000000
000000000000
000000000000
000000000000
000000000000
000000000000
000000000000
000000000000
000000000000
000000000000
000000000000
000000000000
000000000000
000000000000
000000000000
000000000000
000000000000
000000000000
000000000000
000000000000
000000000000
000000000000
000000000000
000000000000
000000000000
000000000000
000000000000
000000000000
000000000000
000000000000
000000000000
000000000000
000000000000
000000000000
000000000000
000000000000
000000000000
000000000000
000000000000
000000000000
000000000000
000000000000
000000000000
000000000000
000000000000
000000000000
00001ff801e0
00007ffe07f0
0000ffff0ff0
0001ffff9ff0
0003fffffff0
0007fffffff0
000ffffffff0
001ffffffff0
003ffe07fff0
007ff801fff0
007fe0007ff0
00ffc0003ff0
00ffc0003ff0
00ff80001ff0
00ff80001ff0
00ff00000ff0
00ff00000ff0
00ff00000ff0
00ff00000ff0
00ff00000ff0
00ff00000ff0
00ff00000ff0
00ff00000ff0
00ff00000ff0
00ff00000ff0
00ff00000ff0
00ff00000ff0
00ff00000ff0
00ff00000ff0
00ff00000ff0
00ff00000ff0
00ff00000ff0
00ff00000ff0
00ff80001ff0
00ff80001ff0
00ffc0003ff0
00ffc0003ff0
007fe0007ff0
007ff801fff0
003ffe07fff0
001ffffffff0
000ffffffff0
0007fffffff0
0003fffffff0
0001ffff8ff0
0000ffff0ff0
00007ffe0ff0
00001ff80ff0
000000000ff0
000000000ff0
000000000ff0
000000000ff0
000000000ff0
000000000ff0
000000000ff0
000000000ff0
000000000ff0
000000000ff0
000000000ff0
000000000ff0
000000000ff0
000000000ff0
000000000ff0
000000000ff0
000000000ff0
000000000ff0
000000000ff0
0000000007e0
000000000000
000000000000
000000000000
000000000000
ENDCHAR
STARTCHAR U+0072
ENCODING 114
SWIDTH 3000 0
DWIDTH 48 0
BBX 48 128 0 -2
BITMAP 
000000000000
000000000000
000000000000
000000000000
000000000000
000000000000
000000000000
000000000000
000000000000
000000000000
000000000000
000000000000
000000000000
000000000000
000000000000
000000000000
000000000000
000000000000
000000000000
000000000000
000000000000
000000000000
000000000000
000000000000
000000000000
000000000000
000000000000
000000000000
000000000000
000000000000
000000000000
000000000000
000000000000
000000000000
000000000000
000000000000
000000000000
000000000000
000000000000
000000000000
000000000000
000000000000
000000000000
000000000000
000000000000
000000000000
000000000000
000000000000
000000000000
000000000000
000000000000
000000000000
000000000000
000000000000
000000000000
000000000000
0007801ff800
000fe07ffe00
000ff0ffff00
000ff9ffff80
000fffffffc0
000fffffffe0
000fffffffe0
000ffffffff0
000fffe07ff0
000fff801ff0
000ffe0007f0
000ffc0001e0
000ffc000000
000ff8000000
000ff8000000
000ff0000000
000ff0000000
000ff0000000
000ff0000000
000ff0000000
000ff0000000
000ff0000000
000ff0000000
000ff0000000
000ff0000000
000ff0000000
000ff0000000
000ff0000000
000ff0000000
000ff0000000
000ff0000000
000ff0000000
000ff0000000
000ff0000000
000ff0000000
000ff0000000
000ff0000000
000ff0000000
000ff0000000
000ff0000000
000ff0000000
000ff0000000
000ff0000000
000ff0000000
000ff0000000
000ff0000000
000ff0000000
0007e0000000
000000000000
000000000000
000000000000
000000000000
000000000000
000000000000
000000000000
000000000000
000000000000
000000000000
000000000000
000000000000
000000000000
000000000000
000000000000
000000000000
000000000000
000000000000
000000000000
000000000000
000000000000
000000000000
000000000000
000000000000
ENDCHAR
ENDFONT
